<?xml version="1.0" encoding="UTF-8" standalone="no"?>
<!-- Created with Inkscape (http://www.inkscape.org/) -->

<svg
   xmlns:dc="http://purl.org/dc/elements/1.1/"
   xmlns:cc="http://creativecommons.org/ns#"
   xmlns:rdf="http://www.w3.org/1999/02/22-rdf-syntax-ns#"
   xmlns:svg="http://www.w3.org/2000/svg"
   xmlns="http://www.w3.org/2000/svg"
   xmlns:sodipodi="http://sodipodi.sourceforge.net/DTD/sodipodi-0.dtd"
   xmlns:inkscape="http://www.inkscape.org/namespaces/inkscape"
   version="1.1"
   id="svg3699"
   xml:space="preserve"
   width="477.39999"
   height="333.39999"
   viewBox="0 0 477.39999 333.39999"
   sodipodi:docname="helix-switch.ai.svg"
   inkscape:version="0.92.1 r15371"><metadata
     id="metadata3705"><rdf:RDF><cc:Work
         rdf:about=""><dc:format>image/svg+xml</dc:format><dc:type
           rdf:resource="http://purl.org/dc/dcmitype/StillImage" /><dc:title></dc:title></cc:Work></rdf:RDF></metadata><defs
     id="defs3703"><clipPath
       clipPathUnits="userSpaceOnUse"
       id="clipPath3715"><path
         d="M 0,250.05 H 358.05 V 0 H 0 Z"
         id="path3713"
         inkscape:connector-curvature="0" /></clipPath><clipPath
       clipPathUnits="userSpaceOnUse"
       id="clipPath3859"><path
         d="M 0,250.05 H 358.05 V 0 H 0 Z"
         id="path3857"
         inkscape:connector-curvature="0" /></clipPath></defs><sodipodi:namedview
     pagecolor="#ffffff"
     bordercolor="#666666"
     borderopacity="1"
     objecttolerance="1"
     gridtolerance="1"
     guidetolerance="1"
     inkscape:pageopacity="0"
     inkscape:pageshadow="2"
     inkscape:window-width="1920"
     inkscape:window-height="1151"
     id="namedview3701"
     showgrid="false"
     showguides="true"
     inkscape:guide-bbox="true"
     inkscape:zoom="7.5345674"
     inkscape:cx="348.90981"
     inkscape:cy="171.91706"
     inkscape:window-x="0"
     inkscape:window-y="25"
     inkscape:window-maximized="1"
     inkscape:current-layer="g3707"><sodipodi:guide
       position="55.710996,300.83938"
       orientation="0,1"
       id="guide3867"
       inkscape:locked="false" /><sodipodi:guide
       position="97.55039,248.45487"
       orientation="0,1"
       id="guide3869"
       inkscape:locked="false" /><sodipodi:guide
       position="29.464199,303.66706"
       orientation="1,0"
       id="guide3871"
       inkscape:locked="false" /><sodipodi:guide
       position="87.861712,310.0377"
       orientation="1,0"
       id="guide3873"
       inkscape:locked="false" /><sodipodi:guide
       position="389.44639,220.19108"
       orientation="1,0"
       id="guide3877"
       inkscape:locked="false" /><sodipodi:guide
       position="447.81029,197.3761"
       orientation="1,0"
       id="guide3879"
       inkscape:locked="false" /><sodipodi:guide
       position="433.48461,84.892947"
       orientation="0,1"
       id="guide3881"
       inkscape:locked="false" /><sodipodi:guide
       position="443.03507,32.365436"
       orientation="0,1"
       id="guide3883"
       inkscape:locked="false" /><sodipodi:guide
       position="32.384075,281.10439"
       orientation="1,0"
       id="guide3885"
       inkscape:locked="false" /><sodipodi:guide
       position="84.941836,290.12946"
       orientation="1,0"
       id="guide3887"
       inkscape:locked="false" /><sodipodi:guide
       position="104.31919,298.75636"
       orientation="1,0"
       id="guide3889"
       inkscape:locked="false" /><sodipodi:guide
       position="156.74423,286.28053"
       orientation="1,0"
       id="guide3891"
       inkscape:locked="false" /><sodipodi:guide
       position="176.38703,281.90072"
       orientation="1,0"
       id="guide3893"
       inkscape:locked="false" /><sodipodi:guide
       position="228.81207,276.45913"
       orientation="1,0"
       id="guide3895"
       inkscape:locked="false" /><sodipodi:guide
       position="248.45487,276.32641"
       orientation="1,0"
       id="guide3897"
       inkscape:locked="false" /><sodipodi:guide
       position="300.87991,273.53926"
       orientation="1,0"
       id="guide3899"
       inkscape:locked="false" /><sodipodi:guide
       position="320.65543,281.63528"
       orientation="1,0"
       id="guide3901"
       inkscape:locked="false" /><sodipodi:guide
       position="372.81503,281.23711"
       orientation="1,0"
       id="guide3903"
       inkscape:locked="false" /><sodipodi:guide
       position="392.45783,313.35574"
       orientation="1,0"
       id="guide3905"
       inkscape:locked="false" /><sodipodi:guide
       position="444.75015,304.33067"
       orientation="1,0"
       id="guide3907"
       inkscape:locked="false" /></sodipodi:namedview><g
     id="g3707"
     inkscape:groupmode="layer"
     inkscape:label="switch-layer"
     transform="matrix(1.3333333,0,0,-1.3333333,0,333.4)"><g
       id="g3709"><g
         id="g3711"
         clip-path="url(#clipPath3715)"><g
           id="g3717"
           transform="translate(5.6863,0.0142)"><path
             d="m 0,0 -0.445,0.02 -0.442,0.051 -0.437,0.088 -0.431,0.119 -0.416,0.156 -0.403,0.184 -0.388,0.218 -0.372,0.247 -0.348,0.278 -0.329,0.3 -0.3,0.329 -0.278,0.349 -0.247,0.371 -0.218,0.388 -0.184,0.403 -0.156,0.416 -0.119,0.431 -0.088,0.437 -0.051,0.442 -0.02,0.442 0.003,238.68 0.017,0.445 0.051,0.443 0.088,0.436 0.119,0.431 0.156,0.417 0.184,0.402 0.218,0.389 0.247,0.371 0.278,0.349 0.3,0.328 0.329,0.301 0.348,0.278 0.372,0.246 0.388,0.218 0.403,0.185 0.416,0.156 0.431,0.119 0.437,0.088 0.442,0.051 0.445,0.019 346.677,-0.002 0.445,-0.017 0.442,-0.051 0.437,-0.088 0.431,-0.119 0.417,-0.156 0.402,-0.185 0.388,-0.218 0.372,-0.246 0.346,-0.278 0.331,-0.301 0.301,-0.328 0.277,-0.349 0.247,-0.371 0.218,-0.389 0.185,-0.402 0.155,-0.417 0.12,-0.431 0.087,-0.436 0.051,-0.443 0.02,-0.445 V 5.669 l -0.02,-0.442 -0.051,-0.442 -0.087,-0.437 -0.12,-0.431 -0.155,-0.416 -0.185,-0.403 -0.218,-0.388 -0.247,-0.371 -0.277,-0.349 -0.301,-0.329 -0.331,-0.3 -0.346,-0.278 -0.372,-0.247 -0.388,-0.218 -0.402,-0.184 -0.417,-0.156 -0.431,-0.119 -0.437,-0.088 -0.442,-0.051 -0.445,-0.017"
             style="fill:none;stroke:#3a53a4;stroke-width:0.028;stroke-linecap:butt;stroke-linejoin:miter;stroke-miterlimit:4;stroke-dasharray:none;stroke-opacity:1"
             id="path3719"
             inkscape:connector-curvature="0" /></g></g></g><g
       id="g3721"
       transform="translate(348.6104,11.3499)"><path
         d="M 0,0 -0.831,-0.422 -1.488,-1.08 -1.911,-1.911 -2.058,-2.832 -1.911,-3.75 -1.488,-4.581 -0.831,-5.238 0,-5.661 0.918,-5.808 1.84,-5.661 2.67,-5.238 3.328,-4.581 3.75,-3.75 3.898,-2.832 3.75,-1.911 3.328,-1.08 2.67,-0.422 1.84,0 0.918,0.145 Z"
         style="fill:none;stroke:#3a53a4;stroke-width:0.028;stroke-linecap:butt;stroke-linejoin:miter;stroke-miterlimit:4;stroke-dasharray:none;stroke-opacity:1"
         id="path3723"
         inkscape:connector-curvature="0" /></g><g
       id="g3725"
       transform="translate(178.1065,11.3499)"><path
         d="M 0,0 -0.831,-0.422 -1.488,-1.08 -1.913,-1.911 -2.058,-2.832 -1.913,-3.75 -1.488,-4.581 -0.831,-5.238 0,-5.661 0.918,-5.808 1.837,-5.661 2.667,-5.238 3.325,-4.581 3.75,-3.75 3.895,-2.832 3.75,-1.911 3.325,-1.08 2.667,-0.422 1.837,0 0.918,0.145 Z"
         style="fill:none;stroke:#3a53a4;stroke-width:0.028;stroke-linecap:butt;stroke-linejoin:miter;stroke-miterlimit:4;stroke-dasharray:none;stroke-opacity:1"
         id="path3727"
         inkscape:connector-curvature="0" /></g><g
       id="g3729"
       transform="translate(7.5997,11.3499)"><path
         d="M 0,0 -0.831,-0.422 -1.488,-1.08 -1.911,-1.911 -2.058,-2.832 -1.911,-3.75 -1.488,-4.581 -0.831,-5.238 0,-5.661 0.921,-5.808 1.84,-5.661 2.67,-5.238 3.328,-4.581 3.75,-3.75 3.898,-2.832 3.75,-1.911 3.328,-1.08 2.67,-0.422 1.84,0 0.921,0.145 Z"
         style="fill:none;stroke:#3a53a4;stroke-width:0.028;stroke-linecap:butt;stroke-linejoin:miter;stroke-miterlimit:4;stroke-dasharray:none;stroke-opacity:1"
         id="path3731"
         inkscape:connector-curvature="0" /></g><g
       id="g3733"
       transform="translate(348.6104,127.8567)"><path
         d="m 0,0 -0.831,-0.425 -0.657,-0.658 -0.423,-0.83 -0.147,-0.919 0.147,-0.918 0.423,-0.831 0.657,-0.657 L 0,-5.664 0.918,-5.808 1.84,-5.664 2.67,-5.238 3.328,-4.581 3.75,-3.75 3.898,-2.832 3.75,-1.913 3.328,-1.083 2.67,-0.425 1.84,0 0.918,0.145 Z"
         style="fill:none;stroke:#3a53a4;stroke-width:0.028;stroke-linecap:butt;stroke-linejoin:miter;stroke-miterlimit:4;stroke-dasharray:none;stroke-opacity:1"
         id="path3735"
         inkscape:connector-curvature="0" /></g><g
       id="g3737"
       transform="translate(7.5997,127.8567)"><path
         d="m 0,0 -0.831,-0.425 -0.657,-0.658 -0.423,-0.83 -0.147,-0.919 0.147,-0.918 0.423,-0.831 0.657,-0.657 L 0,-5.664 0.921,-5.808 1.84,-5.664 2.67,-5.238 3.328,-4.581 3.75,-3.75 3.898,-2.832 3.75,-1.913 3.328,-1.083 2.67,-0.425 1.84,0 0.921,0.145 Z"
         style="fill:none;stroke:#3a53a4;stroke-width:0.028;stroke-linecap:butt;stroke-linejoin:miter;stroke-miterlimit:4;stroke-dasharray:none;stroke-opacity:1"
         id="path3739"
         inkscape:connector-curvature="0" /></g><g
       id="g3741"
       transform="translate(348.6104,244.3606)"><path
         d="M 0,0 -0.831,-0.422 -1.488,-1.08 -1.911,-1.911 -2.058,-2.832 -1.911,-3.75 -1.488,-4.581 -0.831,-5.238 0,-5.661 0.918,-5.808 1.84,-5.661 2.67,-5.238 3.328,-4.581 3.75,-3.75 3.898,-2.832 3.75,-1.911 3.328,-1.08 2.67,-0.422 1.84,0 0.918,0.145 Z"
         style="fill:none;stroke:#3a53a4;stroke-width:0.028;stroke-linecap:butt;stroke-linejoin:miter;stroke-miterlimit:4;stroke-dasharray:none;stroke-opacity:1"
         id="path3743"
         inkscape:connector-curvature="0" /></g><g
       id="g3745"
       transform="translate(7.5997,244.3606)"><path
         d="M 0,0 -0.831,-0.422 -1.488,-1.08 -1.911,-1.911 -2.058,-2.832 -1.911,-3.75 -1.488,-4.581 -0.831,-5.238 0,-5.661 0.921,-5.808 1.84,-5.661 2.67,-5.238 3.328,-4.581 3.75,-3.75 3.898,-2.832 3.75,-1.911 3.328,-1.08 2.67,-0.422 1.84,0 0.921,0.145 Z"
         style="fill:none;stroke:#3a53a4;stroke-width:0.028;stroke-linecap:butt;stroke-linejoin:miter;stroke-miterlimit:4;stroke-dasharray:none;stroke-opacity:1"
         id="path3747"
         inkscape:connector-curvature="0" /></g><g
       id="g3749"
       transform="translate(246.1359,244.3606)"><path
         d="M 0,0 -0.831,-0.422 -1.488,-1.08 -1.911,-1.911 -2.058,-2.832 -1.911,-3.75 -1.488,-4.581 -0.831,-5.238 0,-5.661 0.918,-5.808 1.84,-5.661 2.667,-5.238 3.328,-4.581 3.75,-3.75 3.895,-2.832 3.75,-1.911 3.328,-1.08 2.667,-0.422 1.84,0 0.918,0.145 Z"
         style="fill:none;stroke:#3a53a4;stroke-width:0.028;stroke-linecap:butt;stroke-linejoin:miter;stroke-miterlimit:4;stroke-dasharray:none;stroke-opacity:1"
         id="path3751"
         inkscape:connector-curvature="0" /></g><g
       id="g3753"
       transform="translate(159.7781,244.3606)"><path
         d="M 0,0 -0.831,-0.422 -1.488,-1.08 -1.911,-1.911 -2.058,-2.832 -1.911,-3.75 -1.488,-4.581 -0.831,-5.238 0,-5.661 0.918,-5.808 1.84,-5.661 2.667,-5.238 3.328,-4.581 3.75,-3.75 3.895,-2.832 3.75,-1.911 3.328,-1.08 2.667,-0.422 1.84,0 0.918,0.145 Z"
         style="fill:none;stroke:#3a53a4;stroke-width:0.028;stroke-linecap:butt;stroke-linejoin:miter;stroke-miterlimit:4;stroke-dasharray:none;stroke-opacity:1"
         id="path3755"
         inkscape:connector-curvature="0" /></g><g
       id="g3757"
       transform="translate(24.3964,63.6563)"><path
         d="M 0,0 V -1.701 H -2.268 V -37.559 H 0 v -1.701 h 39.26 v 1.701 h 2.268 V -1.701 H 39.26 V 0 Z"
         style="fill:none;stroke:#3a53a4;stroke-width:0.028;stroke-linecap:butt;stroke-linejoin:miter;stroke-miterlimit:4;stroke-dasharray:none;stroke-opacity:1"
         id="path3759"
         inkscape:connector-curvature="0" /></g><g
       id="g3761"
       transform="translate(78.3964,63.6563)"><path
         d="M 0,0 V -1.701 H -2.268 V -37.559 H 0 v -1.701 h 39.26 v 1.701 h 2.268 V -1.701 H 39.26 V 0 Z"
         style="fill:none;stroke:#3a53a4;stroke-width:0.028;stroke-linecap:butt;stroke-linejoin:miter;stroke-miterlimit:4;stroke-dasharray:none;stroke-opacity:1"
         id="path3763"
         inkscape:connector-curvature="0" /></g><g
       id="g3765"
       transform="translate(132.3964,63.6563)"><path
         d="M 0,0 V -1.701 H -2.268 V -37.559 H 0 v -1.701 h 39.26 v 1.701 h 2.268 V -1.701 H 39.26 V 0 Z"
         style="fill:none;stroke:#3a53a4;stroke-width:0.028;stroke-linecap:butt;stroke-linejoin:miter;stroke-miterlimit:4;stroke-dasharray:none;stroke-opacity:1"
         id="path3767"
         inkscape:connector-curvature="0" /></g><g
       id="g3769"
       transform="translate(186.3964,63.6563)"><path
         d="M 0,0 V -1.701 H -2.268 V -37.559 H 0 v -1.701 h 39.26 v 1.701 h 2.268 V -1.701 H 39.26 V 0 Z"
         style="fill:none;stroke:#3a53a4;stroke-width:0.028;stroke-linecap:butt;stroke-linejoin:miter;stroke-miterlimit:4;stroke-dasharray:none;stroke-opacity:1"
         id="path3771"
         inkscape:connector-curvature="0" /></g><g
       id="g3773"
       transform="translate(240.3964,63.6563)"><path
         d="M 0,0 V -1.701 H -2.268 V -37.559 H 0 v -1.701 h 39.26 v 1.701 h 2.265 V -1.701 H 39.26 V 0 Z"
         style="fill:none;stroke:#3a53a4;stroke-width:0.028;stroke-linecap:butt;stroke-linejoin:miter;stroke-miterlimit:4;stroke-dasharray:none;stroke-opacity:1"
         id="path3775"
         inkscape:connector-curvature="0" /></g><g
       id="g3777"
       transform="translate(294.3964,63.6563)"><path
         d="M 0,0 V -1.701 H -2.268 V -37.559 H 0 v -1.701 h 39.257 v 1.701 h 2.268 V -1.701 H 39.257 V 0 Z"
         style="fill:none;stroke:#3a53a4;stroke-width:0.028;stroke-linecap:butt;stroke-linejoin:miter;stroke-miterlimit:4;stroke-dasharray:none;stroke-opacity:1"
         id="path3779"
         inkscape:connector-curvature="0" /></g><g
       id="g3781"
       transform="translate(24.3964,117.6563)"><path
         d="M 0,0 V -1.701 H -2.268 V -37.559 H 0 v -1.701 h 39.26 v 1.701 h 2.268 V -1.701 H 39.26 V 0 Z"
         style="fill:none;stroke:#3a53a4;stroke-width:0.028;stroke-linecap:butt;stroke-linejoin:miter;stroke-miterlimit:4;stroke-dasharray:none;stroke-opacity:1"
         id="path3783"
         inkscape:connector-curvature="0" /></g><g
       id="g3785"
       transform="translate(78.3964,117.6563)"><path
         d="M 0,0 V -1.701 H -2.268 V -37.559 H 0 v -1.701 h 39.26 v 1.701 h 2.268 V -1.701 H 39.26 V 0 Z"
         style="fill:none;stroke:#3a53a4;stroke-width:0.028;stroke-linecap:butt;stroke-linejoin:miter;stroke-miterlimit:4;stroke-dasharray:none;stroke-opacity:1"
         id="path3787"
         inkscape:connector-curvature="0" /></g><g
       id="g3789"
       transform="translate(132.3964,117.6563)"><path
         d="M 0,0 V -1.701 H -2.268 V -37.559 H 0 v -1.701 h 39.26 v 1.701 h 2.268 V -1.701 H 39.26 V 0 Z"
         style="fill:none;stroke:#3a53a4;stroke-width:0.028;stroke-linecap:butt;stroke-linejoin:miter;stroke-miterlimit:4;stroke-dasharray:none;stroke-opacity:1"
         id="path3791"
         inkscape:connector-curvature="0" /></g><g
       id="g3793"
       transform="translate(186.3964,117.6563)"><path
         d="M 0,0 V -1.701 H -2.268 V -37.559 H 0 v -1.701 h 39.26 v 1.701 h 2.268 V -1.701 H 39.26 V 0 Z"
         style="fill:none;stroke:#3a53a4;stroke-width:0.028;stroke-linecap:butt;stroke-linejoin:miter;stroke-miterlimit:4;stroke-dasharray:none;stroke-opacity:1"
         id="path3795"
         inkscape:connector-curvature="0" /></g><g
       id="g3797"
       transform="translate(240.3964,117.6563)"><path
         d="M 0,0 V -1.701 H -2.268 V -37.559 H 0 v -1.701 h 39.26 v 1.701 h 2.265 V -1.701 H 39.26 V 0 Z"
         style="fill:none;stroke:#3a53a4;stroke-width:0.028;stroke-linecap:butt;stroke-linejoin:miter;stroke-miterlimit:4;stroke-dasharray:none;stroke-opacity:1"
         id="path3799"
         inkscape:connector-curvature="0" /></g><g
       id="g3801"
       transform="translate(294.3964,117.6563)"><path
         d="M 0,0 V -1.701 H -2.268 V -37.559 H 0 v -1.701 h 39.257 v 1.701 h 2.268 V -1.701 H 39.257 V 0 Z"
         style="fill:none;stroke:#3a53a4;stroke-width:0.028;stroke-linecap:butt;stroke-linejoin:miter;stroke-miterlimit:4;stroke-dasharray:none;stroke-opacity:1"
         id="path3803"
         inkscape:connector-curvature="0" /></g><g
       id="g3805"
       transform="translate(24.3964,171.6562)"><path
         d="M 0,0 V -1.701 H -2.268 V -37.559 H 0 v -1.701 h 39.26 v 1.701 h 2.268 V -1.701 H 39.26 V 0 Z"
         style="fill:none;stroke:#3a53a4;stroke-width:0.028;stroke-linecap:butt;stroke-linejoin:miter;stroke-miterlimit:4;stroke-dasharray:none;stroke-opacity:1"
         id="path3807"
         inkscape:connector-curvature="0" /></g><g
       id="g3809"
       transform="translate(78.3964,171.6562)"><path
         d="M 0,0 V -1.701 H -2.268 V -37.559 H 0 v -1.701 h 39.26 v 1.701 h 2.268 V -1.701 H 39.26 V 0 Z"
         style="fill:none;stroke:#3a53a4;stroke-width:0.028;stroke-linecap:butt;stroke-linejoin:miter;stroke-miterlimit:4;stroke-dasharray:none;stroke-opacity:1"
         id="path3811"
         inkscape:connector-curvature="0" /></g><g
       id="g3813"
       transform="translate(132.3964,171.6562)"><path
         d="M 0,0 V -1.701 H -2.268 V -37.559 H 0 v -1.701 h 39.26 v 1.701 h 2.268 V -1.701 H 39.26 V 0 Z"
         style="fill:none;stroke:#3a53a4;stroke-width:0.028;stroke-linecap:butt;stroke-linejoin:miter;stroke-miterlimit:4;stroke-dasharray:none;stroke-opacity:1"
         id="path3815"
         inkscape:connector-curvature="0" /></g><g
       id="g3817"
       transform="translate(186.3964,171.6562)"><path
         d="M 0,0 V -1.701 H -2.268 V -37.559 H 0 v -1.701 h 39.26 v 1.701 h 2.268 V -1.701 H 39.26 V 0 Z"
         style="fill:none;stroke:#3a53a4;stroke-width:0.028;stroke-linecap:butt;stroke-linejoin:miter;stroke-miterlimit:4;stroke-dasharray:none;stroke-opacity:1"
         id="path3819"
         inkscape:connector-curvature="0" /></g><g
       id="g3821"
       transform="translate(240.3964,171.6562)"><path
         d="M 0,0 V -1.701 H -2.268 V -37.559 H 0 v -1.701 h 39.26 v 1.701 h 2.265 V -1.701 H 39.26 V 0 Z"
         style="fill:none;stroke:#3a53a4;stroke-width:0.028;stroke-linecap:butt;stroke-linejoin:miter;stroke-miterlimit:4;stroke-dasharray:none;stroke-opacity:1"
         id="path3823"
         inkscape:connector-curvature="0" /></g><g
       id="g3825"
       transform="translate(294.3964,171.6562)"><path
         d="M 0,0 V -1.701 H -2.268 V -37.559 H 0 v -1.701 h 39.257 v 1.701 h 2.268 V -1.701 H 39.257 V 0 Z"
         style="fill:none;stroke:#3a53a4;stroke-width:0.028;stroke-linecap:butt;stroke-linejoin:miter;stroke-miterlimit:4;stroke-dasharray:none;stroke-opacity:1"
         id="path3827"
         inkscape:connector-curvature="0" /></g><g
       id="g3829"
       transform="translate(24.3964,225.6562)"><path
         d="M 0,0 V -1.701 H -2.268 V -37.559 H 0 v -1.701 h 39.26 v 1.701 h 2.268 V -1.701 H 39.26 V 0 Z"
         style="fill:none;stroke:#3a53a4;stroke-width:0.028;stroke-linecap:butt;stroke-linejoin:miter;stroke-miterlimit:4;stroke-dasharray:none;stroke-opacity:1"
         id="path3831"
         inkscape:connector-curvature="0" /></g><g
       id="g3833"
       transform="translate(78.3964,225.6562)"><path
         d="M 0,0 V -1.701 H -2.268 V -37.559 H 0 v -1.701 h 39.26 v 1.701 h 2.268 V -1.701 H 39.26 V 0 Z"
         style="fill:none;stroke:#3a53a4;stroke-width:0.028;stroke-linecap:butt;stroke-linejoin:miter;stroke-miterlimit:4;stroke-dasharray:none;stroke-opacity:1"
         id="path3835"
         inkscape:connector-curvature="0" /></g><g
       id="g3837"
       transform="translate(132.3964,225.6562)"><path
         d="M 0,0 V -1.701 H -2.268 V -37.559 H 0 v -1.701 h 39.26 v 1.701 h 2.268 V -1.701 H 39.26 V 0 Z"
         style="fill:none;stroke:#3a53a4;stroke-width:0.028;stroke-linecap:butt;stroke-linejoin:miter;stroke-miterlimit:4;stroke-dasharray:none;stroke-opacity:1"
         id="path3839"
         inkscape:connector-curvature="0" /></g><g
       id="g3841"
       transform="translate(186.3964,225.6562)"><path
         d="M 0,0 V -1.701 H -2.268 V -37.559 H 0 v -1.701 h 39.26 v 1.701 h 2.268 V -1.701 H 39.26 V 0 Z"
         style="fill:none;stroke:#3a53a4;stroke-width:0.028;stroke-linecap:butt;stroke-linejoin:miter;stroke-miterlimit:4;stroke-dasharray:none;stroke-opacity:1"
         id="path3843"
         inkscape:connector-curvature="0" /></g><g
       id="g3845"
       transform="translate(240.3964,225.6562)"><path
         d="M 0,0 V -1.701 H -2.268 V -37.559 H 0 v -1.701 h 39.26 v 1.701 h 2.265 V -1.701 H 39.26 V 0 Z"
         style="fill:none;stroke:#3a53a4;stroke-width:0.028;stroke-linecap:butt;stroke-linejoin:miter;stroke-miterlimit:4;stroke-dasharray:none;stroke-opacity:1"
         id="path3847"
         inkscape:connector-curvature="0" /></g><g
       id="g3849"
       transform="translate(294.3964,225.6562)"><path
         d="M 0,0 V -1.701 H -2.268 V -37.559 H 0 v -1.701 h 39.257 v 1.701 h 2.268 V -1.701 H 39.257 V 0 Z"
         style="fill:none;stroke:#3a53a4;stroke-width:0.028;stroke-linecap:butt;stroke-linejoin:miter;stroke-miterlimit:4;stroke-dasharray:none;stroke-opacity:1"
         id="path3851"
         inkscape:connector-curvature="0" /></g><g
       id="g3853"><g
         id="g3855"
         clip-path="url(#clipPath3859)"><g
           id="g3861"
           transform="translate(5.6863,0.0142)"><path
             d="M 0,0 346.677,0.003"
             style="fill:none;stroke:#3a53a4;stroke-width:0.028;stroke-linecap:butt;stroke-linejoin:miter;stroke-miterlimit:4;stroke-dasharray:none;stroke-opacity:1"
             id="path3863"
             inkscape:connector-curvature="0" /></g></g></g></g></svg>