<?xml version="1.0" encoding="UTF-8" standalone="no"?>
<svg
   xmlns:dc="http://purl.org/dc/elements/1.1/"
   xmlns:cc="http://creativecommons.org/ns#"
   xmlns:rdf="http://www.w3.org/1999/02/22-rdf-syntax-ns#"
   xmlns:svg="http://www.w3.org/2000/svg"
   xmlns="http://www.w3.org/2000/svg"
   viewBox="0 0 477.39999 333.39999"
   height="88.212082mm"
   width="126.31208mm"
   xml:space="preserve"
   id="svg5443"
   version="1.1"><metadata
     id="metadata5449"><rdf:RDF><cc:Work
         rdf:about=""><dc:format>image/svg+xml</dc:format><dc:type
           rdf:resource="http://purl.org/dc/dcmitype/StillImage" /><dc:title></dc:title></cc:Work></rdf:RDF></metadata><defs
     id="defs5447"><clipPath
       id="clipPath5459"
       clipPathUnits="userSpaceOnUse"><path
         id="path5457"
         d="M 0,250.05 H 358.05 V 0 H 0 Z" /></clipPath><clipPath
       id="clipPath5603"
       clipPathUnits="userSpaceOnUse"><path
         id="path5601"
         d="M 0,250.05 H 358.05 V 0 H 0 Z" /></clipPath></defs><g
     style="display:inline"
     transform="matrix(1.3333333,0,0,-1.3333333,0,333.4)"
     id="g5451"><g
       id="g5936"><path
         style="display:inline;fill:none;stroke:#ff0000;stroke-width:0.28346458;stroke-linecap:butt;stroke-linejoin:miter;stroke-miterlimit:4;stroke-dasharray:none;stroke-opacity:1"
         d="m 454.39981,225.68752 h 35.21285 v -1.6875 h 2.01858 v -35.875 h -2.01858 v -1.6875 h -35.21285 v 1.6875 h -2.01857 v 35.875 h 2.01857 z"
         id="path5657-0" /><path
         style="display:inline;fill:none;stroke:#ff0000;stroke-width:0.28346458;stroke-linecap:butt;stroke-linejoin:miter;stroke-miterlimit:4;stroke-dasharray:none;stroke-opacity:1"
         d="m 508.3998,225.68752 h 35.21286 v -1.6875 h 2.01858 v -35.875 h -2.01858 v -1.6875 H 508.3998 v 1.6875 h -2.01857 v 35.875 h 2.01857 z"
         id="path5657-1-61" /><path
         style="display:inline;fill:none;stroke:#ff0000;stroke-width:0.28346458;stroke-linecap:butt;stroke-linejoin:miter;stroke-miterlimit:4;stroke-dasharray:none;stroke-opacity:1"
         d="m 562.3998,225.68752 h 35.21287 v -1.6875 h 2.01856 v -35.875 h -2.01856 v -1.6875 H 562.3998 v 1.6875 h -2.01857 v 35.875 h 2.01857 z"
         id="path5657-1-4-55" /><path
         style="display:inline;fill:none;stroke:#ff0000;stroke-width:0.28346458;stroke-linecap:butt;stroke-linejoin:miter;stroke-miterlimit:4;stroke-dasharray:none;stroke-opacity:1"
         d="m 616.39981,225.68752 h 35.21286 v -1.6875 h 2.01858 v -35.875 h -2.01858 v -1.6875 h -35.21286 v 1.6875 h -2.01857 v 35.875 h 2.01857 z"
         id="path5657-1-4-9-4" /><path
         style="display:inline;fill:none;stroke:#ff0000;stroke-width:0.28346458;stroke-linecap:butt;stroke-linejoin:miter;stroke-miterlimit:4;stroke-dasharray:none;stroke-opacity:1"
         d="m 670.39981,225.68752 h 35.21287 v -1.6875 h 2.01856 v -35.875 h -2.01856 v -1.6875 h -35.21287 v 1.6875 h -2.01857 v 35.875 h 2.01857 z"
         id="path5657-1-4-9-2-7" /><path
         style="display:inline;fill:none;stroke:#ff0000;stroke-width:0.28346458;stroke-linecap:butt;stroke-linejoin:miter;stroke-miterlimit:4;stroke-dasharray:none;stroke-opacity:1"
         d="m 724.39982,225.68752 h 35.21286 v -1.6875 h 2.01856 v -35.875 h -2.01856 v -1.6875 h -35.21286 v 1.6875 h -2.01858 v 35.875 h 2.01858 z"
         id="path5657-1-4-9-2-0-65" /><path
         style="display:inline;fill:none;stroke:#ff0000;stroke-width:0.28346458;stroke-linecap:butt;stroke-linejoin:miter;stroke-miterlimit:4;stroke-dasharray:none;stroke-opacity:1"
         d="m 454.4212,171.64271 h 35.21285 v -1.6875 h 2.01857 v -35.875 h -2.01857 v -1.6875 H 454.4212 v 1.6875 h -2.01857 v 35.875 h 2.01857 z"
         id="path5657-6-6" /><path
         style="display:inline;fill:none;stroke:#ff0000;stroke-width:0.28346458;stroke-linecap:butt;stroke-linejoin:miter;stroke-miterlimit:4;stroke-dasharray:none;stroke-opacity:1"
         d="m 508.42119,171.64271 h 35.21286 v -1.6875 h 2.01858 v -35.875 h -2.01858 v -1.6875 h -35.21286 v 1.6875 h -2.01857 v 35.875 h 2.01857 z"
         id="path5657-1-8-9" /><path
         style="display:inline;fill:none;stroke:#ff0000;stroke-width:0.28346458;stroke-linecap:butt;stroke-linejoin:miter;stroke-miterlimit:4;stroke-dasharray:none;stroke-opacity:1"
         d="m 616.4212,171.64271 h 35.21286 v -1.6875 h 2.01858 v -35.875 h -2.01858 v -1.6875 H 616.4212 v 1.6875 h -2.01857 v 35.875 h 2.01857 z"
         id="path5657-1-4-9-9-3" /><path
         style="display:inline;fill:none;stroke:#ff0000;stroke-width:0.28346458;stroke-linecap:butt;stroke-linejoin:miter;stroke-miterlimit:4;stroke-dasharray:none;stroke-opacity:1"
         d="m 670.4212,171.64271 h 35.21287 v -1.6875 h 2.01856 v -35.875 h -2.01856 v -1.6875 H 670.4212 v 1.6875 h -2.01857 v 35.875 h 2.01857 z"
         id="path5657-1-4-9-2-2-7" /><path
         style="display:inline;fill:none;stroke:#ff0000;stroke-width:0.28346458;stroke-linecap:butt;stroke-linejoin:miter;stroke-miterlimit:4;stroke-dasharray:none;stroke-opacity:1"
         d="m 724.42121,171.64271 h 35.21286 v -1.6875 h 2.01856 v -35.875 h -2.01856 v -1.6875 h -35.21286 v 1.6875 h -2.01858 v 35.875 h 2.01858 z"
         id="path5657-1-4-9-2-0-6-4" /><path
         style="display:inline;fill:none;stroke:#ff0000;stroke-width:0.28346458;stroke-linecap:butt;stroke-linejoin:miter;stroke-miterlimit:4;stroke-dasharray:none;stroke-opacity:1"
         d="m 508.43121,117.65981 h 35.21286 v -1.6875 h 2.01856 V 80.097308 h -2.01856 v -1.687501 h -35.21286 v 1.687501 h -2.01858 v 35.875002 h 2.01858 z"
         id="path5657-1-9-2" /><path
         style="display:inline;fill:none;stroke:#ff0000;stroke-width:0.28346458;stroke-linecap:butt;stroke-linejoin:miter;stroke-miterlimit:4;stroke-dasharray:none;stroke-opacity:1"
         d="m 562.43121,117.65981 h 35.21285 v -1.6875 h 2.01857 V 80.097308 h -2.01857 v -1.687501 h -35.21285 v 1.687501 h -2.01858 v 35.875002 h 2.01858 z"
         id="path5657-1-4-5-5" /><path
         style="display:inline;fill:none;stroke:#ff0000;stroke-width:0.28346458;stroke-linecap:butt;stroke-linejoin:miter;stroke-miterlimit:4;stroke-dasharray:none;stroke-opacity:1"
         d="m 616.43122,117.65981 h 35.21286 v -1.6875 h 2.01856 V 80.097308 h -2.01856 v -1.687501 h -35.21286 v 1.687501 h -2.01858 v 35.875002 h 2.01858 z"
         id="path5657-1-4-9-0-4" /><path
         style="display:inline;fill:none;stroke:#ff0000;stroke-width:0.28346458;stroke-linecap:butt;stroke-linejoin:miter;stroke-miterlimit:4;stroke-dasharray:none;stroke-opacity:1"
         d="m 670.43122,117.65981 h 35.21285 v -1.6875 h 2.01857 V 80.097308 h -2.01857 v -1.687501 h -35.21285 v 1.687501 h -2.01858 v 35.875002 h 2.01858 z"
         id="path5657-1-4-9-2-4-7" /><path
         style="display:inline;fill:none;stroke:#ff0000;stroke-width:0.28346458;stroke-linecap:butt;stroke-linejoin:miter;stroke-miterlimit:4;stroke-dasharray:none;stroke-opacity:1"
         d="m 724.43121,117.65981 h 35.21286 v -1.6875 h 2.01857 V 80.097308 h -2.01857 v -1.687501 h -35.21286 v 1.687501 h -2.01856 v 35.875002 h 2.01856 z"
         id="path5657-1-4-9-2-0-8-4" /><path
         style="display:inline;fill:none;stroke:#ff0000;stroke-width:0.28346458;stroke-linecap:butt;stroke-linejoin:miter;stroke-miterlimit:4;stroke-dasharray:none;stroke-opacity:1"
         d="m 454.4526,63.615 h 35.21284 v -1.6875 h 2.01857 V 26.052511 h -2.01857 v -1.6875 H 454.4526 v 1.6875 h -2.01858 V 61.9275 h 2.01858 z"
         id="path5657-6-7-4" /><path
         style="display:inline;fill:none;stroke:#ff0000;stroke-width:0.28346458;stroke-linecap:butt;stroke-linejoin:miter;stroke-miterlimit:4;stroke-dasharray:none;stroke-opacity:1"
         d="m 508.4526,63.615 h 35.21286 v -1.6875 h 2.01856 V 26.052511 h -2.01856 v -1.6875 H 508.4526 v 1.6875 h -2.01858 V 61.9275 h 2.01858 z"
         id="path5657-1-8-1-3" /><path
         style="display:inline;fill:none;stroke:#ff0000;stroke-width:0.28346458;stroke-linecap:butt;stroke-linejoin:miter;stroke-miterlimit:4;stroke-dasharray:none;stroke-opacity:1"
         d="m 616.45261,63.615 h 35.21286 v -1.6875 h 2.01856 V 26.052511 h -2.01856 v -1.6875 h -35.21286 v 1.6875 h -2.01858 V 61.9275 h 2.01858 z"
         id="path5657-1-4-9-9-7-0" /><path
         style="display:inline;fill:none;stroke:#ff0000;stroke-width:0.28346458;stroke-linecap:butt;stroke-linejoin:miter;stroke-miterlimit:4;stroke-dasharray:none;stroke-opacity:1"
         d="m 670.45261,63.615 h 35.21285 v -1.6875 h 2.01857 V 26.052511 h -2.01857 v -1.6875 h -35.21285 v 1.6875 h -2.01858 V 61.9275 h 2.01858 z"
         id="path5657-1-4-9-2-2-2-7" /><path
         style="display:inline;fill:none;stroke:#ff0000;stroke-width:0.28346458;stroke-linecap:butt;stroke-linejoin:miter;stroke-miterlimit:4;stroke-dasharray:none;stroke-opacity:1"
         d="m 562.3998,63.68751 h 35.21287 v -1.6875 h 2.01856 V 26.125021 h -2.01856 v -1.6875 H 562.3998 v 1.6875 h -2.01857 V 62.00001 h 2.01857 z"
         id="path5657-1-4-9-9-7-1-14" /><path
         style="display:inline;fill:none;stroke:#ff0000;stroke-width:0.28346458;stroke-linecap:butt;stroke-linejoin:miter;stroke-miterlimit:4;stroke-dasharray:none;stroke-opacity:1"
         d="m 562.3498,171.68752 h 35.21286 v -1.68749 h 2.01858 v -35.875 h -2.01858 v -1.6875 H 562.3498 v 1.6875 h -2.01856 v 35.875 h 2.01856 z"
         id="path5657-1-4-9-9-7-1-1-9" /><path
         style="display:inline;fill:none;stroke:#ff0000;stroke-width:0.28346458;stroke-linecap:butt;stroke-linejoin:miter;stroke-miterlimit:4;stroke-dasharray:none;stroke-opacity:1"
         d="m 454.43121,117.65981 h 35.21286 v -1.6875 h 2.01856 V 80.097308 h -2.01856 v -1.687501 h -35.21286 v 1.687501 h -2.01857 v 35.875002 h 2.01857 z"
         id="path5657-1-9-3-2" /><path
         style="display:inline;fill:none;stroke:#ff0000;stroke-width:0.28346458;stroke-linecap:butt;stroke-linejoin:miter;stroke-miterlimit:4;stroke-dasharray:none;stroke-opacity:1;image-rendering:auto"
         d="m 375.83835,80.150798 51.91166,154.224212 h 358.56254 l 0.0277,-167.964145 c 0,0 0.68676,-4.18543 -5.46765,-10.034753 -5.59189,-5.536905 -55.24377,-50.3966024 -55.24377,-50.3966024 0,0 -4.66003,-5.65778005 -17.37204,-5.49043005 -9.1495,-0.0202 -326.06549,-0.71822015 -326.06549,-0.71822015 0,0 -6.06194,0.16612 -6.18792,5.4385502 -0.12598,5.2724304 -0.16507,74.9413884 -0.16507,74.9413884 z"
         id="path4501-0" /><path
         style="display:inline;fill:none;stroke:#ff0000;stroke-width:0.28346458;stroke-linecap:butt;stroke-linejoin:miter;stroke-miterlimit:4;stroke-dasharray:none;stroke-opacity:1"
         d="m 400.4526,63.615 h 35.21285 v -1.6875 h 2.01857 V 26.052511 h -2.01857 v -1.6875 H 400.4526 v 1.6875 h -2.01857 V 61.9275 h 2.01857 z"
         id="path5657-6-7-6-6" /><circle
         style="display:inline;fill:none;stroke:#ff0000;stroke-width:0.28346458;stroke-miterlimit:4;stroke-dasharray:none;stroke-opacity:1"
         id="path1117-8"
         cx="777.88312"
         cy="-222.61777"
         r="2.8486927"
         transform="scale(1,-1)" /><circle
         style="display:inline;fill:none;stroke:#ff0000;stroke-width:0.28346458;stroke-miterlimit:4;stroke-dasharray:none;stroke-opacity:1"
         id="path1117-3-2"
         cx="777.82373"
         cy="-125.06179"
         r="2.8486927"
         transform="scale(1,-1)" /><circle
         style="display:inline;fill:none;stroke:#ff0000;stroke-width:0.28346458;stroke-miterlimit:4;stroke-dasharray:none;stroke-opacity:1"
         id="path1117-3-5-66"
         cx="714.94452"
         cy="-8.6250181"
         r="2.8486927"
         transform="scale(1,-1)" /><circle
         style="display:inline;fill:none;stroke:#ff0000;stroke-width:0.28346458;stroke-miterlimit:4;stroke-dasharray:none;stroke-opacity:1"
         id="path1117-3-5-6-4"
         cx="552.94446"
         cy="-8.7500029"
         r="2.8486927"
         transform="scale(1,-1)" /><circle
         style="display:inline;fill:none;stroke:#ff0000;stroke-width:0.28346458;stroke-miterlimit:4;stroke-dasharray:none;stroke-opacity:1"
         id="path1117-3-5-6-2-95"
         cx="385.62396"
         cy="-8.8433867"
         r="2.8486927"
         transform="scale(1,-1)" /><circle
         style="display:inline;fill:none;stroke:#ff0000;stroke-width:0.28346458;stroke-miterlimit:4;stroke-dasharray:none;stroke-opacity:1"
         id="path1117-3-5-6-2-9-0"
         cx="434.56946"
         cy="-222.375"
         r="2.8486927"
         transform="scale(1,-1)" /><circle
         style="display:inline;fill:none;stroke:#ff0000;stroke-width:0.28346458;stroke-miterlimit:4;stroke-dasharray:none;stroke-opacity:1"
         id="path1117-3-5-6-2-1-4"
         cx="400.56946"
         cy="-124.75001"
         r="2.8486927"
         transform="scale(1,-1)" /><path
         style="display:inline;fill:none;stroke:#ff0000;stroke-width:0.28346458;stroke-linecap:butt;stroke-linejoin:miter;stroke-miterlimit:4;stroke-dasharray:none;stroke-opacity:1"
         d="m 427.82904,235.1809 -0.0625,58.63022 c 0,0 -0.17675,5.32175 4.55595,5.32636 l 128.36561,0.12499 c 8.94093,0 10.5,-3.75001 30.25,-12.375 18.85284,0.47973 168.65849,5e-4 189.81271,0.007 5.89951,0 5.61025,-0.69197 5.61025,-5.69432 -3e-5,-14.27735 0.11952,-46.00018 0.11952,-46.00018 z"
         id="path1536-9" /><circle
         style="display:inline;fill:none;stroke:#ff0000;stroke-width:0.28346458;stroke-miterlimit:4;stroke-dasharray:none;stroke-opacity:1"
         id="path1117-3-5-6-2-9-9-12"
         cx="434.93811"
         cy="-239.19995"
         r="2.8486927"
         transform="scale(1,-1)" /><circle
         style="display:inline;fill:none;stroke:#ff0000;stroke-width:0.28346458;stroke-miterlimit:4;stroke-dasharray:none;stroke-opacity:1"
         id="path1117-3-5-6-2-9-9-1-70"
         cx="434.93811"
         cy="-291.76245"
         r="2.8486927"
         transform="scale(1,-1)" /><circle
         style="display:inline;fill:none;stroke:#ff0000;stroke-width:0.28346458;stroke-miterlimit:4;stroke-dasharray:none;stroke-opacity:1"
         id="path1117-3-5-6-2-9-9-1-7-9"
         cx="563.68811"
         cy="-291.76245"
         r="2.8486927"
         transform="scale(1,-1)" /><circle
         style="display:inline;opacity:1;vector-effect:none;fill:none;fill-opacity:1;stroke:#ff0000;stroke-width:0.28346458;stroke-linecap:butt;stroke-linejoin:miter;stroke-miterlimit:4;stroke-dasharray:none;stroke-dashoffset:0;stroke-opacity:1"
         id="path1117-3-5-6-2-9-9-1-7-1-3"
         cx="777.93811"
         cy="-281.63745"
         r="2.8486927"
         transform="scale(1,-1)" /><circle
         style="display:inline;opacity:1;vector-effect:none;fill:none;fill-opacity:1;stroke:#ff0000;stroke-width:0.28346458;stroke-linecap:butt;stroke-linejoin:miter;stroke-miterlimit:4;stroke-dasharray:none;stroke-dashoffset:0;stroke-opacity:1"
         id="path1117-3-5-6-2-9-9-1-7-1-9-6"
         cx="777.87561"
         cy="-239.13745"
         r="2.8486927"
         transform="scale(1,-1)" /></g><g
       id="g5896"><path
         style="fill:none;stroke:#ff0000;stroke-width:0.28346458;stroke-linecap:butt;stroke-linejoin:miter;stroke-miterlimit:4;stroke-dasharray:none;stroke-opacity:1"
         d="m 26.455352,225.68751 h 35.212857 v -1.6875 h 2.018572 v -35.875 h -2.018572 v -1.6875 H 26.455352 v 1.6875 H 24.43678 v 35.875 h 2.018572 z"
         id="path5657" /><path
         style="fill:none;stroke:#ff0000;stroke-width:0.28346458;stroke-linecap:butt;stroke-linejoin:miter;stroke-miterlimit:4;stroke-dasharray:none;stroke-opacity:1"
         d="m 80.455352,225.68751 h 35.212858 v -1.6875 h 2.01857 v -35.875 h -2.01857 v -1.6875 H 80.455352 v 1.6875 H 78.43678 v 35.875 h 2.018572 z"
         id="path5657-1" /><path
         style="fill:none;stroke:#ff0000;stroke-width:0.28346458;stroke-linecap:butt;stroke-linejoin:miter;stroke-miterlimit:4;stroke-dasharray:none;stroke-opacity:1"
         d="m 134.45535,225.68751 h 35.21286 v -1.6875 h 2.01857 v -35.875 h -2.01857 v -1.6875 h -35.21286 v 1.6875 h -2.01857 v 35.875 h 2.01857 z"
         id="path5657-1-4" /><path
         style="fill:none;stroke:#ff0000;stroke-width:0.28346458;stroke-linecap:butt;stroke-linejoin:miter;stroke-miterlimit:4;stroke-dasharray:none;stroke-opacity:1"
         d="m 188.45536,225.68751 h 35.21286 v -1.6875 h 2.01857 v -35.875 h -2.01857 v -1.6875 h -35.21286 v 1.6875 h -2.01857 v 35.875 h 2.01857 z"
         id="path5657-1-4-9" /><path
         style="fill:none;stroke:#ff0000;stroke-width:0.28346458;stroke-linecap:butt;stroke-linejoin:miter;stroke-miterlimit:4;stroke-dasharray:none;stroke-opacity:1"
         d="m 242.45536,225.68751 h 35.21286 v -1.6875 h 2.01857 v -35.875 h -2.01857 v -1.6875 h -35.21286 v 1.6875 h -2.01857 v 35.875 h 2.01857 z"
         id="path5657-1-4-9-2" /><path
         style="fill:none;stroke:#ff0000;stroke-width:0.28346458;stroke-linecap:butt;stroke-linejoin:miter;stroke-miterlimit:4;stroke-dasharray:none;stroke-opacity:1"
         d="m 296.45536,225.68751 h 35.21286 v -1.6875 h 2.01857 v -35.875 h -2.01857 v -1.6875 h -35.21286 v 1.6875 h -2.01857 v 35.875 h 2.01857 z"
         id="path5657-1-4-9-2-0" /><path
         style="fill:none;stroke:#ff0000;stroke-width:0.28346458;stroke-linecap:butt;stroke-linejoin:miter;stroke-miterlimit:4;stroke-dasharray:none;stroke-opacity:1"
         d="m 26.476743,171.6427 h 35.21285 v -1.6875 h 2.01857 v -35.875 h -2.01857 v -1.6875 h -35.21285 v 1.6875 h -2.01857 v 35.875 h 2.01857 z"
         id="path5657-6" /><path
         style="fill:none;stroke:#ff0000;stroke-width:0.28346458;stroke-linecap:butt;stroke-linejoin:miter;stroke-miterlimit:4;stroke-dasharray:none;stroke-opacity:1"
         d="M 80.476738,171.6427 H 115.6896 v -1.6875 h 2.01857 v -35.875 h -2.01857 v -1.6875 H 80.476738 v 1.6875 h -2.018572 v 35.875 h 2.018572 z"
         id="path5657-1-8" /><path
         style="fill:none;stroke:#ff0000;stroke-width:0.28346458;stroke-linecap:butt;stroke-linejoin:miter;stroke-miterlimit:4;stroke-dasharray:none;stroke-opacity:1"
         d="m 188.47675,171.6427 h 35.21286 v -1.6875 h 2.01857 v -35.875 h -2.01857 v -1.6875 h -35.21286 v 1.6875 h -2.01857 v 35.875 h 2.01857 z"
         id="path5657-1-4-9-9" /><path
         style="fill:none;stroke:#ff0000;stroke-width:0.28346458;stroke-linecap:butt;stroke-linejoin:miter;stroke-miterlimit:4;stroke-dasharray:none;stroke-opacity:1"
         d="m 242.47675,171.6427 h 35.21286 v -1.6875 h 2.01857 v -35.875 h -2.01857 v -1.6875 h -35.21286 v 1.6875 h -2.01857 v 35.875 h 2.01857 z"
         id="path5657-1-4-9-2-2" /><path
         style="fill:none;stroke:#ff0000;stroke-width:0.28346458;stroke-linecap:butt;stroke-linejoin:miter;stroke-miterlimit:4;stroke-dasharray:none;stroke-opacity:1"
         d="m 296.47675,171.6427 h 35.21286 v -1.6875 h 2.01857 v -35.875 h -2.01857 v -1.6875 h -35.21286 v 1.6875 h -2.01857 v 35.875 h 2.01857 z"
         id="path5657-1-4-9-2-0-6" /><path
         style="fill:none;stroke:#ff0000;stroke-width:0.28346458;stroke-linecap:butt;stroke-linejoin:miter;stroke-miterlimit:4;stroke-dasharray:none;stroke-opacity:1"
         d="m 80.486749,117.6598 h 35.212861 v -1.6875 h 2.01857 v -35.875 h -2.01857 V 78.4098 H 80.486749 v 1.6875 h -2.01857 v 35.875 h 2.01857 z"
         id="path5657-1-9" /><path
         style="fill:none;stroke:#ff0000;stroke-width:0.28346458;stroke-linecap:butt;stroke-linejoin:miter;stroke-miterlimit:4;stroke-dasharray:none;stroke-opacity:1"
         d="m 134.48675,117.6598 h 35.21286 v -1.6875 h 2.01857 v -35.875 h -2.01857 v -1.6875 h -35.21286 v 1.6875 h -2.01857 v 35.875 h 2.01857 z"
         id="path5657-1-4-5" /><path
         style="fill:none;stroke:#ff0000;stroke-width:0.28346458;stroke-linecap:butt;stroke-linejoin:miter;stroke-miterlimit:4;stroke-dasharray:none;stroke-opacity:1"
         d="m 188.48676,117.6598 h 35.21286 v -1.6875 h 2.01857 v -35.875 h -2.01857 v -1.6875 h -35.21286 v 1.6875 h -2.01857 v 35.875 h 2.01857 z"
         id="path5657-1-4-9-0" /><path
         style="fill:none;stroke:#ff0000;stroke-width:0.28346458;stroke-linecap:butt;stroke-linejoin:miter;stroke-miterlimit:4;stroke-dasharray:none;stroke-opacity:1"
         d="m 242.48676,117.6598 h 35.21286 v -1.6875 h 2.01857 v -35.875 h -2.01857 v -1.6875 h -35.21286 v 1.6875 h -2.01857 v 35.875 h 2.01857 z"
         id="path5657-1-4-9-2-4" /><path
         style="fill:none;stroke:#ff0000;stroke-width:0.28346458;stroke-linecap:butt;stroke-linejoin:miter;stroke-miterlimit:4;stroke-dasharray:none;stroke-opacity:1"
         d="m 296.48676,117.6598 h 35.21286 v -1.6875 h 2.01857 v -35.875 h -2.01857 v -1.6875 h -35.21286 v 1.6875 h -2.01857 v 35.875 h 2.01857 z"
         id="path5657-1-4-9-2-0-8" /><path
         style="fill:none;stroke:#ff0000;stroke-width:0.28346458;stroke-linecap:butt;stroke-linejoin:miter;stroke-miterlimit:4;stroke-dasharray:none;stroke-opacity:1"
         d="m 26.508139,63.61499 h 35.21285 v -1.6875 h 2.01857 V 26.0525 h -2.01857 V 24.365 h -35.21285 v 1.6875 h -2.01857 v 35.87499 h 2.01857 z"
         id="path5657-6-7" /><path
         style="fill:none;stroke:#ff0000;stroke-width:0.28346458;stroke-linecap:butt;stroke-linejoin:miter;stroke-miterlimit:4;stroke-dasharray:none;stroke-opacity:1"
         d="M 80.508139,63.61499 H 115.721 v -1.6875 h 2.01857 V 26.0525 H 115.721 V 24.365 H 80.508139 v 1.6875 h -2.01857 v 35.87499 h 2.01857 z"
         id="path5657-1-8-1" /><path
         style="fill:none;stroke:#ff0000;stroke-width:0.28346458;stroke-linecap:butt;stroke-linejoin:miter;stroke-miterlimit:4;stroke-dasharray:none;stroke-opacity:1"
         d="m 188.50815,63.61499 h 35.21286 v -1.6875 h 2.01857 V 26.0525 h -2.01857 V 24.365 h -35.21286 v 1.6875 h -2.01857 v 35.87499 h 2.01857 z"
         id="path5657-1-4-9-9-7" /><path
         style="fill:none;stroke:#ff0000;stroke-width:0.28346458;stroke-linecap:butt;stroke-linejoin:miter;stroke-miterlimit:4;stroke-dasharray:none;stroke-opacity:1"
         d="m 242.50815,63.61499 h 35.21286 v -1.6875 h 2.01857 V 26.0525 h -2.01857 V 24.365 h -35.21286 v 1.6875 h -2.01857 v 35.87499 h 2.01857 z"
         id="path5657-1-4-9-2-2-2" /><path
         style="fill:none;stroke:#ff0000;stroke-width:0.28346458;stroke-linecap:butt;stroke-linejoin:miter;stroke-miterlimit:4;stroke-dasharray:none;stroke-opacity:1"
         d="m 26.433959,279.73232 h 35.21286 v -1.6875 h 2.01857 v -35.875 h -2.01857 v -1.6875 h -35.21286 v 1.6875 h -2.01857 v 35.875 h 2.01857 z"
         id="path5657-10" /><path
         style="fill:none;stroke:#ff0000;stroke-width:0.28346458;stroke-linecap:butt;stroke-linejoin:miter;stroke-miterlimit:4;stroke-dasharray:none;stroke-opacity:1"
         d="m 80.433959,279.73232 h 35.212861 v -1.6875 h 2.01857 v -35.875 h -2.01857 v -1.6875 H 80.433959 v 1.6875 h -2.01857 v 35.875 h 2.01857 z"
         id="path5657-1-6" /><path
         style="fill:none;stroke:#ff0000;stroke-width:0.28346458;stroke-linecap:butt;stroke-linejoin:miter;stroke-miterlimit:4;stroke-dasharray:none;stroke-opacity:1"
         d="m 134.43396,279.73232 h 35.21286 v -1.6875 h 2.01857 v -35.875 h -2.01857 v -1.6875 h -35.21286 v 1.6875 h -2.01857 v 35.875 h 2.01857 z"
         id="path5657-1-4-1" /><path
         style="fill:none;stroke:#ff0000;stroke-width:0.28346458;stroke-linecap:butt;stroke-linejoin:miter;stroke-miterlimit:4;stroke-dasharray:none;stroke-opacity:1"
         d="m 188.43397,279.73232 h 35.21286 v -1.6875 h 2.01857 v -35.875 h -2.01857 v -1.6875 h -35.21286 v 1.6875 h -2.01857 v 35.875 h 2.01857 z"
         id="path5657-1-4-9-5" /><path
         style="fill:none;stroke:#ff0000;stroke-width:0.28346458;stroke-linecap:butt;stroke-linejoin:miter;stroke-miterlimit:4;stroke-dasharray:none;stroke-opacity:1"
         d="m 242.43397,279.73232 h 35.21286 v -1.6875 h 2.01857 v -35.875 h -2.01857 v -1.6875 h -35.21286 v 1.6875 h -2.01857 v 35.875 h 2.01857 z"
         id="path5657-1-4-9-2-9" /><path
         style="fill:none;stroke:#ff0000;stroke-width:0.28346458;stroke-linecap:butt;stroke-linejoin:miter;stroke-miterlimit:4;stroke-dasharray:none;stroke-opacity:1"
         d="m 134.45535,63.687506 h 35.21286 v -1.6875 h 2.01857 V 26.125017 h -2.01857 v -1.6875 h -35.21286 v 1.6875 h -2.01857 v 35.874989 h 2.01857 z"
         id="path5657-1-4-9-9-7-1" /><path
         style="fill:none;stroke:#ff0000;stroke-width:0.28346458;stroke-linecap:butt;stroke-linejoin:miter;stroke-miterlimit:4;stroke-dasharray:none;stroke-opacity:1"
         d="m 134.40535,171.68751 h 35.21286 v -1.6875 h 2.01857 v -35.87499 h -2.01857 v -1.6875 h -35.21286 v 1.6875 h -2.01857 v 35.87499 h 2.01857 z"
         id="path5657-1-4-9-9-7-1-1" /><path
         style="fill:none;stroke:#ff0000;stroke-width:0.28346458;stroke-linecap:butt;stroke-linejoin:miter;stroke-miterlimit:4;stroke-dasharray:none;stroke-opacity:1;image-rendering:auto"
         d="M -52.106108,80.150795 -0.48406359,288.41844 H 358.22995 l -0.0841,-224.730934 c 0,0 0.71463,-1.899576 -5.21764,-7.311403 -5.5919,-5.5369 -55.24377,-50.3965907 -55.24377,-50.3965907 0,0 -4.47255,-5.46202797 -17.37204,-5.49044127 L -45.753112,-0.22914314 c 0,0 -6.061941,0.16611667 -6.187924,5.43854644 -0.125984,5.2724287 -0.165072,74.9413917 -0.165072,74.9413917 z"
         id="path4501" /><path
         style="display:inline;fill:none;stroke:#ff0000;stroke-width:0.28346458;stroke-linecap:butt;stroke-linejoin:miter;stroke-miterlimit:4;stroke-dasharray:none;stroke-opacity:1"
         d="M -27.491861,63.61499 H 7.7209892 v -1.6875 h 2.01857 V 26.0525 h -2.01857 V 24.365 H -27.491861 v 1.6875 h -2.01857 v 35.87499 h 2.01857 z"
         id="path5657-6-7-6" /><circle
         style="fill:none;stroke:#ff0000;stroke-width:0.28346458;stroke-miterlimit:4;stroke-dasharray:none;stroke-opacity:1"
         id="path1117"
         cx="349.56363"
         cy="-276.93027"
         transform="scale(1,-1)"
         r="2.8486927" /><circle
         style="display:inline;fill:none;stroke:#ff0000;stroke-width:0.28346458;stroke-miterlimit:4;stroke-dasharray:none;stroke-opacity:1"
         id="path1117-3"
         cx="349.56674"
         cy="-125.06179"
         r="2.8486927"
         transform="scale(1,-1)" /><circle
         style="display:inline;fill:none;stroke:#ff0000;stroke-width:0.28346458;stroke-miterlimit:4;stroke-dasharray:none;stroke-opacity:1"
         id="path1117-3-5"
         cx="287"
         cy="-8.6250057"
         transform="scale(1,-1)"
         r="2.8486927" /><circle
         style="display:inline;fill:none;stroke:#ff0000;stroke-width:0.28346458;stroke-miterlimit:4;stroke-dasharray:none;stroke-opacity:1"
         id="path1117-3-5-6"
         cx="125"
         cy="-8.7500048"
         r="2.8486927"
         transform="scale(1,-1)" /><circle
         style="display:inline;fill:none;stroke:#ff0000;stroke-width:0.28346458;stroke-miterlimit:4;stroke-dasharray:none;stroke-opacity:1"
         id="path1117-3-5-6-2"
         cx="-42.320511"
         cy="-8.8433828"
         r="2.8486927"
         transform="scale(1,-1)" /><circle
         style="display:inline;fill:none;stroke:#ff0000;stroke-width:0.28346458;stroke-miterlimit:4;stroke-dasharray:none;stroke-opacity:1"
         id="path1117-3-5-6-2-9"
         cx="6.625"
         cy="-276.75"
         r="2.8486927"
         transform="scale(1,-1)" /><path
         style="fill:none;stroke:#ff0000;stroke-width:0.28346458;stroke-linecap:butt;stroke-linejoin:miter;stroke-miterlimit:4;stroke-dasharray:none;stroke-opacity:1"
         d="m -0.48406359,289.16844 -0.0625,59.31772 c 0,0 -0.20343643,4.63435 4.43095129,4.63886 L 132.375,353.25001 c 8.94092,0 10.5,-3.75001 30.25,-12.375 18.85284,0.47973 168.65849,5e-4 189.8127,0.007 5.89952,0 5.61026,-0.69197 5.61026,-5.69432 -4e-5,-14.27735 0.11952,-46.00018 0.11952,-46.00018 z"
         id="path1536" /><circle
         style="display:inline;fill:none;stroke:#ff0000;stroke-width:0.28346458;stroke-miterlimit:4;stroke-dasharray:none;stroke-opacity:1"
         id="path1117-3-5-6-2-9-9"
         cx="6.625"
         cy="-293.1875"
         r="2.8486927"
         transform="scale(1,-1)" /><circle
         style="display:inline;fill:none;stroke:#ff0000;stroke-width:0.28346458;stroke-miterlimit:4;stroke-dasharray:none;stroke-opacity:1"
         id="path1117-3-5-6-2-9-9-1"
         cx="6.6249995"
         cy="-345.75"
         r="2.8486927"
         transform="scale(1,-1)" /><circle
         style="display:inline;fill:none;stroke:#ff0000;stroke-width:0.28346458;stroke-miterlimit:4;stroke-dasharray:none;stroke-opacity:1"
         id="path1117-3-5-6-2-9-9-1-7"
         cx="135.375"
         cy="-345.75"
         r="2.8486927"
         transform="scale(1,-1)" /><circle
         style="display:inline;opacity:1;vector-effect:none;fill:none;fill-opacity:1;stroke:#ff0000;stroke-width:0.28346458;stroke-linecap:butt;stroke-linejoin:miter;stroke-miterlimit:4;stroke-dasharray:none;stroke-dashoffset:0;stroke-opacity:1"
         id="path1117-3-5-6-2-9-9-1-7-1"
         cx="349.625"
         cy="-335.625"
         transform="scale(1,-1)"
         r="2.8486927" /><circle
         style="display:inline;opacity:1;vector-effect:none;fill:none;fill-opacity:1;stroke:#ff0000;stroke-width:0.28346458;stroke-linecap:butt;stroke-linejoin:miter;stroke-miterlimit:4;stroke-dasharray:none;stroke-dashoffset:0;stroke-opacity:1"
         id="path1117-3-5-6-2-9-9-1-7-1-9"
         cx="349.5625"
         cy="-293.125"
         r="2.8486927"
         transform="scale(1,-1)" /><path
         style="display:inline;fill:none;stroke:#ff0000;stroke-width:0.28346458;stroke-linecap:butt;stroke-linejoin:miter;stroke-miterlimit:4;stroke-dasharray:none;stroke-opacity:1"
         d="m 26.393582,117.6875 h 35.21285 V 116 h 2.01857 V 80.125008 h -2.01857 v -1.6875 h -35.21285 v 1.6875 h -2.01857 V 116 h 2.01857 z"
         id="path5657-6-8" /><path
         style="display:inline;fill:none;stroke:#ff0000;stroke-width:0.28346458;stroke-linecap:butt;stroke-linejoin:miter;stroke-miterlimit:4;stroke-dasharray:none;stroke-opacity:1"
         d="m 296.89358,279.68751 h 35.21286 v -1.6875 h 2.01857 v -35.875 h -2.01857 v -1.6875 h -35.21286 v 1.6875 h -2.01857 v 35.875 h 2.01857 z"
         id="path5657-1-4-9-2-9-4" /><circle
         style="display:inline;fill:none;stroke:#ff0000;stroke-width:0.28346458;stroke-miterlimit:4;stroke-dasharray:none;stroke-opacity:1"
         id="path1117-3-8"
         cx="-31.35001"
         cy="-124.50001"
         r="2.8486927"
         transform="scale(1,-1)" /></g><g
       transform="translate(0,-65.250002)"
       id="g5951"><circle
         style="display:inline;fill:none;stroke:#ff0000;stroke-width:0.28346458;stroke-miterlimit:4;stroke-dasharray:none;stroke-opacity:1"
         id="path1117-8-5"
         cx="777.82135"
         cy="-587.60736"
         r="2.8486927"
         transform="scale(1,-1)" /><circle
         style="display:inline;fill:none;stroke:#ff0000;stroke-width:0.28346458;stroke-miterlimit:4;stroke-dasharray:none;stroke-opacity:1"
         id="path1117-3-2-2"
         cx="777.76196"
         cy="-490.05136"
         r="2.8486927"
         transform="scale(1,-1)" /><circle
         style="display:inline;fill:none;stroke:#ff0000;stroke-width:0.28346458;stroke-miterlimit:4;stroke-dasharray:none;stroke-opacity:1"
         id="path1117-3-5-66-9"
         cx="714.88281"
         cy="-373.61459"
         r="2.8486927"
         transform="scale(1,-1)" /><circle
         style="display:inline;fill:none;stroke:#ff0000;stroke-width:0.28346458;stroke-miterlimit:4;stroke-dasharray:none;stroke-opacity:1"
         id="path1117-3-5-6-4-0"
         cx="552.88263"
         cy="-373.73959"
         r="2.8486927"
         transform="scale(1,-1)" /><circle
         style="display:inline;fill:none;stroke:#ff0000;stroke-width:0.28346458;stroke-miterlimit:4;stroke-dasharray:none;stroke-opacity:1"
         id="path1117-3-5-6-2-95-2"
         cx="385.56216"
         cy="-373.83298"
         r="2.8486927"
         transform="scale(1,-1)" /><circle
         style="display:inline;fill:none;stroke:#ff0000;stroke-width:0.28346458;stroke-miterlimit:4;stroke-dasharray:none;stroke-opacity:1"
         id="path1117-3-5-6-2-9-0-8"
         cx="434.50766"
         cy="-587.36456"
         r="2.8486927"
         transform="scale(1,-1)" /><circle
         style="display:inline;fill:none;stroke:#ff0000;stroke-width:0.28346458;stroke-miterlimit:4;stroke-dasharray:none;stroke-opacity:1"
         id="path1117-3-5-6-2-1-4-3"
         cx="400.50769"
         cy="-489.73959"
         r="2.8486927"
         transform="scale(1,-1)" /><path
         style="display:inline;fill:none;stroke:#ff0000;stroke-width:0.28346458;stroke-linecap:butt;stroke-linejoin:miter;stroke-miterlimit:4;stroke-dasharray:none;stroke-opacity:1"
         d="m 427.70476,658.80071 c 0,0 -0.17675,5.32175 4.55595,5.32636 l 128.36561,0.12499 c 8.94093,0 10.5,-3.75001 30.25001,-12.375 18.85283,0.47973 168.65844,5e-4 189.81272,0.007 5.8995,0 5.61022,-0.69197 5.61022,-5.69432 0.0669,-71.59641 0.003,-143.19286 -0.0207,-214.78928 0,0 0.68677,-4.18543 -5.46765,-10.03476 -5.59185,-5.5369 -55.24373,-50.3966 -55.24373,-50.3966 0,0 -4.66005,-5.65779 -17.37203,-5.49044 -9.14955,-0.0202 -326.06551,-0.71822 -326.06551,-0.71822 0,0 -6.06194,0.16612 -6.18792,5.43856 -0.12599,5.27243 -0.16508,74.94139 -0.16508,74.94139 h -8e-5 c 0,0 52.13868,154.10962 51.88867,154.35963 z"
         id="path1536-9-5" /><circle
         style="display:inline;fill:none;stroke:#ff0000;stroke-width:0.28346458;stroke-miterlimit:4;stroke-dasharray:none;stroke-opacity:1"
         id="path1117-3-5-6-2-9-9-12-4"
         cx="434.87631"
         cy="-604.18958"
         r="2.8486927"
         transform="scale(1,-1)" /><circle
         style="display:inline;fill:none;stroke:#ff0000;stroke-width:0.28346458;stroke-miterlimit:4;stroke-dasharray:none;stroke-opacity:1"
         id="path1117-3-5-6-2-9-9-1-70-4"
         cx="434.87631"
         cy="-656.75208"
         r="2.8486927"
         transform="scale(1,-1)" /><circle
         style="display:inline;fill:none;stroke:#ff0000;stroke-width:0.28346458;stroke-miterlimit:4;stroke-dasharray:none;stroke-opacity:1"
         id="path1117-3-5-6-2-9-9-1-7-9-9"
         cx="563.62634"
         cy="-656.75208"
         r="2.8486927"
         transform="scale(1,-1)" /><circle
         style="display:inline;opacity:1;vector-effect:none;fill:none;fill-opacity:1;stroke:#ff0000;stroke-width:0.28346458;stroke-linecap:butt;stroke-linejoin:miter;stroke-miterlimit:4;stroke-dasharray:none;stroke-dashoffset:0;stroke-opacity:1"
         id="path1117-3-5-6-2-9-9-1-7-1-3-9"
         cx="777.87628"
         cy="-646.62708"
         r="2.8486927"
         transform="scale(1,-1)" /><circle
         style="display:inline;opacity:1;vector-effect:none;fill:none;fill-opacity:1;stroke:#ff0000;stroke-width:0.28346458;stroke-linecap:butt;stroke-linejoin:miter;stroke-miterlimit:4;stroke-dasharray:none;stroke-dashoffset:0;stroke-opacity:1"
         id="path1117-3-5-6-2-9-9-1-7-1-9-6-3"
         cx="777.81384"
         cy="-604.12708"
         r="2.8486927"
         transform="scale(1,-1)" /></g><g
       transform="translate(0,-11.25)"
       id="g5850"><path
         style="display:inline;fill:none;stroke:#ff0000;stroke-width:0.28346458;stroke-linecap:butt;stroke-linejoin:miter;stroke-miterlimit:4;stroke-dasharray:none;stroke-opacity:1;image-rendering:auto"
         d="m 358.08407,428.67709 c 0,0 0.71463,-1.89957 -5.21764,-7.31139 -5.5919,-5.53691 -55.24377,-50.3966 -55.24377,-50.3966 0,0 -4.47255,-5.46203 -17.37204,-5.49044 l -326.065511,-0.71822 c 0,0 -6.06194,0.16612 -6.18792,5.43855 -0.12599,5.27243 -0.16507,74.9414 -0.16507,74.9414 l 51.55954015,208.29713 v 60.03823 c 0,0 -0.20344,4.63435 4.43095005,4.63886 L 132.31322,718.2396 c 8.94092,0 10.5,-3.75001 30.25,-12.375 18.85284,0.47973 168.65849,5e-4 189.8127,0.007 5.89952,0 5.61026,-0.69197 5.61026,-5.69432 0.235,-90.49976 0.10659,-181.00015 0.0979,-271.50019 z"
         id="path4501-02" /><circle
         style="display:inline;fill:none;stroke:#ff0000;stroke-width:0.28346458;stroke-miterlimit:4;stroke-dasharray:none;stroke-opacity:1"
         id="path1117-6"
         cx="349.50183"
         cy="-641.91986"
         r="2.8486927"
         transform="scale(1,-1)" /><circle
         style="display:inline;fill:none;stroke:#ff0000;stroke-width:0.28346458;stroke-miterlimit:4;stroke-dasharray:none;stroke-opacity:1"
         id="path1117-3-1"
         cx="349.50494"
         cy="-490.05136"
         r="2.8486927"
         transform="scale(1,-1)" /><circle
         style="display:inline;fill:none;stroke:#ff0000;stroke-width:0.28346458;stroke-miterlimit:4;stroke-dasharray:none;stroke-opacity:1"
         id="path1117-3-5-3"
         cx="286.9382"
         cy="-373.61459"
         r="2.8486927"
         transform="scale(1,-1)" /><circle
         style="display:inline;fill:none;stroke:#ff0000;stroke-width:0.28346458;stroke-miterlimit:4;stroke-dasharray:none;stroke-opacity:1"
         id="path1117-3-5-6-21"
         cx="124.93823"
         cy="-373.73959"
         r="2.8486927"
         transform="scale(1,-1)" /><circle
         style="display:inline;fill:none;stroke:#ff0000;stroke-width:0.28346458;stroke-miterlimit:4;stroke-dasharray:none;stroke-opacity:1"
         id="path1117-3-5-6-2-5"
         cx="-42.382298"
         cy="-373.83298"
         r="2.8486927"
         transform="scale(1,-1)" /><circle
         style="display:inline;fill:none;stroke:#ff0000;stroke-width:0.28346458;stroke-miterlimit:4;stroke-dasharray:none;stroke-opacity:1"
         id="path1117-3-5-6-2-9-99"
         cx="6.5632296"
         cy="-641.73962"
         r="2.8486927"
         transform="scale(1,-1)" /><circle
         style="display:inline;fill:none;stroke:#ff0000;stroke-width:0.28346458;stroke-miterlimit:4;stroke-dasharray:none;stroke-opacity:1"
         id="path1117-3-5-6-2-9-9-0"
         cx="6.5632296"
         cy="-658.17712"
         r="2.8486927"
         transform="scale(1,-1)" /><circle
         style="display:inline;fill:none;stroke:#ff0000;stroke-width:0.28346458;stroke-miterlimit:4;stroke-dasharray:none;stroke-opacity:1"
         id="path1117-3-5-6-2-9-9-1-4"
         cx="6.5632296"
         cy="-710.73962"
         r="2.8486927"
         transform="scale(1,-1)" /><circle
         style="display:inline;fill:none;stroke:#ff0000;stroke-width:0.28346458;stroke-miterlimit:4;stroke-dasharray:none;stroke-opacity:1"
         id="path1117-3-5-6-2-9-9-1-7-0"
         cx="135.31323"
         cy="-710.73962"
         r="2.8486927"
         transform="scale(1,-1)" /><circle
         style="display:inline;opacity:1;vector-effect:none;fill:none;fill-opacity:1;stroke:#ff0000;stroke-width:0.28346458;stroke-linecap:butt;stroke-linejoin:miter;stroke-miterlimit:4;stroke-dasharray:none;stroke-dashoffset:0;stroke-opacity:1"
         id="path1117-3-5-6-2-9-9-1-7-1-91"
         cx="349.5632"
         cy="-700.61462"
         r="2.8486927"
         transform="scale(1,-1)" /><circle
         style="display:inline;opacity:1;vector-effect:none;fill:none;fill-opacity:1;stroke:#ff0000;stroke-width:0.28346458;stroke-linecap:butt;stroke-linejoin:miter;stroke-miterlimit:4;stroke-dasharray:none;stroke-dashoffset:0;stroke-opacity:1"
         id="path1117-3-5-6-2-9-9-1-7-1-9-9"
         cx="349.50073"
         cy="-658.11462"
         r="2.8486927"
         transform="scale(1,-1)" /><circle
         style="display:inline;fill:none;stroke:#ff0000;stroke-width:0.28346458;stroke-miterlimit:4;stroke-dasharray:none;stroke-opacity:1"
         id="path1117-3-8-6"
         cx="-31.411776"
         cy="-489.48959"
         r="2.8486927"
         transform="scale(1,-1)" /></g></g></svg>