<?xml version="1.0" encoding="UTF-8" standalone="no"?>
<!-- Created with Inkscape (http://www.inkscape.org/) -->

<svg
   xmlns:dc="http://purl.org/dc/elements/1.1/"
   xmlns:cc="http://creativecommons.org/ns#"
   xmlns:rdf="http://www.w3.org/1999/02/22-rdf-syntax-ns#"
   xmlns:svg="http://www.w3.org/2000/svg"
   xmlns="http://www.w3.org/2000/svg"
   xmlns:sodipodi="http://sodipodi.sourceforge.net/DTD/sodipodi-0.dtd"
   xmlns:inkscape="http://www.inkscape.org/namespaces/inkscape"
   version="1.1"
   id="svg5443"
   xml:space="preserve"
   width="477.39999"
   height="333.39999"
   viewBox="0 0 477.39999 333.39999"
   sodipodi:docname="switch-layerl3.ai.svg"
   inkscape:version="0.92.1 r15371"><metadata
     id="metadata5449"><rdf:RDF><cc:Work
         rdf:about=""><dc:format>image/svg+xml</dc:format><dc:type
           rdf:resource="http://purl.org/dc/dcmitype/StillImage" /><dc:title></dc:title></cc:Work></rdf:RDF></metadata><defs
     id="defs5447"><clipPath
       clipPathUnits="userSpaceOnUse"
       id="clipPath5459"><path
         d="M 0,250.05 H 358.05 V 0 H 0 Z"
         id="path5457"
         inkscape:connector-curvature="0" /></clipPath><clipPath
       clipPathUnits="userSpaceOnUse"
       id="clipPath5603"><path
         d="M 0,250.05 H 358.05 V 0 H 0 Z"
         id="path5601"
         inkscape:connector-curvature="0" /></clipPath></defs><sodipodi:namedview
     pagecolor="#ffffff"
     bordercolor="#666666"
     borderopacity="1"
     objecttolerance="10"
     gridtolerance="10"
     guidetolerance="1"
     inkscape:pageopacity="0"
     inkscape:pageshadow="2"
     inkscape:window-width="1920"
     inkscape:window-height="1151"
     id="namedview5445"
     showgrid="false"
     showguides="false"
     inkscape:guide-bbox="true"
     inkscape:zoom="4"
     inkscape:cx="943.16295"
     inkscape:cy="854.27778"
     inkscape:window-x="0"
     inkscape:window-y="25"
     inkscape:window-maximized="1"
     inkscape:current-layer="g5451"
     inkscape:measure-start="197.167,471"
     inkscape:measure-end="216.167,471"><sodipodi:guide
       position="32.5,159.83333"
       orientation="1,0"
       id="guide5613"
       inkscape:locked="false" /><sodipodi:guide
       position="84.833333,162.33333"
       orientation="1,0"
       id="guide5615"
       inkscape:locked="false" /><sodipodi:guide
       position="64.999999,300.91666"
       orientation="0,1"
       id="guide5617"
       inkscape:locked="false" /><sodipodi:guide
       position="104.58333,312.16666"
       orientation="1,0"
       id="guide5619"
       inkscape:locked="false" /><sodipodi:guide
       position="156.83333,311.5"
       orientation="1,0"
       id="guide5621"
       inkscape:locked="false" /><sodipodi:guide
       position="176.5,309.5"
       orientation="1,0"
       id="guide5623"
       inkscape:locked="false" /><sodipodi:guide
       position="97.666666,248.58333"
       orientation="0,1"
       id="guide5627"
       inkscape:locked="false" /><sodipodi:guide
       position="228.83333,265.08333"
       orientation="1,0"
       id="guide5631"
       inkscape:locked="false" /><sodipodi:guide
       position="248.5,265.83333"
       orientation="1,0"
       id="guide5633"
       inkscape:locked="false" /><sodipodi:guide
       position="300.83333,256.75"
       orientation="1,0"
       id="guide5635"
       inkscape:locked="false" /><sodipodi:guide
       position="320.5,259"
       orientation="1,0"
       id="guide5637"
       inkscape:locked="false" /><sodipodi:guide
       position="372.83333,262.91666"
       orientation="1,0"
       id="guide5639"
       inkscape:locked="false" /><sodipodi:guide
       position="392.5,267.58333"
       orientation="1,0"
       id="guide5641"
       inkscape:locked="false" /><sodipodi:guide
       position="444.83333,261.91666"
       orientation="1,0"
       id="guide5643"
       inkscape:locked="false" /><sodipodi:guide
       position="439.33333,228.91666"
       orientation="0,1"
       id="guide5645"
       inkscape:locked="false" /><sodipodi:guide
       position="433.41666,176.58333"
       orientation="0,1"
       id="guide5647"
       inkscape:locked="false" /><sodipodi:guide
       position="438.25,156.91666"
       orientation="0,1"
       id="guide5649"
       inkscape:locked="false" /><sodipodi:guide
       position="439.25,104.58333"
       orientation="0,1"
       id="guide5651"
       inkscape:locked="false" /><sodipodi:guide
       position="437,84.916666"
       orientation="0,1"
       id="guide5653"
       inkscape:locked="false" /><sodipodi:guide
       position="440.83333,32.583333"
       orientation="0,1"
       id="guide5655"
       inkscape:locked="false" /><sodipodi:guide
       position="-70.749999,320.58333"
       orientation="0,1"
       id="guide6387"
       inkscape:locked="false" /><sodipodi:guide
       position="477.39726,338.66749"
       orientation="1,0"
       id="guide1064"
       inkscape:locked="false" /><sodipodi:guide
       position="499.80237,0.19762846"
       orientation="0,1"
       id="guide1066"
       inkscape:locked="false" /><sodipodi:guide
       position="-39.429612,82.569978"
       orientation="1,0"
       id="guide1105"
       inkscape:locked="false" /><sodipodi:guide
       position="12.84585,74.505928"
       orientation="1,0"
       id="guide1107"
       inkscape:locked="false" /><sodipodi:guide
       position="459.15317,372.97634"
       orientation="0,1"
       id="guide1109"
       inkscape:locked="false" /><sodipodi:guide
       position="461.58156,175.03113"
       orientation="1,0"
       id="guide1119"
       inkscape:locked="false" /><sodipodi:guide
       position="470.54794,179.14072"
       orientation="1,0"
       id="guide1121"
       inkscape:locked="false" /><sodipodi:guide
       position="465.62889,384.5579"
       orientation="0,1"
       id="guide1123"
       inkscape:locked="false" /><sodipodi:guide
       position="488.33333,16"
       orientation="0,1"
       id="guide1170"
       inkscape:locked="false" /><sodipodi:guide
       position="428.66666,7.6666666"
       orientation="0,1"
       id="guide1174"
       inkscape:locked="false" /><sodipodi:guide
       position="570.33333,363.5"
       orientation="1,0"
       id="guide1467"
       inkscape:locked="false" /><sodipodi:guide
       position="518.16666,312.5"
       orientation="0,1"
       id="guide1469"
       inkscape:locked="false" /><sodipodi:guide
       position="-46.666666,470.99999"
       orientation="0,1"
       id="guide1540"
       inkscape:locked="false" /><sodipodi:guide
       position="197.16667,477.66666"
       orientation="1,0"
       id="guide1542"
       inkscape:locked="false" /><sodipodi:guide
       position="489,454.49999"
       orientation="0,1"
       id="guide1544"
       inkscape:locked="false" /><sodipodi:guide
       position="216.83333,477.49999"
       orientation="1,0"
       id="guide1546"
       inkscape:locked="false" /><sodipodi:guide
       position="151.83333,464.99999"
       orientation="0,1"
       id="guide1595"
       inkscape:locked="false" /></sodipodi:namedview><g
     id="g5451"
     inkscape:groupmode="layer"
     inkscape:label="switch-layer"
     transform="matrix(1.3333333,0,0,-1.3333333,0,333.4)"
     style="display:inline"><path
       style="fill:none;stroke:#f70000;stroke-width:0.75;stroke-linecap:butt;stroke-linejoin:miter;stroke-miterlimit:4;stroke-dasharray:none;stroke-opacity:1"
       d="m 26.455352,225.68751 h 35.212857 v -1.6875 h 2.018572 v -35.875 h -2.018572 v -1.6875 H 26.455352 v 1.6875 H 24.43678 v 35.875 h 2.018572 z"
       id="path5657"
       inkscape:connector-curvature="0" /><path
       style="fill:none;stroke:#f70000;stroke-width:0.75;stroke-linecap:butt;stroke-linejoin:miter;stroke-miterlimit:4;stroke-dasharray:none;stroke-opacity:1"
       d="m 80.455352,225.68751 h 35.212858 v -1.6875 h 2.01857 v -35.875 h -2.01857 v -1.6875 H 80.455352 v 1.6875 H 78.43678 v 35.875 h 2.018572 z"
       id="path5657-1"
       inkscape:connector-curvature="0" /><path
       style="fill:none;stroke:#f70000;stroke-width:0.75;stroke-linecap:butt;stroke-linejoin:miter;stroke-miterlimit:4;stroke-dasharray:none;stroke-opacity:1"
       d="m 134.45535,225.68751 h 35.21286 v -1.6875 h 2.01857 v -35.875 h -2.01857 v -1.6875 h -35.21286 v 1.6875 h -2.01857 v 35.875 h 2.01857 z"
       id="path5657-1-4"
       inkscape:connector-curvature="0" /><path
       style="fill:none;stroke:#f70000;stroke-width:0.75;stroke-linecap:butt;stroke-linejoin:miter;stroke-miterlimit:4;stroke-dasharray:none;stroke-opacity:1"
       d="m 188.45536,225.68751 h 35.21286 v -1.6875 h 2.01857 v -35.875 h -2.01857 v -1.6875 h -35.21286 v 1.6875 h -2.01857 v 35.875 h 2.01857 z"
       id="path5657-1-4-9"
       inkscape:connector-curvature="0" /><path
       style="fill:none;stroke:#f70000;stroke-width:0.75;stroke-linecap:butt;stroke-linejoin:miter;stroke-miterlimit:4;stroke-dasharray:none;stroke-opacity:1"
       d="m 242.45536,225.68751 h 35.21286 v -1.6875 h 2.01857 v -35.875 h -2.01857 v -1.6875 h -35.21286 v 1.6875 h -2.01857 v 35.875 h 2.01857 z"
       id="path5657-1-4-9-2"
       inkscape:connector-curvature="0" /><path
       style="fill:none;stroke:#f70000;stroke-width:0.75;stroke-linecap:butt;stroke-linejoin:miter;stroke-miterlimit:4;stroke-dasharray:none;stroke-opacity:1"
       d="m 296.45536,225.68751 h 35.21286 v -1.6875 h 2.01857 v -35.875 h -2.01857 v -1.6875 h -35.21286 v 1.6875 h -2.01857 v 35.875 h 2.01857 z"
       id="path5657-1-4-9-2-0"
       inkscape:connector-curvature="0" /><path
       style="fill:none;stroke:#f70000;stroke-width:0.75;stroke-linecap:butt;stroke-linejoin:miter;stroke-miterlimit:4;stroke-dasharray:none;stroke-opacity:1"
       d="m 26.476743,171.6427 h 35.21285 v -1.6875 h 2.01857 v -35.875 h -2.01857 v -1.6875 h -35.21285 v 1.6875 h -2.01857 v 35.875 h 2.01857 z"
       id="path5657-6"
       inkscape:connector-curvature="0" /><path
       style="fill:none;stroke:#f70000;stroke-width:0.75;stroke-linecap:butt;stroke-linejoin:miter;stroke-miterlimit:4;stroke-dasharray:none;stroke-opacity:1"
       d="M 80.476738,171.6427 H 115.6896 v -1.6875 h 2.01857 v -35.875 h -2.01857 v -1.6875 H 80.476738 v 1.6875 h -2.018572 v 35.875 h 2.018572 z"
       id="path5657-1-8"
       inkscape:connector-curvature="0" /><path
       style="fill:none;stroke:#f70000;stroke-width:0.75;stroke-linecap:butt;stroke-linejoin:miter;stroke-miterlimit:4;stroke-dasharray:none;stroke-opacity:1"
       d="m 188.47675,171.6427 h 35.21286 v -1.6875 h 2.01857 v -35.875 h -2.01857 v -1.6875 h -35.21286 v 1.6875 h -2.01857 v 35.875 h 2.01857 z"
       id="path5657-1-4-9-9"
       inkscape:connector-curvature="0" /><path
       style="fill:none;stroke:#f70000;stroke-width:0.75;stroke-linecap:butt;stroke-linejoin:miter;stroke-miterlimit:4;stroke-dasharray:none;stroke-opacity:1"
       d="m 242.47675,171.6427 h 35.21286 v -1.6875 h 2.01857 v -35.875 h -2.01857 v -1.6875 h -35.21286 v 1.6875 h -2.01857 v 35.875 h 2.01857 z"
       id="path5657-1-4-9-2-2"
       inkscape:connector-curvature="0" /><path
       style="fill:none;stroke:#f70000;stroke-width:0.75;stroke-linecap:butt;stroke-linejoin:miter;stroke-miterlimit:4;stroke-dasharray:none;stroke-opacity:1"
       d="m 296.47675,171.6427 h 35.21286 v -1.6875 h 2.01857 v -35.875 h -2.01857 v -1.6875 h -35.21286 v 1.6875 h -2.01857 v 35.875 h 2.01857 z"
       id="path5657-1-4-9-2-0-6"
       inkscape:connector-curvature="0" /><path
       style="fill:none;stroke:#f70000;stroke-width:0.75;stroke-linecap:butt;stroke-linejoin:miter;stroke-miterlimit:4;stroke-dasharray:none;stroke-opacity:1"
       d="m 80.486749,117.6598 h 35.212861 v -1.6875 h 2.01857 v -35.875 h -2.01857 V 78.4098 H 80.486749 v 1.6875 h -2.01857 v 35.875 h 2.01857 z"
       id="path5657-1-9"
       inkscape:connector-curvature="0" /><path
       style="fill:none;stroke:#f70000;stroke-width:0.75;stroke-linecap:butt;stroke-linejoin:miter;stroke-miterlimit:4;stroke-dasharray:none;stroke-opacity:1"
       d="m 134.48675,117.6598 h 35.21286 v -1.6875 h 2.01857 v -35.875 h -2.01857 v -1.6875 h -35.21286 v 1.6875 h -2.01857 v 35.875 h 2.01857 z"
       id="path5657-1-4-5"
       inkscape:connector-curvature="0" /><path
       style="fill:none;stroke:#f70000;stroke-width:0.75;stroke-linecap:butt;stroke-linejoin:miter;stroke-miterlimit:4;stroke-dasharray:none;stroke-opacity:1"
       d="m 188.48676,117.6598 h 35.21286 v -1.6875 h 2.01857 v -35.875 h -2.01857 v -1.6875 h -35.21286 v 1.6875 h -2.01857 v 35.875 h 2.01857 z"
       id="path5657-1-4-9-0"
       inkscape:connector-curvature="0" /><path
       style="fill:none;stroke:#f70000;stroke-width:0.75;stroke-linecap:butt;stroke-linejoin:miter;stroke-miterlimit:4;stroke-dasharray:none;stroke-opacity:1"
       d="m 242.48676,117.6598 h 35.21286 v -1.6875 h 2.01857 v -35.875 h -2.01857 v -1.6875 h -35.21286 v 1.6875 h -2.01857 v 35.875 h 2.01857 z"
       id="path5657-1-4-9-2-4"
       inkscape:connector-curvature="0" /><path
       style="fill:none;stroke:#f70000;stroke-width:0.75;stroke-linecap:butt;stroke-linejoin:miter;stroke-miterlimit:4;stroke-dasharray:none;stroke-opacity:1"
       d="m 296.48676,117.6598 h 35.21286 v -1.6875 h 2.01857 v -35.875 h -2.01857 v -1.6875 h -35.21286 v 1.6875 h -2.01857 v 35.875 h 2.01857 z"
       id="path5657-1-4-9-2-0-8"
       inkscape:connector-curvature="0" /><path
       style="fill:none;stroke:#f70000;stroke-width:0.75;stroke-linecap:butt;stroke-linejoin:miter;stroke-miterlimit:4;stroke-dasharray:none;stroke-opacity:1"
       d="m 26.508139,63.61499 h 35.21285 v -1.6875 h 2.01857 V 26.0525 h -2.01857 V 24.365 h -35.21285 v 1.6875 h -2.01857 v 35.87499 h 2.01857 z"
       id="path5657-6-7"
       inkscape:connector-curvature="0" /><path
       style="fill:none;stroke:#f70000;stroke-width:0.75;stroke-linecap:butt;stroke-linejoin:miter;stroke-miterlimit:4;stroke-dasharray:none;stroke-opacity:1"
       d="M 80.508139,63.61499 H 115.721 v -1.6875 h 2.01857 V 26.0525 H 115.721 V 24.365 H 80.508139 v 1.6875 h -2.01857 v 35.87499 h 2.01857 z"
       id="path5657-1-8-1"
       inkscape:connector-curvature="0" /><path
       style="fill:none;stroke:#f70000;stroke-width:0.75;stroke-linecap:butt;stroke-linejoin:miter;stroke-miterlimit:4;stroke-dasharray:none;stroke-opacity:1"
       d="m 188.50815,63.61499 h 35.21286 v -1.6875 h 2.01857 V 26.0525 h -2.01857 V 24.365 h -35.21286 v 1.6875 h -2.01857 v 35.87499 h 2.01857 z"
       id="path5657-1-4-9-9-7"
       inkscape:connector-curvature="0" /><path
       style="fill:none;stroke:#f70000;stroke-width:0.75;stroke-linecap:butt;stroke-linejoin:miter;stroke-miterlimit:4;stroke-dasharray:none;stroke-opacity:1"
       d="m 242.50815,63.61499 h 35.21286 v -1.6875 h 2.01857 V 26.0525 h -2.01857 V 24.365 h -35.21286 v 1.6875 h -2.01857 v 35.87499 h 2.01857 z"
       id="path5657-1-4-9-2-2-2"
       inkscape:connector-curvature="0" /><path
       style="fill:none;stroke:#f70000;stroke-width:0.75;stroke-linecap:butt;stroke-linejoin:miter;stroke-miterlimit:4;stroke-dasharray:none;stroke-opacity:1"
       d="m 26.433959,279.73232 h 35.21286 v -1.6875 h 2.01857 v -35.875 h -2.01857 v -1.6875 h -35.21286 v 1.6875 h -2.01857 v 35.875 h 2.01857 z"
       id="path5657-10"
       inkscape:connector-curvature="0" /><path
       style="fill:none;stroke:#f70000;stroke-width:0.75;stroke-linecap:butt;stroke-linejoin:miter;stroke-miterlimit:4;stroke-dasharray:none;stroke-opacity:1"
       d="m 80.433959,279.73232 h 35.212861 v -1.6875 h 2.01857 v -35.875 h -2.01857 v -1.6875 H 80.433959 v 1.6875 h -2.01857 v 35.875 h 2.01857 z"
       id="path5657-1-6"
       inkscape:connector-curvature="0" /><path
       style="fill:none;stroke:#f70000;stroke-width:0.75;stroke-linecap:butt;stroke-linejoin:miter;stroke-miterlimit:4;stroke-dasharray:none;stroke-opacity:1"
       d="m 134.43396,279.73232 h 35.21286 v -1.6875 h 2.01857 v -35.875 h -2.01857 v -1.6875 h -35.21286 v 1.6875 h -2.01857 v 35.875 h 2.01857 z"
       id="path5657-1-4-1"
       inkscape:connector-curvature="0" /><path
       style="fill:none;stroke:#f70000;stroke-width:0.75;stroke-linecap:butt;stroke-linejoin:miter;stroke-miterlimit:4;stroke-dasharray:none;stroke-opacity:1"
       d="m 188.43397,279.73232 h 35.21286 v -1.6875 h 2.01857 v -35.875 h -2.01857 v -1.6875 h -35.21286 v 1.6875 h -2.01857 v 35.875 h 2.01857 z"
       id="path5657-1-4-9-5"
       inkscape:connector-curvature="0" /><path
       style="fill:none;stroke:#f70000;stroke-width:0.75;stroke-linecap:butt;stroke-linejoin:miter;stroke-miterlimit:4;stroke-dasharray:none;stroke-opacity:1"
       d="m 242.43397,279.73232 h 35.21286 v -1.6875 h 2.01857 v -35.875 h -2.01857 v -1.6875 h -35.21286 v 1.6875 h -2.01857 v 35.875 h 2.01857 z"
       id="path5657-1-4-9-2-9"
       inkscape:connector-curvature="0" /><path
       style="fill:none;stroke:#f70000;stroke-width:0.75;stroke-linecap:butt;stroke-linejoin:miter;stroke-miterlimit:4;stroke-dasharray:none;stroke-opacity:1"
       d="m 134.45535,63.687506 h 35.21286 v -1.6875 h 2.01857 V 26.125017 h -2.01857 v -1.6875 h -35.21286 v 1.6875 h -2.01857 v 35.874989 h 2.01857 z"
       id="path5657-1-4-9-9-7-1"
       inkscape:connector-curvature="0" /><path
       style="fill:none;stroke:#f70000;stroke-width:0.75;stroke-linecap:butt;stroke-linejoin:miter;stroke-miterlimit:4;stroke-dasharray:none;stroke-opacity:1"
       d="m 134.40535,171.68751 h 35.21286 v -1.6875 h 2.01857 v -35.87499 h -2.01857 v -1.6875 h -35.21286 v 1.6875 h -2.01857 v 35.87499 h 2.01857 z"
       id="path5657-1-4-9-9-7-1-1"
       inkscape:connector-curvature="0" /><path
       style="fill:none;stroke:#ff0000;stroke-width:0.75000002;stroke-linecap:butt;stroke-linejoin:miter;stroke-miterlimit:4;stroke-dasharray:none;stroke-opacity:1;image-rendering:auto"
       d="M -52.106108,80.150795 -0.29656359,287.74479 357.79245,288.41844 358.39583,66.41086 c 0,0 0.12426,-4.49793 -5.46764,-10.034757 -5.5919,-5.5369 -55.24377,-50.3965907 -55.24377,-50.3965907 0,0 -8.22253,-5.47028791 -17.37204,-5.49044127 -9.14951,-0.0201534 -326.065492,-0.71821417 -326.065492,-0.71821417 0,0 -6.061941,0.16611667 -6.187924,5.43854644 -0.125984,5.2724287 -0.165072,74.9413917 -0.165072,74.9413917 z"
       inkscape:connector-curvature="0"
       id="path4501" /><path
       style="display:inline;fill:none;stroke:#f70000;stroke-width:0.75;stroke-linecap:butt;stroke-linejoin:miter;stroke-miterlimit:4;stroke-dasharray:none;stroke-opacity:1"
       d="M -27.491861,63.61499 H 7.7209892 v -1.6875 h 2.01857 V 26.0525 h -2.01857 V 24.365 H -27.491861 v 1.6875 h -2.01857 v 35.87499 h 2.01857 z"
       id="path5657-6-7-6"
       inkscape:connector-curvature="0" /><circle
       style="fill:none;stroke:#fe0000;stroke-width:0.75;stroke-miterlimit:4;stroke-dasharray:none;stroke-opacity:1"
       id="path1117"
       cx="349.56363"
       cy="-276.93027"
       transform="scale(1,-1)"
       r="2.8486927" /><circle
       style="display:inline;fill:none;stroke:#fe0000;stroke-width:0.75000002;stroke-miterlimit:4;stroke-dasharray:none;stroke-opacity:1"
       id="path1117-3"
       cx="349.56674"
       cy="-125.06179"
       r="2.8486927"
       transform="scale(1,-1)" /><circle
       style="display:inline;fill:none;stroke:#fe0000;stroke-width:0.75;stroke-miterlimit:4;stroke-dasharray:none;stroke-opacity:1"
       id="path1117-3-5"
       cx="287"
       cy="-8.6250057"
       transform="scale(1,-1)"
       r="2.8486927" /><circle
       style="display:inline;fill:none;stroke:#fe0000;stroke-width:0.75;stroke-miterlimit:4;stroke-dasharray:none;stroke-opacity:1"
       id="path1117-3-5-6"
       cx="125"
       cy="-8.7500048"
       r="2.8486927"
       transform="scale(1,-1)" /><circle
       style="display:inline;fill:none;stroke:#fe0000;stroke-width:0.75;stroke-miterlimit:4;stroke-dasharray:none;stroke-opacity:1"
       id="path1117-3-5-6-2"
       cx="-42.320511"
       cy="-8.8433828"
       r="2.8486927"
       transform="scale(1,-1)" /><circle
       style="display:inline;fill:none;stroke:#fe0000;stroke-width:0.75;stroke-miterlimit:4;stroke-dasharray:none;stroke-opacity:1"
       id="path1117-3-5-6-2-9"
       cx="6.625"
       cy="-276.75"
       r="2.8486927"
       transform="scale(1,-1)" /><path
       style="display:inline;fill:none;stroke:#f70000;stroke-width:0.75;stroke-linecap:butt;stroke-linejoin:miter;stroke-miterlimit:4;stroke-dasharray:none;stroke-opacity:1"
       d="m 454.39981,225.68752 h 35.21285 v -1.6875 h 2.01858 v -35.875 h -2.01858 v -1.6875 h -35.21285 v 1.6875 h -2.01857 v 35.875 h 2.01857 z"
       id="path5657-0"
       inkscape:connector-curvature="0" /><path
       style="display:inline;fill:none;stroke:#f70000;stroke-width:0.75;stroke-linecap:butt;stroke-linejoin:miter;stroke-miterlimit:4;stroke-dasharray:none;stroke-opacity:1"
       d="m 508.3998,225.68752 h 35.21286 v -1.6875 h 2.01858 v -35.875 h -2.01858 v -1.6875 H 508.3998 v 1.6875 h -2.01857 v 35.875 h 2.01857 z"
       id="path5657-1-61"
       inkscape:connector-curvature="0" /><path
       style="display:inline;fill:none;stroke:#f70000;stroke-width:0.75;stroke-linecap:butt;stroke-linejoin:miter;stroke-miterlimit:4;stroke-dasharray:none;stroke-opacity:1"
       d="m 562.3998,225.68752 h 35.21287 v -1.6875 h 2.01856 v -35.875 h -2.01856 v -1.6875 H 562.3998 v 1.6875 h -2.01857 v 35.875 h 2.01857 z"
       id="path5657-1-4-55"
       inkscape:connector-curvature="0" /><path
       style="display:inline;fill:none;stroke:#f70000;stroke-width:0.75;stroke-linecap:butt;stroke-linejoin:miter;stroke-miterlimit:4;stroke-dasharray:none;stroke-opacity:1"
       d="m 616.39981,225.68752 h 35.21286 v -1.6875 h 2.01858 v -35.875 h -2.01858 v -1.6875 h -35.21286 v 1.6875 h -2.01857 v 35.875 h 2.01857 z"
       id="path5657-1-4-9-4"
       inkscape:connector-curvature="0" /><path
       style="display:inline;fill:none;stroke:#f70000;stroke-width:0.75;stroke-linecap:butt;stroke-linejoin:miter;stroke-miterlimit:4;stroke-dasharray:none;stroke-opacity:1"
       d="m 670.39981,225.68752 h 35.21287 v -1.6875 h 2.01856 v -35.875 h -2.01856 v -1.6875 h -35.21287 v 1.6875 h -2.01857 v 35.875 h 2.01857 z"
       id="path5657-1-4-9-2-7"
       inkscape:connector-curvature="0" /><path
       style="display:inline;fill:none;stroke:#f70000;stroke-width:0.75;stroke-linecap:butt;stroke-linejoin:miter;stroke-miterlimit:4;stroke-dasharray:none;stroke-opacity:1"
       d="m 724.39982,225.68752 h 35.21286 v -1.6875 h 2.01856 v -35.875 h -2.01856 v -1.6875 h -35.21286 v 1.6875 h -2.01858 v 35.875 h 2.01858 z"
       id="path5657-1-4-9-2-0-65"
       inkscape:connector-curvature="0" /><path
       style="display:inline;fill:none;stroke:#f70000;stroke-width:0.75;stroke-linecap:butt;stroke-linejoin:miter;stroke-miterlimit:4;stroke-dasharray:none;stroke-opacity:1"
       d="m 454.4212,171.64271 h 35.21285 v -1.6875 h 2.01857 v -35.875 h -2.01857 v -1.6875 H 454.4212 v 1.6875 h -2.01857 v 35.875 h 2.01857 z"
       id="path5657-6-6"
       inkscape:connector-curvature="0" /><path
       style="display:inline;fill:none;stroke:#f70000;stroke-width:0.75;stroke-linecap:butt;stroke-linejoin:miter;stroke-miterlimit:4;stroke-dasharray:none;stroke-opacity:1"
       d="m 508.42119,171.64271 h 35.21286 v -1.6875 h 2.01858 v -35.875 h -2.01858 v -1.6875 h -35.21286 v 1.6875 h -2.01857 v 35.875 h 2.01857 z"
       id="path5657-1-8-9"
       inkscape:connector-curvature="0" /><path
       style="display:inline;fill:none;stroke:#f70000;stroke-width:0.75;stroke-linecap:butt;stroke-linejoin:miter;stroke-miterlimit:4;stroke-dasharray:none;stroke-opacity:1"
       d="m 616.4212,171.64271 h 35.21286 v -1.6875 h 2.01858 v -35.875 h -2.01858 v -1.6875 H 616.4212 v 1.6875 h -2.01857 v 35.875 h 2.01857 z"
       id="path5657-1-4-9-9-3"
       inkscape:connector-curvature="0" /><path
       style="display:inline;fill:none;stroke:#f70000;stroke-width:0.75;stroke-linecap:butt;stroke-linejoin:miter;stroke-miterlimit:4;stroke-dasharray:none;stroke-opacity:1"
       d="m 670.4212,171.64271 h 35.21287 v -1.6875 h 2.01856 v -35.875 h -2.01856 v -1.6875 H 670.4212 v 1.6875 h -2.01857 v 35.875 h 2.01857 z"
       id="path5657-1-4-9-2-2-7"
       inkscape:connector-curvature="0" /><path
       style="display:inline;fill:none;stroke:#f70000;stroke-width:0.75;stroke-linecap:butt;stroke-linejoin:miter;stroke-miterlimit:4;stroke-dasharray:none;stroke-opacity:1"
       d="m 724.42121,171.64271 h 35.21286 v -1.6875 h 2.01856 v -35.875 h -2.01856 v -1.6875 h -35.21286 v 1.6875 h -2.01858 v 35.875 h 2.01858 z"
       id="path5657-1-4-9-2-0-6-4"
       inkscape:connector-curvature="0" /><path
       style="display:inline;fill:none;stroke:#f70000;stroke-width:0.75;stroke-linecap:butt;stroke-linejoin:miter;stroke-miterlimit:4;stroke-dasharray:none;stroke-opacity:1"
       d="m 508.43121,117.65981 h 35.21286 v -1.6875 h 2.01856 V 80.097308 h -2.01856 v -1.687501 h -35.21286 v 1.687501 h -2.01858 v 35.875002 h 2.01858 z"
       id="path5657-1-9-2"
       inkscape:connector-curvature="0" /><path
       style="display:inline;fill:none;stroke:#f70000;stroke-width:0.75;stroke-linecap:butt;stroke-linejoin:miter;stroke-miterlimit:4;stroke-dasharray:none;stroke-opacity:1"
       d="m 562.43121,117.65981 h 35.21285 v -1.6875 h 2.01857 V 80.097308 h -2.01857 v -1.687501 h -35.21285 v 1.687501 h -2.01858 v 35.875002 h 2.01858 z"
       id="path5657-1-4-5-5"
       inkscape:connector-curvature="0" /><path
       style="display:inline;fill:none;stroke:#f70000;stroke-width:0.75;stroke-linecap:butt;stroke-linejoin:miter;stroke-miterlimit:4;stroke-dasharray:none;stroke-opacity:1"
       d="m 616.43122,117.65981 h 35.21286 v -1.6875 h 2.01856 V 80.097308 h -2.01856 v -1.687501 h -35.21286 v 1.687501 h -2.01858 v 35.875002 h 2.01858 z"
       id="path5657-1-4-9-0-4"
       inkscape:connector-curvature="0" /><path
       style="display:inline;fill:none;stroke:#f70000;stroke-width:0.75;stroke-linecap:butt;stroke-linejoin:miter;stroke-miterlimit:4;stroke-dasharray:none;stroke-opacity:1"
       d="m 670.43122,117.65981 h 35.21285 v -1.6875 h 2.01857 V 80.097308 h -2.01857 v -1.687501 h -35.21285 v 1.687501 h -2.01858 v 35.875002 h 2.01858 z"
       id="path5657-1-4-9-2-4-7"
       inkscape:connector-curvature="0" /><path
       style="display:inline;fill:none;stroke:#f70000;stroke-width:0.75;stroke-linecap:butt;stroke-linejoin:miter;stroke-miterlimit:4;stroke-dasharray:none;stroke-opacity:1"
       d="m 724.43121,117.65981 h 35.21286 v -1.6875 h 2.01857 V 80.097308 h -2.01857 v -1.687501 h -35.21286 v 1.687501 h -2.01856 v 35.875002 h 2.01856 z"
       id="path5657-1-4-9-2-0-8-4"
       inkscape:connector-curvature="0" /><path
       style="display:inline;fill:none;stroke:#f70000;stroke-width:0.75;stroke-linecap:butt;stroke-linejoin:miter;stroke-miterlimit:4;stroke-dasharray:none;stroke-opacity:1"
       d="m 454.4526,63.615 h 35.21284 v -1.6875 h 2.01857 V 26.052511 h -2.01857 v -1.6875 H 454.4526 v 1.6875 h -2.01858 V 61.9275 h 2.01858 z"
       id="path5657-6-7-4"
       inkscape:connector-curvature="0" /><path
       style="display:inline;fill:none;stroke:#f70000;stroke-width:0.75;stroke-linecap:butt;stroke-linejoin:miter;stroke-miterlimit:4;stroke-dasharray:none;stroke-opacity:1"
       d="m 508.4526,63.615 h 35.21286 v -1.6875 h 2.01856 V 26.052511 h -2.01856 v -1.6875 H 508.4526 v 1.6875 h -2.01858 V 61.9275 h 2.01858 z"
       id="path5657-1-8-1-3"
       inkscape:connector-curvature="0" /><path
       style="display:inline;fill:none;stroke:#f70000;stroke-width:0.75;stroke-linecap:butt;stroke-linejoin:miter;stroke-miterlimit:4;stroke-dasharray:none;stroke-opacity:1"
       d="m 616.45261,63.615 h 35.21286 v -1.6875 h 2.01856 V 26.052511 h -2.01856 v -1.6875 h -35.21286 v 1.6875 h -2.01858 V 61.9275 h 2.01858 z"
       id="path5657-1-4-9-9-7-0"
       inkscape:connector-curvature="0" /><path
       style="display:inline;fill:none;stroke:#f70000;stroke-width:0.75;stroke-linecap:butt;stroke-linejoin:miter;stroke-miterlimit:4;stroke-dasharray:none;stroke-opacity:1"
       d="m 670.45261,63.615 h 35.21285 v -1.6875 h 2.01857 V 26.052511 h -2.01857 v -1.6875 h -35.21285 v 1.6875 h -2.01858 V 61.9275 h 2.01858 z"
       id="path5657-1-4-9-2-2-2-7"
       inkscape:connector-curvature="0" /><path
       style="display:inline;fill:none;stroke:#f70000;stroke-width:0.75;stroke-linecap:butt;stroke-linejoin:miter;stroke-miterlimit:4;stroke-dasharray:none;stroke-opacity:1"
       d="m 562.3998,63.68751 h 35.21287 v -1.6875 h 2.01856 V 26.125021 h -2.01856 v -1.6875 H 562.3998 v 1.6875 h -2.01857 V 62.00001 h 2.01857 z"
       id="path5657-1-4-9-9-7-1-14"
       inkscape:connector-curvature="0" /><path
       style="display:inline;fill:none;stroke:#f70000;stroke-width:0.75;stroke-linecap:butt;stroke-linejoin:miter;stroke-miterlimit:4;stroke-dasharray:none;stroke-opacity:1"
       d="m 562.3498,171.68752 h 35.21286 v -1.68749 h 2.01858 v -35.875 h -2.01858 v -1.6875 H 562.3498 v 1.6875 h -2.01856 v 35.875 h 2.01856 z"
       id="path5657-1-4-9-9-7-1-1-9"
       inkscape:connector-curvature="0" /><path
       style="display:inline;fill:none;stroke:#fd0000;stroke-width:0.75;stroke-linecap:butt;stroke-linejoin:miter;stroke-miterlimit:4;stroke-dasharray:none;stroke-opacity:1"
       d="m 454.43121,117.65981 h 35.21286 v -1.6875 h 2.01856 V 80.097308 h -2.01856 v -1.687501 h -35.21286 v 1.687501 h -2.01857 v 35.875002 h 2.01857 z"
       id="path5657-1-9-3-2"
       inkscape:connector-curvature="0" /><path
       style="display:inline;fill:none;stroke:#ff0000;stroke-width:0.75;stroke-linecap:butt;stroke-linejoin:miter;stroke-miterlimit:4;stroke-dasharray:none;stroke-opacity:1;image-rendering:auto"
       d="m 375.83835,80.150798 51.91166,154.224212 358.98689,0 -0.39661,-167.964145 c 0,0 0.12426,-4.49793 -5.46765,-10.034753 -5.59189,-5.536905 -55.24377,-50.3966024 -55.24377,-50.3966024 0,0 -8.22253,-5.47028005 -17.37204,-5.49043005 -9.1495,-0.0202 -326.06549,-0.71822015 -326.06549,-0.71822015 0,0 -6.06194,0.16612 -6.18792,5.4385502 -0.12598,5.2724304 -0.16507,74.9413884 -0.16507,74.9413884 z"
       inkscape:connector-curvature="0"
       id="path4501-0"
       sodipodi:nodetypes="ccccccccsc" /><path
       style="display:inline;fill:none;stroke:#f70000;stroke-width:0.75;stroke-linecap:butt;stroke-linejoin:miter;stroke-miterlimit:4;stroke-dasharray:none;stroke-opacity:1"
       d="m 400.4526,63.615 h 35.21285 v -1.6875 h 2.01857 V 26.052511 h -2.01857 v -1.6875 H 400.4526 v 1.6875 h -2.01857 V 61.9275 h 2.01857 z"
       id="path5657-6-7-6-6"
       inkscape:connector-curvature="0" /><circle
       style="display:inline;fill:none;stroke:#fe0000;stroke-width:0.75;stroke-miterlimit:4;stroke-dasharray:none;stroke-opacity:1"
       id="path1117-8"
       cx="777.50812"
       cy="-222.55527"
       r="2.8486927"
       transform="scale(1,-1)" /><circle
       style="display:inline;fill:none;stroke:#fe0000;stroke-width:0.75;stroke-miterlimit:4;stroke-dasharray:none;stroke-opacity:1"
       id="path1117-3-2"
       cx="777.51123"
       cy="-125.06179"
       r="2.8486927"
       transform="scale(1,-1)" /><circle
       style="display:inline;fill:none;stroke:#fe0000;stroke-width:0.75;stroke-miterlimit:4;stroke-dasharray:none;stroke-opacity:1"
       id="path1117-3-5-66"
       cx="714.94452"
       cy="-8.6250181"
       r="2.8486927"
       transform="scale(1,-1)" /><circle
       style="display:inline;fill:none;stroke:#fe0000;stroke-width:0.75;stroke-miterlimit:4;stroke-dasharray:none;stroke-opacity:1"
       id="path1117-3-5-6-4"
       cx="552.94446"
       cy="-8.7500029"
       r="2.8486927"
       transform="scale(1,-1)" /><circle
       style="display:inline;fill:none;stroke:#fe0000;stroke-width:0.75;stroke-miterlimit:4;stroke-dasharray:none;stroke-opacity:1"
       id="path1117-3-5-6-2-95"
       cx="385.62396"
       cy="-8.8433867"
       r="2.8486927"
       transform="scale(1,-1)" /><circle
       style="display:inline;fill:none;stroke:#fe0000;stroke-width:0.75;stroke-miterlimit:4;stroke-dasharray:none;stroke-opacity:1"
       id="path1117-3-5-6-2-9-0"
       cx="434.56946"
       cy="-222.375"
       r="2.8486927"
       transform="scale(1,-1)" /><circle
       style="display:inline;fill:none;stroke:#fe0000;stroke-width:0.75;stroke-miterlimit:4;stroke-dasharray:none;stroke-opacity:1"
       id="path1117-3-5-6-2-1-4"
       cx="400.56946"
       cy="-124.75001"
       r="2.8486927"
       transform="scale(1,-1)" /><path
       style="fill:none;stroke:#ff0000;stroke-width:0.75px;stroke-linecap:butt;stroke-linejoin:miter;stroke-opacity:1"
       d="m -0.29656359,287.74479 -0.25000001,55.00522 c 0,0 -1.239255,10.36324 10.3059514,10.37501 L 132.375,353.25001 c 8.94092,0 10.5,-3.75001 30.25,-12.375 20.25948,0.51552 195.42296,0 195.42296,0 l -0.25551,-52.45657 z"
       id="path1536"
       inkscape:connector-curvature="0"
       sodipodi:nodetypes="ccsccccc" /><circle
       style="display:inline;fill:none;stroke:#fe0000;stroke-width:0.75;stroke-miterlimit:4;stroke-dasharray:none;stroke-opacity:1"
       id="path1117-3-5-6-2-9-9"
       cx="7.125"
       cy="-293.125"
       r="2.8486927"
       transform="scale(1,-1)" /><circle
       style="display:inline;fill:none;stroke:#fe0000;stroke-width:0.75;stroke-miterlimit:4;stroke-dasharray:none;stroke-opacity:1"
       id="path1117-3-5-6-2-9-9-1"
       cx="6.9999995"
       cy="-346"
       r="2.8486927"
       transform="scale(1,-1)" /><circle
       style="display:inline;fill:none;stroke:#fe0000;stroke-width:0.75;stroke-miterlimit:4;stroke-dasharray:none;stroke-opacity:1"
       id="path1117-3-5-6-2-9-9-1-7"
       cx="134.75"
       cy="-345.75"
       r="2.8486927"
       transform="scale(1,-1)" /><circle
       style="display:inline;fill:none;stroke:#fe0000;stroke-width:0.75;stroke-miterlimit:4;stroke-dasharray:none;stroke-opacity:1;font-variant-east_asian:normal;opacity:1;vector-effect:none;fill-opacity:1;stroke-linecap:butt;stroke-linejoin:miter;stroke-dashoffset:0"
       id="path1117-3-5-6-2-9-9-1-7-1"
       cx="349.625"
       cy="-335.625"
       transform="scale(1,-1)"
       r="2.8486927" /><circle
       style="display:inline;opacity:1;vector-effect:none;fill:none;fill-opacity:1;stroke:#fe0000;stroke-width:0.75;stroke-linecap:butt;stroke-linejoin:miter;stroke-miterlimit:4;stroke-dasharray:none;stroke-dashoffset:0;stroke-opacity:1"
       id="path1117-3-5-6-2-9-9-1-7-1-9"
       cx="349.875"
       cy="-293.75"
       r="2.8486927"
       transform="scale(1,-1)" /><path
       style="display:inline;fill:none;stroke:#ff0000;stroke-width:0.75083441px;stroke-linecap:butt;stroke-linejoin:miter;stroke-opacity:1"
       d="m 427.75065,234.37501 -0.25055,55.00522 c 0,0 -1.24202,10.36324 10.32889,10.37501 l 122.8886,0.12499 c 8.96083,0 10.52338,-3.75001 30.31736,-12.375 20.30458,0.51552 195.85804,0 195.85804,0 l -0.25608,-52.45657 z"
       id="path1536-5"
       inkscape:connector-curvature="0"
       sodipodi:nodetypes="ccsccccc" /><circle
       style="display:inline;fill:none;stroke:#fe0000;stroke-width:0.75;stroke-miterlimit:4;stroke-dasharray:none;stroke-opacity:1"
       id="path1117-3-5-6-2-9-9-6"
       cx="436.06943"
       cy="-239.08157"
       r="2.8486927"
       transform="scale(1,-1)" /><circle
       style="display:inline;fill:none;stroke:#fe0000;stroke-width:0.75;stroke-miterlimit:4;stroke-dasharray:none;stroke-opacity:1"
       id="path1117-3-5-6-2-9-9-1-3"
       cx="435.94443"
       cy="-291.95657"
       r="2.8486927"
       transform="scale(1,-1)" /><circle
       style="display:inline;fill:none;stroke:#fe0000;stroke-width:0.75;stroke-miterlimit:4;stroke-dasharray:none;stroke-opacity:1"
       id="path1117-3-5-6-2-9-9-1-7-9"
       cx="563.69446"
       cy="-291.70657"
       r="2.8486927"
       transform="scale(1,-1)" /><circle
       style="display:inline;opacity:1;vector-effect:none;fill:none;fill-opacity:1;stroke:#fe0000;stroke-width:0.75;stroke-linecap:butt;stroke-linejoin:miter;stroke-miterlimit:4;stroke-dasharray:none;stroke-dashoffset:0;stroke-opacity:1"
       id="path1117-3-5-6-2-9-9-1-7-1-4"
       cx="778.5694"
       cy="-281.58157"
       r="2.8486927"
       transform="scale(1,-1)" /><circle
       style="display:inline;opacity:1;vector-effect:none;fill:none;fill-opacity:1;stroke:#fe0000;stroke-width:0.75;stroke-linecap:butt;stroke-linejoin:miter;stroke-miterlimit:4;stroke-dasharray:none;stroke-dashoffset:0;stroke-opacity:1"
       id="path1117-3-5-6-2-9-9-1-7-1-9-8"
       cx="778.81946"
       cy="-239.70657"
       r="2.8486927"
       transform="scale(1,-1)" /><circle
       style="display:inline;fill:none;stroke:#fe0000;stroke-width:0.75;stroke-miterlimit:4;stroke-dasharray:none;stroke-opacity:1"
       id="path1117-0"
       cx="349.56363"
       cy="-632.16986"
       r="2.8486927"
       transform="scale(1,-1)" /><circle
       style="display:inline;fill:none;stroke:#fe0000;stroke-width:0.75;stroke-miterlimit:4;stroke-dasharray:none;stroke-opacity:1"
       id="path1117-3-8"
       cx="349.56674"
       cy="-480.30139"
       r="2.8486927"
       transform="scale(1,-1)" /><circle
       style="display:inline;fill:none;stroke:#fe0000;stroke-width:0.75;stroke-miterlimit:4;stroke-dasharray:none;stroke-opacity:1"
       id="path1117-3-5-8"
       cx="287"
       cy="-363.86459"
       r="2.8486927"
       transform="scale(1,-1)" /><circle
       style="display:inline;fill:none;stroke:#fe0000;stroke-width:0.75;stroke-miterlimit:4;stroke-dasharray:none;stroke-opacity:1"
       id="path1117-3-5-6-5"
       cx="125.00003"
       cy="-363.98959"
       r="2.8486927"
       transform="scale(1,-1)" /><circle
       style="display:inline;fill:none;stroke:#fe0000;stroke-width:0.75;stroke-miterlimit:4;stroke-dasharray:none;stroke-opacity:1"
       id="path1117-3-5-6-2-0"
       cx="-42.320499"
       cy="-364.08298"
       r="2.8486927"
       transform="scale(1,-1)" /><circle
       style="display:inline;fill:none;stroke:#fe0000;stroke-width:0.75;stroke-miterlimit:4;stroke-dasharray:none;stroke-opacity:1"
       id="path1117-3-5-6-2-9-96"
       cx="6.6250048"
       cy="-631.98962"
       r="2.8486927"
       transform="scale(1,-1)" /><circle
       style="display:inline;fill:none;stroke:#fe0000;stroke-width:0.75;stroke-miterlimit:4;stroke-dasharray:none;stroke-opacity:1"
       id="path1117-3-5-6-2-1-3"
       cx="-30.374979"
       cy="-479.86456"
       r="2.8486927"
       transform="scale(1,-1)" /><path
       id="path1536-8"
       style="display:inline;fill:none;stroke:#ff0000;stroke-width:0.75px;stroke-linecap:butt;stroke-linejoin:miter;stroke-opacity:1"
       d="m -0.29655264,642.98439 -0.25,55.00522 c 0,0 -1.23924996,10.36324 10.30595004,10.37501 L 132.375,708.48961 c 8.94093,0 10.5,-3.75001 30.25,-12.375 20.25948,0.51552 195.42296,0 195.42296,0 l -0.25551,-52.45657 z m -51.80954136,-207.594 51.80954136,207.594 358.08900264,0.67365 0.60339,-222.00759 c 0,0 0.12426,-4.49793 -5.46765,-10.03476 -5.59189,-5.53689 -55.24377,-50.39659 -55.24377,-50.39659 0,0 -8.22253,-5.47029 -17.37204,-5.49045 -9.1495,-0.0202 -326.065478,-0.71821 -326.065478,-0.71821 0,0 -6.061941,0.16612 -6.187924,5.43855 -0.125984,5.27243 -0.165072,74.9414 -0.165072,74.9414 z" /><circle
       style="display:inline;fill:none;stroke:#fe0000;stroke-width:0.75;stroke-miterlimit:4;stroke-dasharray:none;stroke-opacity:1"
       id="path1117-3-5-6-2-9-9-5"
       cx="7.12502"
       cy="-648.36456"
       r="2.8486927"
       transform="scale(1,-1)" /><circle
       style="display:inline;fill:none;stroke:#fe0000;stroke-width:0.75;stroke-miterlimit:4;stroke-dasharray:none;stroke-opacity:1"
       id="path1117-3-5-6-2-9-9-1-6"
       cx="7.0000048"
       cy="-701.23962"
       r="2.8486927"
       transform="scale(1,-1)" /><circle
       style="display:inline;fill:none;stroke:#fe0000;stroke-width:0.75;stroke-miterlimit:4;stroke-dasharray:none;stroke-opacity:1"
       id="path1117-3-5-6-2-9-9-1-7-11"
       cx="134.75003"
       cy="-700.98962"
       r="2.8486927"
       transform="scale(1,-1)" /><circle
       style="display:inline;opacity:1;vector-effect:none;fill:none;fill-opacity:1;stroke:#fe0000;stroke-width:0.75;stroke-linecap:butt;stroke-linejoin:miter;stroke-miterlimit:4;stroke-dasharray:none;stroke-dashoffset:0;stroke-opacity:1"
       id="path1117-3-5-6-2-9-9-1-7-1-5"
       cx="349.62497"
       cy="-690.86462"
       r="2.8486927"
       transform="scale(1,-1)" /><circle
       style="display:inline;opacity:1;vector-effect:none;fill:none;fill-opacity:1;stroke:#fe0000;stroke-width:0.75;stroke-linecap:butt;stroke-linejoin:miter;stroke-miterlimit:4;stroke-dasharray:none;stroke-dashoffset:0;stroke-opacity:1"
       id="path1117-3-5-6-2-9-9-1-7-1-9-9"
       cx="349.875"
       cy="-648.98962"
       r="2.8486927"
       transform="scale(1,-1)" /><path
       style="display:inline;fill:none;stroke:#f70000;stroke-width:0.75;stroke-linecap:butt;stroke-linejoin:miter;stroke-miterlimit:4;stroke-dasharray:none;stroke-opacity:1"
       d="m 26.393582,117.6875 h 35.21285 V 116 h 2.01857 V 80.125008 h -2.01857 v -1.6875 h -35.21285 v 1.6875 h -2.01857 V 116 h 2.01857 z"
       id="path5657-6-8"
       inkscape:connector-curvature="0" /><path
       style="display:inline;fill:none;stroke:#f70000;stroke-width:0.75;stroke-linecap:butt;stroke-linejoin:miter;stroke-miterlimit:4;stroke-dasharray:none;stroke-opacity:1"
       d="m 296.89358,279.68751 h 35.21286 v -1.6875 h 2.01857 v -35.875 h -2.01857 v -1.6875 h -35.21286 v 1.6875 h -2.01857 v 35.875 h 2.01857 z"
       id="path5657-1-4-9-2-9-4"
       inkscape:connector-curvature="0" /><rect
       style="opacity:1;vector-effect:none;fill:#fffff9;fill-opacity:1;stroke:#ffffff;stroke-width:0.48817474;stroke-linecap:butt;stroke-linejoin:miter;stroke-miterlimit:4;stroke-dasharray:none;stroke-dashoffset:0;stroke-opacity:1"
       id="rect1813"
       width="356.90073"
       height="2.7506278"
       x="0.14754972"
       y="-644.48468"
       transform="scale(1,-1)" /><path
       style="display:inline;fill:none;stroke:#ff0000;stroke-width:0.75;stroke-linecap:butt;stroke-linejoin:miter;stroke-miterlimit:4;stroke-dasharray:none;stroke-opacity:1;image-rendering:auto"
       d="m 383.97158,406.57507 51.91166,154.22421 h 358.9869 l -0.39662,-167.96415 c 0,0 0.12426,-4.49792 -5.46765,-10.03475 -5.59189,-5.53691 -55.24377,-50.3966 -55.24377,-50.3966 0,0 -8.22253,-5.47028 -17.37204,-5.49044 -9.1495,-0.0202 -326.06549,-0.71821 -326.06549,-0.71821 0,0 -6.06194,0.16612 -6.18792,5.43855 -0.12598,5.27243 -0.16507,74.94139 -0.16507,74.94139 z"
       inkscape:connector-curvature="0"
       id="path4501-0-1"
       sodipodi:nodetypes="ccccccccsc" /><circle
       style="display:inline;fill:none;stroke:#fe0000;stroke-width:0.75;stroke-miterlimit:4;stroke-dasharray:none;stroke-opacity:1"
       id="path1117-8-0"
       cx="785.6413"
       cy="-548.97955"
       r="2.8486927"
       transform="scale(1,-1)" /><circle
       style="display:inline;fill:none;stroke:#fe0000;stroke-width:0.75;stroke-miterlimit:4;stroke-dasharray:none;stroke-opacity:1"
       id="path1117-3-2-3"
       cx="785.64441"
       cy="-451.48605"
       r="2.8486927"
       transform="scale(1,-1)" /><circle
       style="display:inline;fill:none;stroke:#fe0000;stroke-width:0.75;stroke-miterlimit:4;stroke-dasharray:none;stroke-opacity:1"
       id="path1117-3-5-66-0"
       cx="723.07776"
       cy="-335.04929"
       r="2.8486927"
       transform="scale(1,-1)" /><circle
       style="display:inline;fill:none;stroke:#fe0000;stroke-width:0.75;stroke-miterlimit:4;stroke-dasharray:none;stroke-opacity:1"
       id="path1117-3-5-6-4-4"
       cx="561.0777"
       cy="-335.17426"
       r="2.8486927"
       transform="scale(1,-1)" /><circle
       style="display:inline;fill:none;stroke:#fe0000;stroke-width:0.75;stroke-miterlimit:4;stroke-dasharray:none;stroke-opacity:1"
       id="path1117-3-5-6-2-95-4"
       cx="393.7572"
       cy="-335.26764"
       r="2.8486927"
       transform="scale(1,-1)" /><circle
       style="display:inline;fill:none;stroke:#fe0000;stroke-width:0.75;stroke-miterlimit:4;stroke-dasharray:none;stroke-opacity:1"
       id="path1117-3-5-6-2-9-0-4"
       cx="442.7027"
       cy="-548.79926"
       r="2.8486927"
       transform="scale(1,-1)" /><circle
       style="display:inline;fill:none;stroke:#fe0000;stroke-width:0.75;stroke-miterlimit:4;stroke-dasharray:none;stroke-opacity:1"
       id="path1117-3-5-6-2-1-4-4"
       cx="408.7027"
       cy="-451.17429"
       r="2.8486927"
       transform="scale(1,-1)" /><path
       style="display:inline;fill:none;stroke:#ff0000;stroke-width:0.75083435px;stroke-linecap:butt;stroke-linejoin:miter;stroke-opacity:1"
       d="m 435.88388,560.79928 -0.25055,55.00522 c 0,0 -1.24202,10.36324 10.32889,10.37501 l 122.8886,0.12499 c 8.96084,0 10.52339,-3.75001 30.31737,-12.375 20.30457,0.51552 195.85804,0 195.85804,0 l -0.25608,-52.45657 z"
       id="path1536-5-7"
       inkscape:connector-curvature="0"
       sodipodi:nodetypes="ccsccccc" /><circle
       style="display:inline;fill:none;stroke:#fe0000;stroke-width:0.75;stroke-miterlimit:4;stroke-dasharray:none;stroke-opacity:1"
       id="path1117-3-5-6-2-9-9-6-6"
       cx="444.20267"
       cy="-565.50586"
       r="2.8486927"
       transform="scale(1,-1)" /><circle
       style="display:inline;fill:none;stroke:#fe0000;stroke-width:0.75;stroke-miterlimit:4;stroke-dasharray:none;stroke-opacity:1"
       id="path1117-3-5-6-2-9-9-1-3-3"
       cx="444.07767"
       cy="-618.38086"
       r="2.8486927"
       transform="scale(1,-1)" /><circle
       style="display:inline;fill:none;stroke:#fe0000;stroke-width:0.75;stroke-miterlimit:4;stroke-dasharray:none;stroke-opacity:1"
       id="path1117-3-5-6-2-9-9-1-7-9-1"
       cx="571.8277"
       cy="-618.13086"
       r="2.8486927"
       transform="scale(1,-1)" /><circle
       style="display:inline;opacity:1;vector-effect:none;fill:none;fill-opacity:1;stroke:#fe0000;stroke-width:0.75;stroke-linecap:butt;stroke-linejoin:miter;stroke-miterlimit:4;stroke-dasharray:none;stroke-dashoffset:0;stroke-opacity:1"
       id="path1117-3-5-6-2-9-9-1-7-1-4-7"
       cx="786.70258"
       cy="-608.00586"
       r="2.8486927"
       transform="scale(1,-1)" /><circle
       style="display:inline;opacity:1;vector-effect:none;fill:none;fill-opacity:1;stroke:#fe0000;stroke-width:0.75;stroke-linecap:butt;stroke-linejoin:miter;stroke-miterlimit:4;stroke-dasharray:none;stroke-dashoffset:0;stroke-opacity:1"
       id="path1117-3-5-6-2-9-9-1-7-1-9-8-5"
       cx="786.9527"
       cy="-566.13086"
       r="2.8486927"
       transform="scale(1,-1)" /><rect
       style="display:inline;opacity:1;vector-effect:none;fill:#fffff9;fill-opacity:1;stroke:#ffffff;stroke-width:0.48817474;stroke-linecap:butt;stroke-linejoin:miter;stroke-miterlimit:4;stroke-dasharray:none;stroke-dashoffset:0;stroke-opacity:1"
       id="rect1813-9"
       width="356.90073"
       height="2.7506278"
       x="437.30692"
       y="-562.2229"
       transform="scale(1,-1)" /></g></svg>