<?xml version="1.0" encoding="UTF-8" standalone="no"?>
<!-- Created with Inkscape (http://www.inkscape.org/) -->

<svg
   xmlns:dc="http://purl.org/dc/elements/1.1/"
   xmlns:cc="http://creativecommons.org/ns#"
   xmlns:rdf="http://www.w3.org/1999/02/22-rdf-syntax-ns#"
   xmlns:svg="http://www.w3.org/2000/svg"
   xmlns="http://www.w3.org/2000/svg"
   xmlns:sodipodi="http://sodipodi.sourceforge.net/DTD/sodipodi-0.dtd"
   xmlns:inkscape="http://www.inkscape.org/namespaces/inkscape"
   version="1.1"
   id="svg5443"
   xml:space="preserve"
   width="477.39999"
   height="333.39999"
   viewBox="0 0 477.39999 333.39999"
   sodipodi:docname="switch-layerl2.ai.svg"
   inkscape:version="0.92.1 r15371"><metadata
     id="metadata5449"><rdf:RDF><cc:Work
         rdf:about=""><dc:format>image/svg+xml</dc:format><dc:type
           rdf:resource="http://purl.org/dc/dcmitype/StillImage" /><dc:title /></cc:Work></rdf:RDF></metadata><defs
     id="defs5447"><clipPath
       clipPathUnits="userSpaceOnUse"
       id="clipPath5459"><path
         d="M 0,250.05 H 358.05 V 0 H 0 Z"
         id="path5457"
         inkscape:connector-curvature="0" /></clipPath><clipPath
       clipPathUnits="userSpaceOnUse"
       id="clipPath5603"><path
         d="M 0,250.05 H 358.05 V 0 H 0 Z"
         id="path5601"
         inkscape:connector-curvature="0" /></clipPath></defs><sodipodi:namedview
     pagecolor="#ffffff"
     bordercolor="#666666"
     borderopacity="1"
     objecttolerance="10"
     gridtolerance="10"
     guidetolerance="10"
     inkscape:pageopacity="0"
     inkscape:pageshadow="2"
     inkscape:window-width="1920"
     inkscape:window-height="1151"
     id="namedview5445"
     showgrid="false"
     showguides="true"
     inkscape:guide-bbox="true"
     inkscape:zoom="6.06"
     inkscape:cx="81.674875"
     inkscape:cy="142.72903"
     inkscape:window-x="0"
     inkscape:window-y="25"
     inkscape:window-maximized="1"
     inkscape:current-layer="g5451"
     inkscape:measure-start="-0.0833333,300.917"
     inkscape:measure-end="0.0833337,320.417"><sodipodi:guide
       position="32.5,159.83333"
       orientation="1,0"
       id="guide5613"
       inkscape:locked="false" /><sodipodi:guide
       position="84.833333,162.33333"
       orientation="1,0"
       id="guide5615"
       inkscape:locked="false" /><sodipodi:guide
       position="64.999999,300.91666"
       orientation="0,1"
       id="guide5617"
       inkscape:locked="false" /><sodipodi:guide
       position="104.58333,312.16666"
       orientation="1,0"
       id="guide5619"
       inkscape:locked="false" /><sodipodi:guide
       position="156.83333,311.5"
       orientation="1,0"
       id="guide5621"
       inkscape:locked="false" /><sodipodi:guide
       position="176.5,309.5"
       orientation="1,0"
       id="guide5623"
       inkscape:locked="false" /><sodipodi:guide
       position="97.666666,248.58333"
       orientation="0,1"
       id="guide5627"
       inkscape:locked="false" /><sodipodi:guide
       position="228.83333,265.08333"
       orientation="1,0"
       id="guide5631"
       inkscape:locked="false" /><sodipodi:guide
       position="248.5,265.83333"
       orientation="1,0"
       id="guide5633"
       inkscape:locked="false" /><sodipodi:guide
       position="300.83333,256.75"
       orientation="1,0"
       id="guide5635"
       inkscape:locked="false" /><sodipodi:guide
       position="320.5,259"
       orientation="1,0"
       id="guide5637"
       inkscape:locked="false" /><sodipodi:guide
       position="372.83333,262.91666"
       orientation="1,0"
       id="guide5639"
       inkscape:locked="false" /><sodipodi:guide
       position="392.5,267.58333"
       orientation="1,0"
       id="guide5641"
       inkscape:locked="false" /><sodipodi:guide
       position="444.83333,261.91666"
       orientation="1,0"
       id="guide5643"
       inkscape:locked="false" /><sodipodi:guide
       position="439.33333,228.91666"
       orientation="0,1"
       id="guide5645"
       inkscape:locked="false" /><sodipodi:guide
       position="433.41666,176.58333"
       orientation="0,1"
       id="guide5647"
       inkscape:locked="false" /><sodipodi:guide
       position="438.25,156.91666"
       orientation="0,1"
       id="guide5649"
       inkscape:locked="false" /><sodipodi:guide
       position="439.25,104.58333"
       orientation="0,1"
       id="guide5651"
       inkscape:locked="false" /><sodipodi:guide
       position="437,84.916666"
       orientation="0,1"
       id="guide5653"
       inkscape:locked="false" /><sodipodi:guide
       position="440.83333,32.583333"
       orientation="0,1"
       id="guide5655"
       inkscape:locked="false" /><sodipodi:guide
       position="-70.749999,320.58333"
       orientation="0,1"
       id="guide6387"
       inkscape:locked="false" /></sodipodi:namedview><g
     id="g5451"
     inkscape:groupmode="layer"
     inkscape:label="switch-layer"
     transform="matrix(1.3333333,0,0,-1.3333333,0,333.4)"
     style="display:inline"><g
       id="g5453"
       style="stroke-width:0.75000002;stroke-miterlimit:4;stroke-dasharray:none"><g
         id="g5455"
         clip-path="url(#clipPath5459)"
         style="stroke-width:0.75000002;stroke-miterlimit:4;stroke-dasharray:none"><g
           id="g5461"
           transform="translate(5.6863,0.0142)"
           style="stroke-width:0.75000002;stroke-miterlimit:4;stroke-dasharray:none"><path
             d="m 0,0 -0.445,0.02 -0.442,0.051 -0.437,0.088 -0.431,0.119 -0.416,0.156 -0.403,0.184 -0.388,0.218 -0.372,0.247 -0.348,0.278 -0.329,0.3 -0.3,0.329 -0.278,0.349 -0.247,0.371 -0.218,0.388 -0.184,0.403 -0.156,0.416 -0.119,0.431 -0.088,0.437 -0.051,0.442 -0.02,0.442 0.003,238.68 0.017,0.445 0.051,0.443 0.088,0.436 0.119,0.431 0.156,0.417 0.184,0.402 0.218,0.389 0.247,0.371 0.278,0.349 0.3,0.328 0.329,0.301 0.348,0.278 0.372,0.246 0.388,0.218 0.403,0.185 0.416,0.156 0.431,0.119 0.437,0.088 0.442,0.051 0.445,0.019 346.677,-0.002 0.445,-0.017 0.442,-0.051 0.437,-0.088 0.431,-0.119 0.417,-0.156 0.402,-0.185 0.388,-0.218 0.372,-0.246 0.346,-0.278 0.331,-0.301 0.301,-0.328 0.277,-0.349 0.247,-0.371 0.218,-0.389 0.185,-0.402 0.155,-0.417 0.12,-0.431 0.087,-0.436 0.051,-0.443 0.02,-0.445 V 5.669 l -0.02,-0.442 -0.051,-0.442 -0.087,-0.437 -0.12,-0.431 -0.155,-0.416 -0.185,-0.403 -0.218,-0.388 -0.247,-0.371 -0.277,-0.349 -0.301,-0.329 -0.331,-0.3 -0.346,-0.278 -0.372,-0.247 -0.388,-0.218 -0.402,-0.184 -0.417,-0.156 -0.431,-0.119 -0.437,-0.088 -0.442,-0.051 -0.445,-0.017"
             style="fill:none;stroke:#3a53a4;stroke-width:0.75000002;stroke-linecap:butt;stroke-linejoin:miter;stroke-miterlimit:4;stroke-dasharray:none;stroke-opacity:1"
             id="path5463"
             inkscape:connector-curvature="0" /></g></g></g><g
       id="g5465"
       transform="translate(348.6104,11.3499)"
       style="stroke-width:0.75000002;stroke-miterlimit:4;stroke-dasharray:none"><path
         d="M 0,0 -0.831,-0.422 -1.488,-1.08 -1.911,-1.911 -2.058,-2.832 -1.911,-3.75 -1.488,-4.581 -0.831,-5.238 0,-5.661 0.918,-5.808 1.84,-5.661 2.67,-5.238 3.328,-4.581 3.75,-3.75 3.898,-2.832 3.75,-1.911 3.328,-1.08 2.67,-0.422 1.84,0 0.918,0.145 Z"
         style="fill:none;stroke:#3a53a4;stroke-width:0.75000002;stroke-linecap:butt;stroke-linejoin:miter;stroke-miterlimit:4;stroke-dasharray:none;stroke-opacity:1"
         id="path5467"
         inkscape:connector-curvature="0" /></g><g
       id="g5469"
       transform="translate(178.1065,11.3499)"
       style="stroke-width:0.75000002;stroke-miterlimit:4;stroke-dasharray:none"><path
         d="M 0,0 -0.831,-0.422 -1.488,-1.08 -1.913,-1.911 -2.058,-2.832 -1.913,-3.75 -1.488,-4.581 -0.831,-5.238 0,-5.661 0.918,-5.808 1.837,-5.661 2.667,-5.238 3.325,-4.581 3.75,-3.75 3.895,-2.832 3.75,-1.911 3.325,-1.08 2.667,-0.422 1.837,0 0.918,0.145 Z"
         style="fill:none;stroke:#3a53a4;stroke-width:0.75000002;stroke-linecap:butt;stroke-linejoin:miter;stroke-miterlimit:4;stroke-dasharray:none;stroke-opacity:1"
         id="path5471"
         inkscape:connector-curvature="0" /></g><g
       id="g5473"
       transform="translate(7.5997,11.3499)"
       style="stroke-width:0.75000002;stroke-miterlimit:4;stroke-dasharray:none"><path
         d="M 0,0 -0.831,-0.422 -1.488,-1.08 -1.911,-1.911 -2.058,-2.832 -1.911,-3.75 -1.488,-4.581 -0.831,-5.238 0,-5.661 0.921,-5.808 1.84,-5.661 2.67,-5.238 3.328,-4.581 3.75,-3.75 3.898,-2.832 3.75,-1.911 3.328,-1.08 2.67,-0.422 1.84,0 0.921,0.145 Z"
         style="fill:none;stroke:#3a53a4;stroke-width:0.75000002;stroke-linecap:butt;stroke-linejoin:miter;stroke-miterlimit:4;stroke-dasharray:none;stroke-opacity:1"
         id="path5475"
         inkscape:connector-curvature="0" /></g><g
       id="g5477"
       transform="translate(348.6104,127.8567)"
       style="stroke-width:0.75000002;stroke-miterlimit:4;stroke-dasharray:none"><path
         d="m 0,0 -0.831,-0.425 -0.657,-0.658 -0.423,-0.83 -0.147,-0.919 0.147,-0.918 0.423,-0.831 0.657,-0.657 L 0,-5.664 0.918,-5.808 1.84,-5.664 2.67,-5.238 3.328,-4.581 3.75,-3.75 3.898,-2.832 3.75,-1.913 3.328,-1.083 2.67,-0.425 1.84,0 0.918,0.145 Z"
         style="fill:none;stroke:#3a53a4;stroke-width:0.75000002;stroke-linecap:butt;stroke-linejoin:miter;stroke-miterlimit:4;stroke-dasharray:none;stroke-opacity:1"
         id="path5479"
         inkscape:connector-curvature="0" /></g><g
       id="g5481"
       transform="translate(7.5997,127.8567)"
       style="stroke-width:0.75000002;stroke-miterlimit:4;stroke-dasharray:none"><path
         d="m 0,0 -0.831,-0.425 -0.657,-0.658 -0.423,-0.83 -0.147,-0.919 0.147,-0.918 0.423,-0.831 0.657,-0.657 L 0,-5.664 0.921,-5.808 1.84,-5.664 2.67,-5.238 3.328,-4.581 3.75,-3.75 3.898,-2.832 3.75,-1.913 3.328,-1.083 2.67,-0.425 1.84,0 0.921,0.145 Z"
         style="fill:none;stroke:#3a53a4;stroke-width:0.75000002;stroke-linecap:butt;stroke-linejoin:miter;stroke-miterlimit:4;stroke-dasharray:none;stroke-opacity:1"
         id="path5483"
         inkscape:connector-curvature="0" /></g><g
       id="g5485"
       transform="translate(348.6104,244.3606)"
       style="stroke-width:0.75000002;stroke-miterlimit:4;stroke-dasharray:none"><path
         d="M 0,0 -0.831,-0.422 -1.488,-1.08 -1.911,-1.911 -2.058,-2.832 -1.911,-3.75 -1.488,-4.581 -0.831,-5.238 0,-5.661 0.918,-5.808 1.84,-5.661 2.67,-5.238 3.328,-4.581 3.75,-3.75 3.898,-2.832 3.75,-1.911 3.328,-1.08 2.67,-0.422 1.84,0 0.918,0.145 Z"
         style="fill:none;stroke:#3a53a4;stroke-width:0.75000002;stroke-linecap:butt;stroke-linejoin:miter;stroke-miterlimit:4;stroke-dasharray:none;stroke-opacity:1"
         id="path5487"
         inkscape:connector-curvature="0" /></g><g
       id="g5489"
       transform="translate(7.5997,244.3606)"
       style="stroke-width:0.75000002;stroke-miterlimit:4;stroke-dasharray:none"><path
         d="M 0,0 -0.831,-0.422 -1.488,-1.08 -1.911,-1.911 -2.058,-2.832 -1.911,-3.75 -1.488,-4.581 -0.831,-5.238 0,-5.661 0.921,-5.808 1.84,-5.661 2.67,-5.238 3.328,-4.581 3.75,-3.75 3.898,-2.832 3.75,-1.911 3.328,-1.08 2.67,-0.422 1.84,0 0.921,0.145 Z"
         style="fill:none;stroke:#3a53a4;stroke-width:0.75000002;stroke-linecap:butt;stroke-linejoin:miter;stroke-miterlimit:4;stroke-dasharray:none;stroke-opacity:1"
         id="path5491"
         inkscape:connector-curvature="0" /></g><g
       id="g5493"
       transform="translate(246.1359,244.3606)"
       style="stroke-width:0.75000002;stroke-miterlimit:4;stroke-dasharray:none"><path
         d="M 0,0 -0.831,-0.422 -1.488,-1.08 -1.911,-1.911 -2.058,-2.832 -1.911,-3.75 -1.488,-4.581 -0.831,-5.238 0,-5.661 0.918,-5.808 1.84,-5.661 2.667,-5.238 3.328,-4.581 3.75,-3.75 3.895,-2.832 3.75,-1.911 3.328,-1.08 2.667,-0.422 1.84,0 0.918,0.145 Z"
         style="fill:none;stroke:#3a53a4;stroke-width:0.75000002;stroke-linecap:butt;stroke-linejoin:miter;stroke-miterlimit:4;stroke-dasharray:none;stroke-opacity:1"
         id="path5495"
         inkscape:connector-curvature="0" /></g><g
       id="g5497"
       transform="translate(159.7781,244.3606)"
       style="stroke-width:0.75000002;stroke-miterlimit:4;stroke-dasharray:none"><path
         d="M 0,0 -0.831,-0.422 -1.488,-1.08 -1.911,-1.911 -2.058,-2.832 -1.911,-3.75 -1.488,-4.581 -0.831,-5.238 0,-5.661 0.918,-5.808 1.84,-5.661 2.667,-5.238 3.328,-4.581 3.75,-3.75 3.895,-2.832 3.75,-1.911 3.328,-1.08 2.667,-0.422 1.84,0 0.918,0.145 Z"
         style="fill:none;stroke:#3a53a4;stroke-width:0.75000002;stroke-linecap:butt;stroke-linejoin:miter;stroke-miterlimit:4;stroke-dasharray:none;stroke-opacity:1"
         id="path5499"
         inkscape:connector-curvature="0" /></g><g
       id="g5597"
       style="stroke-width:0.75000002;stroke-miterlimit:4;stroke-dasharray:none"><g
         id="g5599"
         clip-path="url(#clipPath5603)"
         style="stroke-width:0.75000002;stroke-miterlimit:4;stroke-dasharray:none"><g
           id="g5605"
           transform="translate(5.6863,0.0142)"
           style="stroke-width:0.75000002;stroke-miterlimit:4;stroke-dasharray:none"><path
             d="M 0,0 346.677,0.003"
             style="fill:none;stroke:#3a53a4;stroke-width:0.75000002;stroke-linecap:butt;stroke-linejoin:miter;stroke-miterlimit:4;stroke-dasharray:none;stroke-opacity:1"
             id="path5607"
             inkscape:connector-curvature="0" /></g></g></g><path
       style="fill:none;stroke:#f70000;stroke-width:0.75000002;stroke-linecap:butt;stroke-linejoin:miter;stroke-miterlimit:4;stroke-dasharray:none;stroke-opacity:1"
       d="M 26.393573,225.68751 H 61.60643 v -1.6875 h 2.018572 v -35.875 H 61.60643 v -1.6875 H 26.393573 v 1.6875 h -2.018572 v 35.875 h 2.018572 z"
       id="path5657"
       inkscape:connector-curvature="0" /><path
       style="fill:none;stroke:#f70000;stroke-width:0.75000002;stroke-linecap:butt;stroke-linejoin:miter;stroke-miterlimit:4;stroke-dasharray:none;stroke-opacity:1"
       d="m 80.393573,225.68751 h 35.212857 v -1.6875 h 2.01857 v -35.875 h -2.01857 v -1.6875 H 80.393573 v 1.6875 h -2.018572 v 35.875 h 2.018572 z"
       id="path5657-1"
       inkscape:connector-curvature="0" /><path
       style="fill:none;stroke:#f70000;stroke-width:0.75000002;stroke-linecap:butt;stroke-linejoin:miter;stroke-miterlimit:4;stroke-dasharray:none;stroke-opacity:1"
       d="m 134.39357,225.68751 h 35.21286 v -1.6875 h 2.01857 v -35.875 h -2.01857 v -1.6875 h -35.21286 v 1.6875 H 132.375 v 35.875 h 2.01857 z"
       id="path5657-1-4"
       inkscape:connector-curvature="0" /><path
       style="fill:none;stroke:#f70000;stroke-width:0.75000002;stroke-linecap:butt;stroke-linejoin:miter;stroke-miterlimit:4;stroke-dasharray:none;stroke-opacity:1"
       d="m 188.39358,225.68751 h 35.21286 v -1.6875 h 2.01857 v -35.875 h -2.01857 v -1.6875 h -35.21286 v 1.6875 h -2.01857 v 35.875 h 2.01857 z"
       id="path5657-1-4-9"
       inkscape:connector-curvature="0" /><path
       style="fill:none;stroke:#f70000;stroke-width:0.75000002;stroke-linecap:butt;stroke-linejoin:miter;stroke-miterlimit:4;stroke-dasharray:none;stroke-opacity:1"
       d="m 242.39358,225.68751 h 35.21286 v -1.6875 h 2.01857 v -35.875 h -2.01857 v -1.6875 h -35.21286 v 1.6875 h -2.01857 v 35.875 h 2.01857 z"
       id="path5657-1-4-9-2"
       inkscape:connector-curvature="0" /><path
       style="fill:none;stroke:#f70000;stroke-width:0.75000002;stroke-linecap:butt;stroke-linejoin:miter;stroke-miterlimit:4;stroke-dasharray:none;stroke-opacity:1"
       d="m 296.39358,225.68751 h 35.21286 v -1.6875 h 2.01857 v -35.875 h -2.01857 v -1.6875 h -35.21286 v 1.6875 h -2.01857 v 35.875 h 2.01857 z"
       id="path5657-1-4-9-2-0"
       inkscape:connector-curvature="0" /><path
       style="fill:none;stroke:#f70000;stroke-width:0.75000002;stroke-linecap:butt;stroke-linejoin:miter;stroke-miterlimit:4;stroke-dasharray:none;stroke-opacity:1"
       d="m 26.414964,171.6427 h 35.21285 v -1.6875 h 2.01857 v -35.875 h -2.01857 v -1.6875 h -35.21285 v 1.6875 h -2.01857 v 35.875 h 2.01857 z"
       id="path5657-6"
       inkscape:connector-curvature="0" /><path
       style="fill:none;stroke:#f70000;stroke-width:0.75000002;stroke-linecap:butt;stroke-linejoin:miter;stroke-miterlimit:4;stroke-dasharray:none;stroke-opacity:1"
       d="m 80.414959,171.6427 h 35.212861 v -1.6875 h 2.01857 v -35.875 h -2.01857 v -1.6875 H 80.414959 v 1.6875 h -2.018572 v 35.875 h 2.018572 z"
       id="path5657-1-8"
       inkscape:connector-curvature="0" /><path
       style="fill:none;stroke:#f70000;stroke-width:0.75000002;stroke-linecap:butt;stroke-linejoin:miter;stroke-miterlimit:4;stroke-dasharray:none;stroke-opacity:1"
       d="m 188.41497,171.6427 h 35.21286 v -1.6875 h 2.01857 v -35.875 h -2.01857 v -1.6875 h -35.21286 v 1.6875 h -2.01857 v 35.875 h 2.01857 z"
       id="path5657-1-4-9-9"
       inkscape:connector-curvature="0" /><path
       style="fill:none;stroke:#f70000;stroke-width:0.75000002;stroke-linecap:butt;stroke-linejoin:miter;stroke-miterlimit:4;stroke-dasharray:none;stroke-opacity:1"
       d="m 242.41497,171.6427 h 35.21286 v -1.6875 h 2.01857 v -35.875 h -2.01857 v -1.6875 h -35.21286 v 1.6875 h -2.01857 v 35.875 h 2.01857 z"
       id="path5657-1-4-9-2-2"
       inkscape:connector-curvature="0" /><path
       style="fill:none;stroke:#f70000;stroke-width:0.75000002;stroke-linecap:butt;stroke-linejoin:miter;stroke-miterlimit:4;stroke-dasharray:none;stroke-opacity:1"
       d="m 296.41497,171.6427 h 35.21286 v -1.6875 h 2.01857 v -35.875 h -2.01857 v -1.6875 h -35.21286 v 1.6875 h -2.01857 v 35.875 h 2.01857 z"
       id="path5657-1-4-9-2-0-6"
       inkscape:connector-curvature="0" /><path
       style="fill:none;stroke:none;stroke-width:0.75000002;stroke-linecap:butt;stroke-linejoin:miter;stroke-miterlimit:4;stroke-dasharray:none;stroke-opacity:1"
       d="m 26.42497,117.6598 h 35.21286 v -1.6875 H 63.6564 V 80.0973 H 61.63783 V 78.4098 H 26.42497 v 1.6875 H 24.4064 v 35.875 h 2.01857 z"
       id="path5657-64"
       inkscape:connector-curvature="0" /><path
       style="fill:none;stroke:#f70000;stroke-width:0.75000002;stroke-linecap:butt;stroke-linejoin:miter;stroke-miterlimit:4;stroke-dasharray:none;stroke-opacity:1"
       d="m 80.42497,117.6598 h 35.21286 v -1.6875 h 2.01857 v -35.875 h -2.01857 V 78.4098 H 80.42497 v 1.6875 H 78.4064 v 35.875 h 2.01857 z"
       id="path5657-1-9"
       inkscape:connector-curvature="0" /><path
       style="fill:none;stroke:#f70000;stroke-width:0.75000002;stroke-linecap:butt;stroke-linejoin:miter;stroke-miterlimit:4;stroke-dasharray:none;stroke-opacity:1"
       d="m 134.42497,117.6598 h 35.21286 v -1.6875 h 2.01857 v -35.875 h -2.01857 v -1.6875 h -35.21286 v 1.6875 h -2.01857 v 35.875 h 2.01857 z"
       id="path5657-1-4-5"
       inkscape:connector-curvature="0" /><path
       style="fill:none;stroke:#f70000;stroke-width:0.75000002;stroke-linecap:butt;stroke-linejoin:miter;stroke-miterlimit:4;stroke-dasharray:none;stroke-opacity:1"
       d="m 188.42498,117.6598 h 35.21286 v -1.6875 h 2.01857 v -35.875 h -2.01857 v -1.6875 h -35.21286 v 1.6875 h -2.01857 v 35.875 h 2.01857 z"
       id="path5657-1-4-9-0"
       inkscape:connector-curvature="0" /><path
       style="fill:none;stroke:#f70000;stroke-width:0.75000002;stroke-linecap:butt;stroke-linejoin:miter;stroke-miterlimit:4;stroke-dasharray:none;stroke-opacity:1"
       d="m 242.42498,117.6598 h 35.21286 v -1.6875 h 2.01857 v -35.875 h -2.01857 v -1.6875 h -35.21286 v 1.6875 h -2.01857 v 35.875 h 2.01857 z"
       id="path5657-1-4-9-2-4"
       inkscape:connector-curvature="0" /><path
       style="fill:none;stroke:#f70000;stroke-width:0.75000002;stroke-linecap:butt;stroke-linejoin:miter;stroke-miterlimit:4;stroke-dasharray:none;stroke-opacity:1"
       d="m 296.42498,117.6598 h 35.21286 v -1.6875 h 2.01857 v -35.875 h -2.01857 v -1.6875 h -35.21286 v 1.6875 h -2.01857 v 35.875 h 2.01857 z"
       id="path5657-1-4-9-2-0-8"
       inkscape:connector-curvature="0" /><path
       style="fill:none;stroke:#f70000;stroke-width:0.75000002;stroke-linecap:butt;stroke-linejoin:miter;stroke-miterlimit:4;stroke-dasharray:none;stroke-opacity:1"
       d="m 26.44636,63.61499 h 35.21285 v -1.6875 h 2.01857 V 26.0525 H 61.65921 V 24.365 H 26.44636 v 1.6875 h -2.01857 v 35.87499 h 2.01857 z"
       id="path5657-6-7"
       inkscape:connector-curvature="0" /><path
       style="fill:none;stroke:#f70000;stroke-width:0.75000002;stroke-linecap:butt;stroke-linejoin:miter;stroke-miterlimit:4;stroke-dasharray:none;stroke-opacity:1"
       d="m 80.44636,63.61499 h 35.21286 v -1.6875 h 2.01857 V 26.0525 h -2.01857 V 24.365 H 80.44636 v 1.6875 h -2.01857 v 35.87499 h 2.01857 z"
       id="path5657-1-8-1"
       inkscape:connector-curvature="0" /><path
       style="fill:none;stroke:#f70000;stroke-width:0.75000002;stroke-linecap:butt;stroke-linejoin:miter;stroke-miterlimit:4;stroke-dasharray:none;stroke-opacity:1"
       d="m 188.44637,63.61499 h 35.21286 v -1.6875 h 2.01857 V 26.0525 h -2.01857 V 24.365 h -35.21286 v 1.6875 h -2.01857 v 35.87499 h 2.01857 z"
       id="path5657-1-4-9-9-7"
       inkscape:connector-curvature="0" /><path
       style="fill:none;stroke:#f70000;stroke-width:0.75000002;stroke-linecap:butt;stroke-linejoin:miter;stroke-miterlimit:4;stroke-dasharray:none;stroke-opacity:1"
       d="m 242.44637,63.61499 h 35.21286 v -1.6875 h 2.01857 V 26.0525 h -2.01857 V 24.365 h -35.21286 v 1.6875 h -2.01857 v 35.87499 h 2.01857 z"
       id="path5657-1-4-9-2-2-2"
       inkscape:connector-curvature="0" /><path
       style="fill:none;stroke:#f70000;stroke-width:0.75000002;stroke-linecap:butt;stroke-linejoin:miter;stroke-miterlimit:4;stroke-dasharray:none;stroke-opacity:1"
       d="m 296.44637,63.61499 h 35.21286 v -1.6875 h 2.01857 V 26.0525 h -2.01857 V 24.365 h -35.21286 v 1.6875 h -2.01857 v 35.87499 h 2.01857 z"
       id="path5657-1-4-9-2-0-6-7"
       inkscape:connector-curvature="0" /><path
       style="fill:none;stroke:#f70000;stroke-width:0.75000002;stroke-linecap:butt;stroke-linejoin:miter;stroke-miterlimit:4;stroke-dasharray:none;stroke-opacity:1"
       d="m 26.37218,279.73232 h 35.21286 v -1.6875 h 2.01857 v -35.875 h -2.01857 v -1.6875 H 26.37218 v 1.6875 h -2.01857 v 35.875 h 2.01857 z"
       id="path5657-10"
       inkscape:connector-curvature="0" /><path
       style="fill:none;stroke:#f70000;stroke-width:0.75000002;stroke-linecap:butt;stroke-linejoin:miter;stroke-miterlimit:4;stroke-dasharray:none;stroke-opacity:1"
       d="m 80.37218,279.73232 h 35.21286 v -1.6875 h 2.01857 v -35.875 h -2.01857 v -1.6875 H 80.37218 v 1.6875 h -2.01857 v 35.875 h 2.01857 z"
       id="path5657-1-6"
       inkscape:connector-curvature="0" /><path
       style="fill:none;stroke:#f70000;stroke-width:0.75000002;stroke-linecap:butt;stroke-linejoin:miter;stroke-miterlimit:4;stroke-dasharray:none;stroke-opacity:1"
       d="m 134.37218,279.73232 h 35.21286 v -1.6875 h 2.01857 v -35.875 h -2.01857 v -1.6875 h -35.21286 v 1.6875 h -2.01857 v 35.875 h 2.01857 z"
       id="path5657-1-4-1"
       inkscape:connector-curvature="0" /><path
       style="fill:none;stroke:#f70000;stroke-width:0.75000002;stroke-linecap:butt;stroke-linejoin:miter;stroke-miterlimit:4;stroke-dasharray:none;stroke-opacity:1"
       d="m 188.37219,279.73232 h 35.21286 v -1.6875 h 2.01857 v -35.875 h -2.01857 v -1.6875 h -35.21286 v 1.6875 h -2.01857 v 35.875 h 2.01857 z"
       id="path5657-1-4-9-5"
       inkscape:connector-curvature="0" /><path
       style="fill:none;stroke:#f70000;stroke-width:0.75000002;stroke-linecap:butt;stroke-linejoin:miter;stroke-miterlimit:4;stroke-dasharray:none;stroke-opacity:1"
       d="m 242.37219,279.73232 h 35.21286 v -1.6875 h 2.01857 v -35.875 h -2.01857 v -1.6875 h -35.21286 v 1.6875 h -2.01857 v 35.875 h 2.01857 z"
       id="path5657-1-4-9-2-9"
       inkscape:connector-curvature="0" /><path
       style="fill:none;stroke:#f70000;stroke-width:0.75000002;stroke-linecap:butt;stroke-linejoin:miter;stroke-miterlimit:4;stroke-dasharray:none;stroke-opacity:1"
       d="m 296.37219,279.73232 h 35.21286 v -1.6875 h 2.01857 v -35.875 h -2.01857 v -1.6875 h -35.21286 v 1.6875 h -2.01857 v 35.875 h 2.01857 z"
       id="path5657-1-4-9-2-0-4"
       inkscape:connector-curvature="0" /><path
       style="fill:none;stroke:#f70000;stroke-width:0.75000002;stroke-linecap:butt;stroke-linejoin:miter;stroke-miterlimit:4;stroke-dasharray:none;stroke-opacity:1"
       d="m 134.39357,63.687506 h 35.21286 v -1.6875 H 171.625 V 26.125017 h -2.01857 v -1.6875 h -35.21286 v 1.6875 H 132.375 v 35.874989 h 2.01857 z"
       id="path5657-1-4-9-9-7-1"
       inkscape:connector-curvature="0" /><path
       style="fill:none;stroke:#f70000;stroke-width:0.75000002;stroke-linecap:butt;stroke-linejoin:miter;stroke-miterlimit:4;stroke-dasharray:none;stroke-opacity:1"
       d="m 134.34357,171.68751 h 35.21286 v -1.6875 h 2.01857 v -35.87499 h -2.01857 v -1.6875 h -35.21286 v 1.6875 H 132.325 v 35.87499 h 2.01857 z"
       id="path5657-1-4-9-9-7-1-1"
       inkscape:connector-curvature="0" /><path
       style="display:inline;fill:none;stroke:#f70000;stroke-width:0.75;stroke-linecap:butt;stroke-linejoin:miter;stroke-miterlimit:4;stroke-dasharray:none;stroke-opacity:1"
       d="M 26.424973,117.6598 H 61.63783 v -1.6875 H 63.6564 V 80.0973 H 61.63783 V 78.4098 H 26.424973 v 1.6875 h -2.01857 v 35.875 h 2.01857 z"
       id="path5657-1-9-3"
       inkscape:connector-curvature="0" /></g></svg>