<?xml version="1.0" encoding="UTF-8" standalone="no"?>
<!-- Created with Inkscape (http://www.inkscape.org/) -->

<svg
   xmlns:dc="http://purl.org/dc/elements/1.1/"
   xmlns:cc="http://creativecommons.org/ns#"
   xmlns:rdf="http://www.w3.org/1999/02/22-rdf-syntax-ns#"
   xmlns:svg="http://www.w3.org/2000/svg"
   xmlns="http://www.w3.org/2000/svg"
   xmlns:sodipodi="http://sodipodi.sourceforge.net/DTD/sodipodi-0.dtd"
   xmlns:inkscape="http://www.inkscape.org/namespaces/inkscape"
   version="1.1"
   id="svg5443"
   xml:space="preserve"
   width="126.31208mm"
   height="88.212082mm"
   viewBox="0 0 477.39999 333.39999"
   sodipodi:docname="switch-layerl3.svg"
   inkscape:version="0.92.1 r15371"><metadata
     id="metadata5449"><rdf:RDF><cc:Work
         rdf:about=""><dc:format>image/svg+xml</dc:format><dc:type
           rdf:resource="http://purl.org/dc/dcmitype/StillImage" /><dc:title></dc:title></cc:Work></rdf:RDF></metadata><defs
     id="defs5447"><clipPath
       clipPathUnits="userSpaceOnUse"
       id="clipPath5459"><path
         d="M 0,250.05 H 358.05 V 0 H 0 Z"
         id="path5457"
         inkscape:connector-curvature="0" /></clipPath><clipPath
       clipPathUnits="userSpaceOnUse"
       id="clipPath5603"><path
         d="M 0,250.05 H 358.05 V 0 H 0 Z"
         id="path5601"
         inkscape:connector-curvature="0" /></clipPath></defs><sodipodi:namedview
     pagecolor="#ffffff"
     bordercolor="#666666"
     borderopacity="1"
     objecttolerance="10"
     gridtolerance="10"
     guidetolerance="1"
     inkscape:pageopacity="0"
     inkscape:pageshadow="2"
     inkscape:window-width="1920"
     inkscape:window-height="1151"
     id="namedview5445"
     showgrid="false"
     showguides="false"
     inkscape:guide-bbox="true"
     inkscape:zoom="3"
     inkscape:cx="769.28931"
     inkscape:cy="464.93334"
     inkscape:window-x="0"
     inkscape:window-y="25"
     inkscape:window-maximized="1"
     inkscape:current-layer="g5451"
     inkscape:measure-start="197.167,471"
     inkscape:measure-end="216.167,471"
     units="mm"><sodipodi:guide
       position="32.5,159.83333"
       orientation="1,0"
       id="guide5613"
       inkscape:locked="false" /><sodipodi:guide
       position="84.833333,162.33333"
       orientation="1,0"
       id="guide5615"
       inkscape:locked="false" /><sodipodi:guide
       position="64.999999,300.91666"
       orientation="0,1"
       id="guide5617"
       inkscape:locked="false" /><sodipodi:guide
       position="104.58333,312.16666"
       orientation="1,0"
       id="guide5619"
       inkscape:locked="false" /><sodipodi:guide
       position="156.83333,311.5"
       orientation="1,0"
       id="guide5621"
       inkscape:locked="false" /><sodipodi:guide
       position="176.5,309.5"
       orientation="1,0"
       id="guide5623"
       inkscape:locked="false" /><sodipodi:guide
       position="97.666666,248.58333"
       orientation="0,1"
       id="guide5627"
       inkscape:locked="false" /><sodipodi:guide
       position="228.83333,265.08333"
       orientation="1,0"
       id="guide5631"
       inkscape:locked="false" /><sodipodi:guide
       position="248.5,265.83333"
       orientation="1,0"
       id="guide5633"
       inkscape:locked="false" /><sodipodi:guide
       position="300.83333,256.75"
       orientation="1,0"
       id="guide5635"
       inkscape:locked="false" /><sodipodi:guide
       position="320.5,259"
       orientation="1,0"
       id="guide5637"
       inkscape:locked="false" /><sodipodi:guide
       position="372.83333,262.91666"
       orientation="1,0"
       id="guide5639"
       inkscape:locked="false" /><sodipodi:guide
       position="392.5,267.58333"
       orientation="1,0"
       id="guide5641"
       inkscape:locked="false" /><sodipodi:guide
       position="444.83333,261.91666"
       orientation="1,0"
       id="guide5643"
       inkscape:locked="false" /><sodipodi:guide
       position="439.33333,228.91666"
       orientation="0,1"
       id="guide5645"
       inkscape:locked="false" /><sodipodi:guide
       position="433.41666,176.58333"
       orientation="0,1"
       id="guide5647"
       inkscape:locked="false" /><sodipodi:guide
       position="438.25,156.91666"
       orientation="0,1"
       id="guide5649"
       inkscape:locked="false" /><sodipodi:guide
       position="439.25,104.58333"
       orientation="0,1"
       id="guide5651"
       inkscape:locked="false" /><sodipodi:guide
       position="437,84.916666"
       orientation="0,1"
       id="guide5653"
       inkscape:locked="false" /><sodipodi:guide
       position="440.83333,32.583333"
       orientation="0,1"
       id="guide5655"
       inkscape:locked="false" /><sodipodi:guide
       position="-70.749999,320.58333"
       orientation="0,1"
       id="guide6387"
       inkscape:locked="false" /><sodipodi:guide
       position="477.39726,338.66749"
       orientation="1,0"
       id="guide1064"
       inkscape:locked="false" /><sodipodi:guide
       position="499.80237,0.19762846"
       orientation="0,1"
       id="guide1066"
       inkscape:locked="false" /><sodipodi:guide
       position="-39.429612,82.569978"
       orientation="1,0"
       id="guide1105"
       inkscape:locked="false" /><sodipodi:guide
       position="12.84585,74.505928"
       orientation="1,0"
       id="guide1107"
       inkscape:locked="false" /><sodipodi:guide
       position="459.15317,372.97634"
       orientation="0,1"
       id="guide1109"
       inkscape:locked="false" /><sodipodi:guide
       position="461.58156,175.03113"
       orientation="1,0"
       id="guide1119"
       inkscape:locked="false" /><sodipodi:guide
       position="470.54794,179.14072"
       orientation="1,0"
       id="guide1121"
       inkscape:locked="false" /><sodipodi:guide
       position="465.62889,384.5579"
       orientation="0,1"
       id="guide1123"
       inkscape:locked="false" /><sodipodi:guide
       position="488.33333,16"
       orientation="0,1"
       id="guide1170"
       inkscape:locked="false" /><sodipodi:guide
       position="428.66666,7.6666666"
       orientation="0,1"
       id="guide1174"
       inkscape:locked="false" /><sodipodi:guide
       position="570.33333,363.5"
       orientation="1,0"
       id="guide1467"
       inkscape:locked="false" /><sodipodi:guide
       position="-46.666666,470.99999"
       orientation="0,1"
       id="guide1540"
       inkscape:locked="false" /><sodipodi:guide
       position="197.16667,477.66666"
       orientation="1,0"
       id="guide1542"
       inkscape:locked="false" /><sodipodi:guide
       position="489,454.49999"
       orientation="0,1"
       id="guide1544"
       inkscape:locked="false" /><sodipodi:guide
       position="216.83333,477.49999"
       orientation="1,0"
       id="guide1546"
       inkscape:locked="false" /><sodipodi:guide
       position="151.83333,464.99999"
       orientation="0,1"
       id="guide1595"
       inkscape:locked="false" /><sodipodi:guide
       position="37,857.33332"
       orientation="0,1"
       id="guide4646"
       inkscape:locked="false" /><sodipodi:guide
       position="-0.99999999,860.14582"
       orientation="1,0"
       id="guide4648"
       inkscape:locked="false" /><sodipodi:guide
       position="4.8333333,385.58333"
       orientation="0,1"
       id="guide4694"
       inkscape:locked="false" /><sodipodi:guide
       position="15.916667,386.83333"
       orientation="0,1"
       id="guide4698"
       inkscape:locked="false" /><sodipodi:guide
       position="1048.4167,328.41666"
       orientation="1,0"
       id="guide4750"
       inkscape:locked="false" /><sodipodi:guide
       position="1033.1667,314.83333"
       orientation="1,0"
       id="guide4752"
       inkscape:locked="false" /><sodipodi:guide
       position="1041.0833,308.41666"
       orientation="1,0"
       id="guide4754"
       inkscape:locked="false" /><sodipodi:guide
       position="4.5,871.24999"
       orientation="0,1"
       id="guide5630"
       inkscape:locked="false" /><sodipodi:guide
       position="571.66666,799.33332"
       orientation="0,1"
       inkscape:locked="false"
       id="guide5632" /></sodipodi:namedview><g
     id="g5451"
     inkscape:groupmode="layer"
     inkscape:label="switch-layer"
     transform="matrix(1.3333333,0,0,-1.3333333,0,333.4)"
     style="display:inline"><g
       id="g5936"><path
         inkscape:connector-curvature="0"
         id="path5657-0"
         d="m 454.39981,225.68752 h 35.21285 v -1.6875 h 2.01858 v -35.875 h -2.01858 v -1.6875 h -35.21285 v 1.6875 h -2.01857 v 35.875 h 2.01857 z"
         style="display:inline;fill:none;stroke:#ff0000;stroke-width:0.28346458;stroke-linecap:butt;stroke-linejoin:miter;stroke-miterlimit:4;stroke-dasharray:none;stroke-opacity:1" /><path
         inkscape:connector-curvature="0"
         id="path5657-1-61"
         d="m 508.3998,225.68752 h 35.21286 v -1.6875 h 2.01858 v -35.875 h -2.01858 v -1.6875 H 508.3998 v 1.6875 h -2.01857 v 35.875 h 2.01857 z"
         style="display:inline;fill:none;stroke:#ff0000;stroke-width:0.28346458;stroke-linecap:butt;stroke-linejoin:miter;stroke-miterlimit:4;stroke-dasharray:none;stroke-opacity:1" /><path
         inkscape:connector-curvature="0"
         id="path5657-1-4-55"
         d="m 562.3998,225.68752 h 35.21287 v -1.6875 h 2.01856 v -35.875 h -2.01856 v -1.6875 H 562.3998 v 1.6875 h -2.01857 v 35.875 h 2.01857 z"
         style="display:inline;fill:none;stroke:#ff0000;stroke-width:0.28346458;stroke-linecap:butt;stroke-linejoin:miter;stroke-miterlimit:4;stroke-dasharray:none;stroke-opacity:1" /><path
         inkscape:connector-curvature="0"
         id="path5657-1-4-9-4"
         d="m 616.39981,225.68752 h 35.21286 v -1.6875 h 2.01858 v -35.875 h -2.01858 v -1.6875 h -35.21286 v 1.6875 h -2.01857 v 35.875 h 2.01857 z"
         style="display:inline;fill:none;stroke:#ff0000;stroke-width:0.28346458;stroke-linecap:butt;stroke-linejoin:miter;stroke-miterlimit:4;stroke-dasharray:none;stroke-opacity:1" /><path
         inkscape:connector-curvature="0"
         id="path5657-1-4-9-2-7"
         d="m 670.39981,225.68752 h 35.21287 v -1.6875 h 2.01856 v -35.875 h -2.01856 v -1.6875 h -35.21287 v 1.6875 h -2.01857 v 35.875 h 2.01857 z"
         style="display:inline;fill:none;stroke:#ff0000;stroke-width:0.28346458;stroke-linecap:butt;stroke-linejoin:miter;stroke-miterlimit:4;stroke-dasharray:none;stroke-opacity:1" /><path
         inkscape:connector-curvature="0"
         id="path5657-1-4-9-2-0-65"
         d="m 724.39982,225.68752 h 35.21286 v -1.6875 h 2.01856 v -35.875 h -2.01856 v -1.6875 h -35.21286 v 1.6875 h -2.01858 v 35.875 h 2.01858 z"
         style="display:inline;fill:none;stroke:#ff0000;stroke-width:0.28346458;stroke-linecap:butt;stroke-linejoin:miter;stroke-miterlimit:4;stroke-dasharray:none;stroke-opacity:1" /><path
         inkscape:connector-curvature="0"
         id="path5657-6-6"
         d="m 454.4212,171.64271 h 35.21285 v -1.6875 h 2.01857 v -35.875 h -2.01857 v -1.6875 H 454.4212 v 1.6875 h -2.01857 v 35.875 h 2.01857 z"
         style="display:inline;fill:none;stroke:#ff0000;stroke-width:0.28346458;stroke-linecap:butt;stroke-linejoin:miter;stroke-miterlimit:4;stroke-dasharray:none;stroke-opacity:1" /><path
         inkscape:connector-curvature="0"
         id="path5657-1-8-9"
         d="m 508.42119,171.64271 h 35.21286 v -1.6875 h 2.01858 v -35.875 h -2.01858 v -1.6875 h -35.21286 v 1.6875 h -2.01857 v 35.875 h 2.01857 z"
         style="display:inline;fill:none;stroke:#ff0000;stroke-width:0.28346458;stroke-linecap:butt;stroke-linejoin:miter;stroke-miterlimit:4;stroke-dasharray:none;stroke-opacity:1" /><path
         inkscape:connector-curvature="0"
         id="path5657-1-4-9-9-3"
         d="m 616.4212,171.64271 h 35.21286 v -1.6875 h 2.01858 v -35.875 h -2.01858 v -1.6875 H 616.4212 v 1.6875 h -2.01857 v 35.875 h 2.01857 z"
         style="display:inline;fill:none;stroke:#ff0000;stroke-width:0.28346458;stroke-linecap:butt;stroke-linejoin:miter;stroke-miterlimit:4;stroke-dasharray:none;stroke-opacity:1" /><path
         inkscape:connector-curvature="0"
         id="path5657-1-4-9-2-2-7"
         d="m 670.4212,171.64271 h 35.21287 v -1.6875 h 2.01856 v -35.875 h -2.01856 v -1.6875 H 670.4212 v 1.6875 h -2.01857 v 35.875 h 2.01857 z"
         style="display:inline;fill:none;stroke:#ff0000;stroke-width:0.28346458;stroke-linecap:butt;stroke-linejoin:miter;stroke-miterlimit:4;stroke-dasharray:none;stroke-opacity:1" /><path
         inkscape:connector-curvature="0"
         id="path5657-1-4-9-2-0-6-4"
         d="m 724.42121,171.64271 h 35.21286 v -1.6875 h 2.01856 v -35.875 h -2.01856 v -1.6875 h -35.21286 v 1.6875 h -2.01858 v 35.875 h 2.01858 z"
         style="display:inline;fill:none;stroke:#ff0000;stroke-width:0.28346458;stroke-linecap:butt;stroke-linejoin:miter;stroke-miterlimit:4;stroke-dasharray:none;stroke-opacity:1" /><path
         inkscape:connector-curvature="0"
         id="path5657-1-9-2"
         d="m 508.43121,117.65981 h 35.21286 v -1.6875 h 2.01856 V 80.097308 h -2.01856 v -1.687501 h -35.21286 v 1.687501 h -2.01858 v 35.875002 h 2.01858 z"
         style="display:inline;fill:none;stroke:#ff0000;stroke-width:0.28346458;stroke-linecap:butt;stroke-linejoin:miter;stroke-miterlimit:4;stroke-dasharray:none;stroke-opacity:1" /><path
         inkscape:connector-curvature="0"
         id="path5657-1-4-5-5"
         d="m 562.43121,117.65981 h 35.21285 v -1.6875 h 2.01857 V 80.097308 h -2.01857 v -1.687501 h -35.21285 v 1.687501 h -2.01858 v 35.875002 h 2.01858 z"
         style="display:inline;fill:none;stroke:#ff0000;stroke-width:0.28346458;stroke-linecap:butt;stroke-linejoin:miter;stroke-miterlimit:4;stroke-dasharray:none;stroke-opacity:1" /><path
         inkscape:connector-curvature="0"
         id="path5657-1-4-9-0-4"
         d="m 616.43122,117.65981 h 35.21286 v -1.6875 h 2.01856 V 80.097308 h -2.01856 v -1.687501 h -35.21286 v 1.687501 h -2.01858 v 35.875002 h 2.01858 z"
         style="display:inline;fill:none;stroke:#ff0000;stroke-width:0.28346458;stroke-linecap:butt;stroke-linejoin:miter;stroke-miterlimit:4;stroke-dasharray:none;stroke-opacity:1" /><path
         inkscape:connector-curvature="0"
         id="path5657-1-4-9-2-4-7"
         d="m 670.43122,117.65981 h 35.21285 v -1.6875 h 2.01857 V 80.097308 h -2.01857 v -1.687501 h -35.21285 v 1.687501 h -2.01858 v 35.875002 h 2.01858 z"
         style="display:inline;fill:none;stroke:#ff0000;stroke-width:0.28346458;stroke-linecap:butt;stroke-linejoin:miter;stroke-miterlimit:4;stroke-dasharray:none;stroke-opacity:1" /><path
         inkscape:connector-curvature="0"
         id="path5657-1-4-9-2-0-8-4"
         d="m 724.43121,117.65981 h 35.21286 v -1.6875 h 2.01857 V 80.097308 h -2.01857 v -1.687501 h -35.21286 v 1.687501 h -2.01856 v 35.875002 h 2.01856 z"
         style="display:inline;fill:none;stroke:#ff0000;stroke-width:0.28346458;stroke-linecap:butt;stroke-linejoin:miter;stroke-miterlimit:4;stroke-dasharray:none;stroke-opacity:1" /><path
         inkscape:connector-curvature="0"
         id="path5657-6-7-4"
         d="m 454.4526,63.615 h 35.21284 v -1.6875 h 2.01857 V 26.052511 h -2.01857 v -1.6875 H 454.4526 v 1.6875 h -2.01858 V 61.9275 h 2.01858 z"
         style="display:inline;fill:none;stroke:#ff0000;stroke-width:0.28346458;stroke-linecap:butt;stroke-linejoin:miter;stroke-miterlimit:4;stroke-dasharray:none;stroke-opacity:1" /><path
         inkscape:connector-curvature="0"
         id="path5657-1-8-1-3"
         d="m 508.4526,63.615 h 35.21286 v -1.6875 h 2.01856 V 26.052511 h -2.01856 v -1.6875 H 508.4526 v 1.6875 h -2.01858 V 61.9275 h 2.01858 z"
         style="display:inline;fill:none;stroke:#ff0000;stroke-width:0.28346458;stroke-linecap:butt;stroke-linejoin:miter;stroke-miterlimit:4;stroke-dasharray:none;stroke-opacity:1" /><path
         inkscape:connector-curvature="0"
         id="path5657-1-4-9-9-7-0"
         d="m 616.45261,63.615 h 35.21286 v -1.6875 h 2.01856 V 26.052511 h -2.01856 v -1.6875 h -35.21286 v 1.6875 h -2.01858 V 61.9275 h 2.01858 z"
         style="display:inline;fill:none;stroke:#ff0000;stroke-width:0.28346458;stroke-linecap:butt;stroke-linejoin:miter;stroke-miterlimit:4;stroke-dasharray:none;stroke-opacity:1" /><path
         inkscape:connector-curvature="0"
         id="path5657-1-4-9-2-2-2-7"
         d="m 670.45261,63.615 h 35.21285 v -1.6875 h 2.01857 V 26.052511 h -2.01857 v -1.6875 h -35.21285 v 1.6875 h -2.01858 V 61.9275 h 2.01858 z"
         style="display:inline;fill:none;stroke:#ff0000;stroke-width:0.28346458;stroke-linecap:butt;stroke-linejoin:miter;stroke-miterlimit:4;stroke-dasharray:none;stroke-opacity:1" /><path
         inkscape:connector-curvature="0"
         id="path5657-1-4-9-9-7-1-14"
         d="m 562.3998,63.68751 h 35.21287 v -1.6875 h 2.01856 V 26.125021 h -2.01856 v -1.6875 H 562.3998 v 1.6875 h -2.01857 V 62.00001 h 2.01857 z"
         style="display:inline;fill:none;stroke:#ff0000;stroke-width:0.28346458;stroke-linecap:butt;stroke-linejoin:miter;stroke-miterlimit:4;stroke-dasharray:none;stroke-opacity:1" /><path
         inkscape:connector-curvature="0"
         id="path5657-1-4-9-9-7-1-1-9"
         d="m 562.3498,171.68752 h 35.21286 v -1.68749 h 2.01858 v -35.875 h -2.01858 v -1.6875 H 562.3498 v 1.6875 h -2.01856 v 35.875 h 2.01856 z"
         style="display:inline;fill:none;stroke:#ff0000;stroke-width:0.28346458;stroke-linecap:butt;stroke-linejoin:miter;stroke-miterlimit:4;stroke-dasharray:none;stroke-opacity:1" /><path
         inkscape:connector-curvature="0"
         id="path5657-1-9-3-2"
         d="m 454.43121,117.65981 h 35.21286 v -1.6875 h 2.01856 V 80.097308 h -2.01856 v -1.687501 h -35.21286 v 1.687501 h -2.01857 v 35.875002 h 2.01857 z"
         style="display:inline;fill:none;stroke:#ff0000;stroke-width:0.28346458;stroke-linecap:butt;stroke-linejoin:miter;stroke-miterlimit:4;stroke-dasharray:none;stroke-opacity:1" /><path
         sodipodi:nodetypes="ccccccccscc"
         id="path4501-0"
         inkscape:connector-curvature="0"
         d="m 375.83835,80.150798 51.91166,154.224212 h 358.56254 l 0.0277,-167.964145 c 0,0 0.68676,-4.18543 -5.46765,-10.034753 -5.59189,-5.536905 -55.24377,-50.3966024 -55.24377,-50.3966024 0,0 -4.66003,-5.65778005 -17.37204,-5.49043005 -9.1495,-0.0202 -326.06549,-0.71822015 -326.06549,-0.71822015 0,0 -6.06194,0.16612 -6.18792,5.4385502 -0.12598,5.2724304 -0.16507,74.9413884 -0.16507,74.9413884 z"
         style="display:inline;fill:none;stroke:#ff0000;stroke-width:0.28346458;stroke-linecap:butt;stroke-linejoin:miter;stroke-miterlimit:4;stroke-dasharray:none;stroke-opacity:1;image-rendering:auto" /><path
         inkscape:connector-curvature="0"
         id="path5657-6-7-6-6"
         d="m 400.4526,63.615 h 35.21285 v -1.6875 h 2.01857 V 26.052511 h -2.01857 v -1.6875 H 400.4526 v 1.6875 h -2.01857 V 61.9275 h 2.01857 z"
         style="display:inline;fill:none;stroke:#ff0000;stroke-width:0.28346458;stroke-linecap:butt;stroke-linejoin:miter;stroke-miterlimit:4;stroke-dasharray:none;stroke-opacity:1" /><circle
         transform="scale(1,-1)"
         r="2.8486927"
         cy="-222.61777"
         cx="777.88312"
         id="path1117-8"
         style="display:inline;fill:none;stroke:#ff0000;stroke-width:0.28346458;stroke-miterlimit:4;stroke-dasharray:none;stroke-opacity:1" /><circle
         transform="scale(1,-1)"
         r="2.8486927"
         cy="-125.06179"
         cx="777.82373"
         id="path1117-3-2"
         style="display:inline;fill:none;stroke:#ff0000;stroke-width:0.28346458;stroke-miterlimit:4;stroke-dasharray:none;stroke-opacity:1" /><circle
         transform="scale(1,-1)"
         r="2.8486927"
         cy="-8.6250181"
         cx="714.94452"
         id="path1117-3-5-66"
         style="display:inline;fill:none;stroke:#ff0000;stroke-width:0.28346458;stroke-miterlimit:4;stroke-dasharray:none;stroke-opacity:1" /><circle
         transform="scale(1,-1)"
         r="2.8486927"
         cy="-8.7500029"
         cx="552.94446"
         id="path1117-3-5-6-4"
         style="display:inline;fill:none;stroke:#ff0000;stroke-width:0.28346458;stroke-miterlimit:4;stroke-dasharray:none;stroke-opacity:1" /><circle
         transform="scale(1,-1)"
         r="2.8486927"
         cy="-8.8433867"
         cx="385.62396"
         id="path1117-3-5-6-2-95"
         style="display:inline;fill:none;stroke:#ff0000;stroke-width:0.28346458;stroke-miterlimit:4;stroke-dasharray:none;stroke-opacity:1" /><circle
         transform="scale(1,-1)"
         r="2.8486927"
         cy="-222.375"
         cx="434.56946"
         id="path1117-3-5-6-2-9-0"
         style="display:inline;fill:none;stroke:#ff0000;stroke-width:0.28346458;stroke-miterlimit:4;stroke-dasharray:none;stroke-opacity:1" /><circle
         transform="scale(1,-1)"
         r="2.8486927"
         cy="-124.75001"
         cx="400.56946"
         id="path1117-3-5-6-2-1-4"
         style="display:inline;fill:none;stroke:#ff0000;stroke-width:0.28346458;stroke-miterlimit:4;stroke-dasharray:none;stroke-opacity:1" /><path
         sodipodi:nodetypes="ccscccccc"
         inkscape:connector-curvature="0"
         id="path1536-9"
         d="m 427.82904,235.1809 -0.0625,58.63022 c 0,0 -0.17675,5.32175 4.55595,5.32636 l 128.36561,0.12499 c 8.94093,0 10.5,-3.75001 30.25,-12.375 18.85284,0.47973 168.65849,5e-4 189.81271,0.007 5.89951,0 5.61025,-0.69197 5.61025,-5.69432 -3e-5,-14.27735 0.11952,-46.00018 0.11952,-46.00018 z"
         style="display:inline;fill:none;stroke:#ff0000;stroke-width:0.28346458;stroke-linecap:butt;stroke-linejoin:miter;stroke-miterlimit:4;stroke-dasharray:none;stroke-opacity:1" /><circle
         transform="scale(1,-1)"
         r="2.8486927"
         cy="-239.19995"
         cx="434.93811"
         id="path1117-3-5-6-2-9-9-12"
         style="display:inline;fill:none;stroke:#ff0000;stroke-width:0.28346458;stroke-miterlimit:4;stroke-dasharray:none;stroke-opacity:1" /><circle
         transform="scale(1,-1)"
         r="2.8486927"
         cy="-291.76245"
         cx="434.93811"
         id="path1117-3-5-6-2-9-9-1-70"
         style="display:inline;fill:none;stroke:#ff0000;stroke-width:0.28346458;stroke-miterlimit:4;stroke-dasharray:none;stroke-opacity:1" /><circle
         transform="scale(1,-1)"
         r="2.8486927"
         cy="-291.76245"
         cx="563.68811"
         id="path1117-3-5-6-2-9-9-1-7-9"
         style="display:inline;fill:none;stroke:#ff0000;stroke-width:0.28346458;stroke-miterlimit:4;stroke-dasharray:none;stroke-opacity:1" /><circle
         transform="scale(1,-1)"
         r="2.8486927"
         cy="-281.63745"
         cx="777.93811"
         id="path1117-3-5-6-2-9-9-1-7-1-3"
         style="display:inline;opacity:1;vector-effect:none;fill:none;fill-opacity:1;stroke:#ff0000;stroke-width:0.28346458;stroke-linecap:butt;stroke-linejoin:miter;stroke-miterlimit:4;stroke-dasharray:none;stroke-dashoffset:0;stroke-opacity:1" /><circle
         transform="scale(1,-1)"
         r="2.8486927"
         cy="-239.13745"
         cx="777.87561"
         id="path1117-3-5-6-2-9-9-1-7-1-9-6"
         style="display:inline;opacity:1;vector-effect:none;fill:none;fill-opacity:1;stroke:#ff0000;stroke-width:0.28346458;stroke-linecap:butt;stroke-linejoin:miter;stroke-miterlimit:4;stroke-dasharray:none;stroke-dashoffset:0;stroke-opacity:1" /></g><g
       id="g5896"><path
         inkscape:connector-curvature="0"
         id="path5657"
         d="m 26.455352,225.68751 h 35.212857 v -1.6875 h 2.018572 v -35.875 h -2.018572 v -1.6875 H 26.455352 v 1.6875 H 24.43678 v 35.875 h 2.018572 z"
         style="fill:none;stroke:#ff0000;stroke-width:0.28346458;stroke-linecap:butt;stroke-linejoin:miter;stroke-miterlimit:4;stroke-dasharray:none;stroke-opacity:1" /><path
         inkscape:connector-curvature="0"
         id="path5657-1"
         d="m 80.455352,225.68751 h 35.212858 v -1.6875 h 2.01857 v -35.875 h -2.01857 v -1.6875 H 80.455352 v 1.6875 H 78.43678 v 35.875 h 2.018572 z"
         style="fill:none;stroke:#ff0000;stroke-width:0.28346458;stroke-linecap:butt;stroke-linejoin:miter;stroke-miterlimit:4;stroke-dasharray:none;stroke-opacity:1" /><path
         inkscape:connector-curvature="0"
         id="path5657-1-4"
         d="m 134.45535,225.68751 h 35.21286 v -1.6875 h 2.01857 v -35.875 h -2.01857 v -1.6875 h -35.21286 v 1.6875 h -2.01857 v 35.875 h 2.01857 z"
         style="fill:none;stroke:#ff0000;stroke-width:0.28346458;stroke-linecap:butt;stroke-linejoin:miter;stroke-miterlimit:4;stroke-dasharray:none;stroke-opacity:1" /><path
         inkscape:connector-curvature="0"
         id="path5657-1-4-9"
         d="m 188.45536,225.68751 h 35.21286 v -1.6875 h 2.01857 v -35.875 h -2.01857 v -1.6875 h -35.21286 v 1.6875 h -2.01857 v 35.875 h 2.01857 z"
         style="fill:none;stroke:#ff0000;stroke-width:0.28346458;stroke-linecap:butt;stroke-linejoin:miter;stroke-miterlimit:4;stroke-dasharray:none;stroke-opacity:1" /><path
         inkscape:connector-curvature="0"
         id="path5657-1-4-9-2"
         d="m 242.45536,225.68751 h 35.21286 v -1.6875 h 2.01857 v -35.875 h -2.01857 v -1.6875 h -35.21286 v 1.6875 h -2.01857 v 35.875 h 2.01857 z"
         style="fill:none;stroke:#ff0000;stroke-width:0.28346458;stroke-linecap:butt;stroke-linejoin:miter;stroke-miterlimit:4;stroke-dasharray:none;stroke-opacity:1" /><path
         inkscape:connector-curvature="0"
         id="path5657-1-4-9-2-0"
         d="m 296.45536,225.68751 h 35.21286 v -1.6875 h 2.01857 v -35.875 h -2.01857 v -1.6875 h -35.21286 v 1.6875 h -2.01857 v 35.875 h 2.01857 z"
         style="fill:none;stroke:#ff0000;stroke-width:0.28346458;stroke-linecap:butt;stroke-linejoin:miter;stroke-miterlimit:4;stroke-dasharray:none;stroke-opacity:1" /><path
         inkscape:connector-curvature="0"
         id="path5657-6"
         d="m 26.476743,171.6427 h 35.21285 v -1.6875 h 2.01857 v -35.875 h -2.01857 v -1.6875 h -35.21285 v 1.6875 h -2.01857 v 35.875 h 2.01857 z"
         style="fill:none;stroke:#ff0000;stroke-width:0.28346458;stroke-linecap:butt;stroke-linejoin:miter;stroke-miterlimit:4;stroke-dasharray:none;stroke-opacity:1" /><path
         inkscape:connector-curvature="0"
         id="path5657-1-8"
         d="M 80.476738,171.6427 H 115.6896 v -1.6875 h 2.01857 v -35.875 h -2.01857 v -1.6875 H 80.476738 v 1.6875 h -2.018572 v 35.875 h 2.018572 z"
         style="fill:none;stroke:#ff0000;stroke-width:0.28346458;stroke-linecap:butt;stroke-linejoin:miter;stroke-miterlimit:4;stroke-dasharray:none;stroke-opacity:1" /><path
         inkscape:connector-curvature="0"
         id="path5657-1-4-9-9"
         d="m 188.47675,171.6427 h 35.21286 v -1.6875 h 2.01857 v -35.875 h -2.01857 v -1.6875 h -35.21286 v 1.6875 h -2.01857 v 35.875 h 2.01857 z"
         style="fill:none;stroke:#ff0000;stroke-width:0.28346458;stroke-linecap:butt;stroke-linejoin:miter;stroke-miterlimit:4;stroke-dasharray:none;stroke-opacity:1" /><path
         inkscape:connector-curvature="0"
         id="path5657-1-4-9-2-2"
         d="m 242.47675,171.6427 h 35.21286 v -1.6875 h 2.01857 v -35.875 h -2.01857 v -1.6875 h -35.21286 v 1.6875 h -2.01857 v 35.875 h 2.01857 z"
         style="fill:none;stroke:#ff0000;stroke-width:0.28346458;stroke-linecap:butt;stroke-linejoin:miter;stroke-miterlimit:4;stroke-dasharray:none;stroke-opacity:1" /><path
         inkscape:connector-curvature="0"
         id="path5657-1-4-9-2-0-6"
         d="m 296.47675,171.6427 h 35.21286 v -1.6875 h 2.01857 v -35.875 h -2.01857 v -1.6875 h -35.21286 v 1.6875 h -2.01857 v 35.875 h 2.01857 z"
         style="fill:none;stroke:#ff0000;stroke-width:0.28346458;stroke-linecap:butt;stroke-linejoin:miter;stroke-miterlimit:4;stroke-dasharray:none;stroke-opacity:1" /><path
         inkscape:connector-curvature="0"
         id="path5657-1-9"
         d="m 80.486749,117.6598 h 35.212861 v -1.6875 h 2.01857 v -35.875 h -2.01857 V 78.4098 H 80.486749 v 1.6875 h -2.01857 v 35.875 h 2.01857 z"
         style="fill:none;stroke:#ff0000;stroke-width:0.28346458;stroke-linecap:butt;stroke-linejoin:miter;stroke-miterlimit:4;stroke-dasharray:none;stroke-opacity:1" /><path
         inkscape:connector-curvature="0"
         id="path5657-1-4-5"
         d="m 134.48675,117.6598 h 35.21286 v -1.6875 h 2.01857 v -35.875 h -2.01857 v -1.6875 h -35.21286 v 1.6875 h -2.01857 v 35.875 h 2.01857 z"
         style="fill:none;stroke:#ff0000;stroke-width:0.28346458;stroke-linecap:butt;stroke-linejoin:miter;stroke-miterlimit:4;stroke-dasharray:none;stroke-opacity:1" /><path
         inkscape:connector-curvature="0"
         id="path5657-1-4-9-0"
         d="m 188.48676,117.6598 h 35.21286 v -1.6875 h 2.01857 v -35.875 h -2.01857 v -1.6875 h -35.21286 v 1.6875 h -2.01857 v 35.875 h 2.01857 z"
         style="fill:none;stroke:#ff0000;stroke-width:0.28346458;stroke-linecap:butt;stroke-linejoin:miter;stroke-miterlimit:4;stroke-dasharray:none;stroke-opacity:1" /><path
         inkscape:connector-curvature="0"
         id="path5657-1-4-9-2-4"
         d="m 242.48676,117.6598 h 35.21286 v -1.6875 h 2.01857 v -35.875 h -2.01857 v -1.6875 h -35.21286 v 1.6875 h -2.01857 v 35.875 h 2.01857 z"
         style="fill:none;stroke:#ff0000;stroke-width:0.28346458;stroke-linecap:butt;stroke-linejoin:miter;stroke-miterlimit:4;stroke-dasharray:none;stroke-opacity:1" /><path
         inkscape:connector-curvature="0"
         id="path5657-1-4-9-2-0-8"
         d="m 296.48676,117.6598 h 35.21286 v -1.6875 h 2.01857 v -35.875 h -2.01857 v -1.6875 h -35.21286 v 1.6875 h -2.01857 v 35.875 h 2.01857 z"
         style="fill:none;stroke:#ff0000;stroke-width:0.28346458;stroke-linecap:butt;stroke-linejoin:miter;stroke-miterlimit:4;stroke-dasharray:none;stroke-opacity:1" /><path
         inkscape:connector-curvature="0"
         id="path5657-6-7"
         d="m 26.508139,63.61499 h 35.21285 v -1.6875 h 2.01857 V 26.0525 h -2.01857 V 24.365 h -35.21285 v 1.6875 h -2.01857 v 35.87499 h 2.01857 z"
         style="fill:none;stroke:#ff0000;stroke-width:0.28346458;stroke-linecap:butt;stroke-linejoin:miter;stroke-miterlimit:4;stroke-dasharray:none;stroke-opacity:1" /><path
         inkscape:connector-curvature="0"
         id="path5657-1-8-1"
         d="M 80.508139,63.61499 H 115.721 v -1.6875 h 2.01857 V 26.0525 H 115.721 V 24.365 H 80.508139 v 1.6875 h -2.01857 v 35.87499 h 2.01857 z"
         style="fill:none;stroke:#ff0000;stroke-width:0.28346458;stroke-linecap:butt;stroke-linejoin:miter;stroke-miterlimit:4;stroke-dasharray:none;stroke-opacity:1" /><path
         inkscape:connector-curvature="0"
         id="path5657-1-4-9-9-7"
         d="m 188.50815,63.61499 h 35.21286 v -1.6875 h 2.01857 V 26.0525 h -2.01857 V 24.365 h -35.21286 v 1.6875 h -2.01857 v 35.87499 h 2.01857 z"
         style="fill:none;stroke:#ff0000;stroke-width:0.28346458;stroke-linecap:butt;stroke-linejoin:miter;stroke-miterlimit:4;stroke-dasharray:none;stroke-opacity:1" /><path
         inkscape:connector-curvature="0"
         id="path5657-1-4-9-2-2-2"
         d="m 242.50815,63.61499 h 35.21286 v -1.6875 h 2.01857 V 26.0525 h -2.01857 V 24.365 h -35.21286 v 1.6875 h -2.01857 v 35.87499 h 2.01857 z"
         style="fill:none;stroke:#ff0000;stroke-width:0.28346458;stroke-linecap:butt;stroke-linejoin:miter;stroke-miterlimit:4;stroke-dasharray:none;stroke-opacity:1" /><path
         inkscape:connector-curvature="0"
         id="path5657-10"
         d="m 26.433959,279.73232 h 35.21286 v -1.6875 h 2.01857 v -35.875 h -2.01857 v -1.6875 h -35.21286 v 1.6875 h -2.01857 v 35.875 h 2.01857 z"
         style="fill:none;stroke:#ff0000;stroke-width:0.28346458;stroke-linecap:butt;stroke-linejoin:miter;stroke-miterlimit:4;stroke-dasharray:none;stroke-opacity:1" /><path
         inkscape:connector-curvature="0"
         id="path5657-1-6"
         d="m 80.433959,279.73232 h 35.212861 v -1.6875 h 2.01857 v -35.875 h -2.01857 v -1.6875 H 80.433959 v 1.6875 h -2.01857 v 35.875 h 2.01857 z"
         style="fill:none;stroke:#ff0000;stroke-width:0.28346458;stroke-linecap:butt;stroke-linejoin:miter;stroke-miterlimit:4;stroke-dasharray:none;stroke-opacity:1" /><path
         inkscape:connector-curvature="0"
         id="path5657-1-4-1"
         d="m 134.43396,279.73232 h 35.21286 v -1.6875 h 2.01857 v -35.875 h -2.01857 v -1.6875 h -35.21286 v 1.6875 h -2.01857 v 35.875 h 2.01857 z"
         style="fill:none;stroke:#ff0000;stroke-width:0.28346458;stroke-linecap:butt;stroke-linejoin:miter;stroke-miterlimit:4;stroke-dasharray:none;stroke-opacity:1" /><path
         inkscape:connector-curvature="0"
         id="path5657-1-4-9-5"
         d="m 188.43397,279.73232 h 35.21286 v -1.6875 h 2.01857 v -35.875 h -2.01857 v -1.6875 h -35.21286 v 1.6875 h -2.01857 v 35.875 h 2.01857 z"
         style="fill:none;stroke:#ff0000;stroke-width:0.28346458;stroke-linecap:butt;stroke-linejoin:miter;stroke-miterlimit:4;stroke-dasharray:none;stroke-opacity:1" /><path
         inkscape:connector-curvature="0"
         id="path5657-1-4-9-2-9"
         d="m 242.43397,279.73232 h 35.21286 v -1.6875 h 2.01857 v -35.875 h -2.01857 v -1.6875 h -35.21286 v 1.6875 h -2.01857 v 35.875 h 2.01857 z"
         style="fill:none;stroke:#ff0000;stroke-width:0.28346458;stroke-linecap:butt;stroke-linejoin:miter;stroke-miterlimit:4;stroke-dasharray:none;stroke-opacity:1" /><path
         inkscape:connector-curvature="0"
         id="path5657-1-4-9-9-7-1"
         d="m 134.45535,63.687506 h 35.21286 v -1.6875 h 2.01857 V 26.125017 h -2.01857 v -1.6875 h -35.21286 v 1.6875 h -2.01857 v 35.874989 h 2.01857 z"
         style="fill:none;stroke:#ff0000;stroke-width:0.28346458;stroke-linecap:butt;stroke-linejoin:miter;stroke-miterlimit:4;stroke-dasharray:none;stroke-opacity:1" /><path
         inkscape:connector-curvature="0"
         id="path5657-1-4-9-9-7-1-1"
         d="m 134.40535,171.68751 h 35.21286 v -1.6875 h 2.01857 v -35.87499 h -2.01857 v -1.6875 h -35.21286 v 1.6875 h -2.01857 v 35.87499 h 2.01857 z"
         style="fill:none;stroke:#ff0000;stroke-width:0.28346458;stroke-linecap:butt;stroke-linejoin:miter;stroke-miterlimit:4;stroke-dasharray:none;stroke-opacity:1" /><path
         sodipodi:nodetypes="ccccccscsc"
         id="path4501"
         inkscape:connector-curvature="0"
         d="M -52.106108,80.150795 -0.48406359,288.41844 H 358.22995 l -0.0841,-224.730934 c 0,0 0.71463,-1.899576 -5.21764,-7.311403 -5.5919,-5.5369 -55.24377,-50.3965907 -55.24377,-50.3965907 0,0 -4.47255,-5.46202797 -17.37204,-5.49044127 L -45.753112,-0.22914314 c 0,0 -6.061941,0.16611667 -6.187924,5.43854644 -0.125984,5.2724287 -0.165072,74.9413917 -0.165072,74.9413917 z"
         style="fill:none;stroke:#ff0000;stroke-width:0.28346458;stroke-linecap:butt;stroke-linejoin:miter;stroke-miterlimit:4;stroke-dasharray:none;stroke-opacity:1;image-rendering:auto" /><path
         inkscape:connector-curvature="0"
         id="path5657-6-7-6"
         d="M -27.491861,63.61499 H 7.7209892 v -1.6875 h 2.01857 V 26.0525 h -2.01857 V 24.365 H -27.491861 v 1.6875 h -2.01857 v 35.87499 h 2.01857 z"
         style="display:inline;fill:none;stroke:#ff0000;stroke-width:0.28346458;stroke-linecap:butt;stroke-linejoin:miter;stroke-miterlimit:4;stroke-dasharray:none;stroke-opacity:1" /><circle
         r="2.8486927"
         transform="scale(1,-1)"
         cy="-276.93027"
         cx="349.56363"
         id="path1117"
         style="fill:none;stroke:#ff0000;stroke-width:0.28346458;stroke-miterlimit:4;stroke-dasharray:none;stroke-opacity:1" /><circle
         transform="scale(1,-1)"
         r="2.8486927"
         cy="-125.06179"
         cx="349.56674"
         id="path1117-3"
         style="display:inline;fill:none;stroke:#ff0000;stroke-width:0.28346458;stroke-miterlimit:4;stroke-dasharray:none;stroke-opacity:1" /><circle
         r="2.8486927"
         transform="scale(1,-1)"
         cy="-8.6250057"
         cx="287"
         id="path1117-3-5"
         style="display:inline;fill:none;stroke:#ff0000;stroke-width:0.28346458;stroke-miterlimit:4;stroke-dasharray:none;stroke-opacity:1" /><circle
         transform="scale(1,-1)"
         r="2.8486927"
         cy="-8.7500048"
         cx="125"
         id="path1117-3-5-6"
         style="display:inline;fill:none;stroke:#ff0000;stroke-width:0.28346458;stroke-miterlimit:4;stroke-dasharray:none;stroke-opacity:1" /><circle
         transform="scale(1,-1)"
         r="2.8486927"
         cy="-8.8433828"
         cx="-42.320511"
         id="path1117-3-5-6-2"
         style="display:inline;fill:none;stroke:#ff0000;stroke-width:0.28346458;stroke-miterlimit:4;stroke-dasharray:none;stroke-opacity:1" /><circle
         transform="scale(1,-1)"
         r="2.8486927"
         cy="-276.75"
         cx="6.625"
         id="path1117-3-5-6-2-9"
         style="display:inline;fill:none;stroke:#ff0000;stroke-width:0.28346458;stroke-miterlimit:4;stroke-dasharray:none;stroke-opacity:1" /><path
         sodipodi:nodetypes="ccscccccc"
         inkscape:connector-curvature="0"
         id="path1536"
         d="m -0.48406359,289.16844 -0.0625,59.31772 c 0,0 -0.20343643,4.63435 4.43095129,4.63886 L 132.375,353.25001 c 8.94092,0 10.5,-3.75001 30.25,-12.375 18.85284,0.47973 168.65849,5e-4 189.8127,0.007 5.89952,0 5.61026,-0.69197 5.61026,-5.69432 -4e-5,-14.27735 0.11952,-46.00018 0.11952,-46.00018 z"
         style="fill:none;stroke:#ff0000;stroke-width:0.28346458;stroke-linecap:butt;stroke-linejoin:miter;stroke-miterlimit:4;stroke-dasharray:none;stroke-opacity:1" /><circle
         transform="scale(1,-1)"
         r="2.8486927"
         cy="-293.1875"
         cx="6.625"
         id="path1117-3-5-6-2-9-9"
         style="display:inline;fill:none;stroke:#ff0000;stroke-width:0.28346458;stroke-miterlimit:4;stroke-dasharray:none;stroke-opacity:1" /><circle
         transform="scale(1,-1)"
         r="2.8486927"
         cy="-345.75"
         cx="6.6249995"
         id="path1117-3-5-6-2-9-9-1"
         style="display:inline;fill:none;stroke:#ff0000;stroke-width:0.28346458;stroke-miterlimit:4;stroke-dasharray:none;stroke-opacity:1" /><circle
         transform="scale(1,-1)"
         r="2.8486927"
         cy="-345.75"
         cx="135.375"
         id="path1117-3-5-6-2-9-9-1-7"
         style="display:inline;fill:none;stroke:#ff0000;stroke-width:0.28346458;stroke-miterlimit:4;stroke-dasharray:none;stroke-opacity:1" /><circle
         r="2.8486927"
         transform="scale(1,-1)"
         cy="-335.625"
         cx="349.625"
         id="path1117-3-5-6-2-9-9-1-7-1"
         style="display:inline;opacity:1;vector-effect:none;fill:none;fill-opacity:1;stroke:#ff0000;stroke-width:0.28346458;stroke-linecap:butt;stroke-linejoin:miter;stroke-miterlimit:4;stroke-dasharray:none;stroke-dashoffset:0;stroke-opacity:1" /><circle
         transform="scale(1,-1)"
         r="2.8486927"
         cy="-293.125"
         cx="349.5625"
         id="path1117-3-5-6-2-9-9-1-7-1-9"
         style="display:inline;opacity:1;vector-effect:none;fill:none;fill-opacity:1;stroke:#ff0000;stroke-width:0.28346458;stroke-linecap:butt;stroke-linejoin:miter;stroke-miterlimit:4;stroke-dasharray:none;stroke-dashoffset:0;stroke-opacity:1" /><path
         inkscape:connector-curvature="0"
         id="path5657-6-8"
         d="m 26.393582,117.6875 h 35.21285 V 116 h 2.01857 V 80.125008 h -2.01857 v -1.6875 h -35.21285 v 1.6875 h -2.01857 V 116 h 2.01857 z"
         style="display:inline;fill:none;stroke:#ff0000;stroke-width:0.28346458;stroke-linecap:butt;stroke-linejoin:miter;stroke-miterlimit:4;stroke-dasharray:none;stroke-opacity:1" /><path
         inkscape:connector-curvature="0"
         id="path5657-1-4-9-2-9-4"
         d="m 296.89358,279.68751 h 35.21286 v -1.6875 h 2.01857 v -35.875 h -2.01857 v -1.6875 h -35.21286 v 1.6875 h -2.01857 v 35.875 h 2.01857 z"
         style="display:inline;fill:none;stroke:#ff0000;stroke-width:0.28346458;stroke-linecap:butt;stroke-linejoin:miter;stroke-miterlimit:4;stroke-dasharray:none;stroke-opacity:1" /><circle
         transform="scale(1,-1)"
         r="2.8486927"
         cy="-124.50001"
         cx="-31.35001"
         id="path1117-3-8"
         style="display:inline;fill:none;stroke:#ff0000;stroke-width:0.28346458;stroke-miterlimit:4;stroke-dasharray:none;stroke-opacity:1" /></g><g
       id="g5951"
       transform="translate(0,-65.250002)"><circle
         transform="scale(1,-1)"
         r="2.8486927"
         cy="-587.60736"
         cx="777.82135"
         id="path1117-8-5"
         style="display:inline;fill:none;stroke:#ff0000;stroke-width:0.28346458;stroke-miterlimit:4;stroke-dasharray:none;stroke-opacity:1" /><circle
         transform="scale(1,-1)"
         r="2.8486927"
         cy="-490.05136"
         cx="777.76196"
         id="path1117-3-2-2"
         style="display:inline;fill:none;stroke:#ff0000;stroke-width:0.28346458;stroke-miterlimit:4;stroke-dasharray:none;stroke-opacity:1" /><circle
         transform="scale(1,-1)"
         r="2.8486927"
         cy="-373.61459"
         cx="714.88281"
         id="path1117-3-5-66-9"
         style="display:inline;fill:none;stroke:#ff0000;stroke-width:0.28346458;stroke-miterlimit:4;stroke-dasharray:none;stroke-opacity:1" /><circle
         transform="scale(1,-1)"
         r="2.8486927"
         cy="-373.73959"
         cx="552.88263"
         id="path1117-3-5-6-4-0"
         style="display:inline;fill:none;stroke:#ff0000;stroke-width:0.28346458;stroke-miterlimit:4;stroke-dasharray:none;stroke-opacity:1" /><circle
         transform="scale(1,-1)"
         r="2.8486927"
         cy="-373.83298"
         cx="385.56216"
         id="path1117-3-5-6-2-95-2"
         style="display:inline;fill:none;stroke:#ff0000;stroke-width:0.28346458;stroke-miterlimit:4;stroke-dasharray:none;stroke-opacity:1" /><circle
         transform="scale(1,-1)"
         r="2.8486927"
         cy="-587.36456"
         cx="434.50766"
         id="path1117-3-5-6-2-9-0-8"
         style="display:inline;fill:none;stroke:#ff0000;stroke-width:0.28346458;stroke-miterlimit:4;stroke-dasharray:none;stroke-opacity:1" /><circle
         transform="scale(1,-1)"
         r="2.8486927"
         cy="-489.73959"
         cx="400.50769"
         id="path1117-3-5-6-2-1-4-3"
         style="display:inline;fill:none;stroke:#ff0000;stroke-width:0.28346458;stroke-miterlimit:4;stroke-dasharray:none;stroke-opacity:1" /><path
         sodipodi:nodetypes="cscccccccccscccc"
         inkscape:connector-curvature="0"
         id="path1536-9-5"
         d="m 427.70476,658.80071 c 0,0 -0.17675,5.32175 4.55595,5.32636 l 128.36561,0.12499 c 8.94093,0 10.5,-3.75001 30.25001,-12.375 18.85283,0.47973 168.65844,5e-4 189.81272,0.007 5.8995,0 5.61022,-0.69197 5.61022,-5.69432 0.0669,-71.59641 0.003,-143.19286 -0.0207,-214.78928 0,0 0.68677,-4.18543 -5.46765,-10.03476 -5.59185,-5.5369 -55.24373,-50.3966 -55.24373,-50.3966 0,0 -4.66005,-5.65779 -17.37203,-5.49044 -9.14955,-0.0202 -326.06551,-0.71822 -326.06551,-0.71822 0,0 -6.06194,0.16612 -6.18792,5.43856 -0.12599,5.27243 -0.16508,74.94139 -0.16508,74.94139 h -8e-5 c 0,0 52.13868,154.10962 51.88867,154.35963 z"
         style="display:inline;fill:none;stroke:#ff0000;stroke-width:0.28346458;stroke-linecap:butt;stroke-linejoin:miter;stroke-miterlimit:4;stroke-dasharray:none;stroke-opacity:1" /><circle
         transform="scale(1,-1)"
         r="2.8486927"
         cy="-604.18958"
         cx="434.87631"
         id="path1117-3-5-6-2-9-9-12-4"
         style="display:inline;fill:none;stroke:#ff0000;stroke-width:0.28346458;stroke-miterlimit:4;stroke-dasharray:none;stroke-opacity:1" /><circle
         transform="scale(1,-1)"
         r="2.8486927"
         cy="-656.75208"
         cx="434.87631"
         id="path1117-3-5-6-2-9-9-1-70-4"
         style="display:inline;fill:none;stroke:#ff0000;stroke-width:0.28346458;stroke-miterlimit:4;stroke-dasharray:none;stroke-opacity:1" /><circle
         transform="scale(1,-1)"
         r="2.8486927"
         cy="-656.75208"
         cx="563.62634"
         id="path1117-3-5-6-2-9-9-1-7-9-9"
         style="display:inline;fill:none;stroke:#ff0000;stroke-width:0.28346458;stroke-miterlimit:4;stroke-dasharray:none;stroke-opacity:1" /><circle
         transform="scale(1,-1)"
         r="2.8486927"
         cy="-646.62708"
         cx="777.87628"
         id="path1117-3-5-6-2-9-9-1-7-1-3-9"
         style="display:inline;opacity:1;vector-effect:none;fill:none;fill-opacity:1;stroke:#ff0000;stroke-width:0.28346458;stroke-linecap:butt;stroke-linejoin:miter;stroke-miterlimit:4;stroke-dasharray:none;stroke-dashoffset:0;stroke-opacity:1" /><circle
         transform="scale(1,-1)"
         r="2.8486927"
         cy="-604.12708"
         cx="777.81384"
         id="path1117-3-5-6-2-9-9-1-7-1-9-6-3"
         style="display:inline;opacity:1;vector-effect:none;fill:none;fill-opacity:1;stroke:#ff0000;stroke-width:0.28346458;stroke-linecap:butt;stroke-linejoin:miter;stroke-miterlimit:4;stroke-dasharray:none;stroke-dashoffset:0;stroke-opacity:1" /></g><g
       id="g5850"
       transform="translate(0,-11.25)"><path
         sodipodi:nodetypes="cccscscccsccccc"
         id="path4501-02"
         inkscape:connector-curvature="0"
         d="m 358.08407,428.67709 c 0,0 0.71463,-1.89957 -5.21764,-7.31139 -5.5919,-5.53691 -55.24377,-50.3966 -55.24377,-50.3966 0,0 -4.47255,-5.46203 -17.37204,-5.49044 l -326.065511,-0.71822 c 0,0 -6.06194,0.16612 -6.18792,5.43855 -0.12599,5.27243 -0.16507,74.9414 -0.16507,74.9414 l 51.55954015,208.29713 v 60.03823 c 0,0 -0.20344,4.63435 4.43095005,4.63886 L 132.31322,718.2396 c 8.94092,0 10.5,-3.75001 30.25,-12.375 18.85284,0.47973 168.65849,5e-4 189.8127,0.007 5.89952,0 5.61026,-0.69197 5.61026,-5.69432 0.235,-90.49976 0.10659,-181.00015 0.0979,-271.50019 z"
         style="display:inline;fill:none;stroke:#ff0000;stroke-width:0.28346458;stroke-linecap:butt;stroke-linejoin:miter;stroke-miterlimit:4;stroke-dasharray:none;stroke-opacity:1;image-rendering:auto" /><circle
         transform="scale(1,-1)"
         r="2.8486927"
         cy="-641.91986"
         cx="349.50183"
         id="path1117-6"
         style="display:inline;fill:none;stroke:#ff0000;stroke-width:0.28346458;stroke-miterlimit:4;stroke-dasharray:none;stroke-opacity:1" /><circle
         transform="scale(1,-1)"
         r="2.8486927"
         cy="-490.05136"
         cx="349.50494"
         id="path1117-3-1"
         style="display:inline;fill:none;stroke:#ff0000;stroke-width:0.28346458;stroke-miterlimit:4;stroke-dasharray:none;stroke-opacity:1" /><circle
         transform="scale(1,-1)"
         r="2.8486927"
         cy="-373.61459"
         cx="286.9382"
         id="path1117-3-5-3"
         style="display:inline;fill:none;stroke:#ff0000;stroke-width:0.28346458;stroke-miterlimit:4;stroke-dasharray:none;stroke-opacity:1" /><circle
         transform="scale(1,-1)"
         r="2.8486927"
         cy="-373.73959"
         cx="124.93823"
         id="path1117-3-5-6-21"
         style="display:inline;fill:none;stroke:#ff0000;stroke-width:0.28346458;stroke-miterlimit:4;stroke-dasharray:none;stroke-opacity:1" /><circle
         transform="scale(1,-1)"
         r="2.8486927"
         cy="-373.83298"
         cx="-42.382298"
         id="path1117-3-5-6-2-5"
         style="display:inline;fill:none;stroke:#ff0000;stroke-width:0.28346458;stroke-miterlimit:4;stroke-dasharray:none;stroke-opacity:1" /><circle
         transform="scale(1,-1)"
         r="2.8486927"
         cy="-641.73962"
         cx="6.5632296"
         id="path1117-3-5-6-2-9-99"
         style="display:inline;fill:none;stroke:#ff0000;stroke-width:0.28346458;stroke-miterlimit:4;stroke-dasharray:none;stroke-opacity:1" /><circle
         transform="scale(1,-1)"
         r="2.8486927"
         cy="-658.17712"
         cx="6.5632296"
         id="path1117-3-5-6-2-9-9-0"
         style="display:inline;fill:none;stroke:#ff0000;stroke-width:0.28346458;stroke-miterlimit:4;stroke-dasharray:none;stroke-opacity:1" /><circle
         transform="scale(1,-1)"
         r="2.8486927"
         cy="-710.73962"
         cx="6.5632296"
         id="path1117-3-5-6-2-9-9-1-4"
         style="display:inline;fill:none;stroke:#ff0000;stroke-width:0.28346458;stroke-miterlimit:4;stroke-dasharray:none;stroke-opacity:1" /><circle
         transform="scale(1,-1)"
         r="2.8486927"
         cy="-710.73962"
         cx="135.31323"
         id="path1117-3-5-6-2-9-9-1-7-0"
         style="display:inline;fill:none;stroke:#ff0000;stroke-width:0.28346458;stroke-miterlimit:4;stroke-dasharray:none;stroke-opacity:1" /><circle
         transform="scale(1,-1)"
         r="2.8486927"
         cy="-700.61462"
         cx="349.5632"
         id="path1117-3-5-6-2-9-9-1-7-1-91"
         style="display:inline;opacity:1;vector-effect:none;fill:none;fill-opacity:1;stroke:#ff0000;stroke-width:0.28346458;stroke-linecap:butt;stroke-linejoin:miter;stroke-miterlimit:4;stroke-dasharray:none;stroke-dashoffset:0;stroke-opacity:1" /><circle
         transform="scale(1,-1)"
         r="2.8486927"
         cy="-658.11462"
         cx="349.50073"
         id="path1117-3-5-6-2-9-9-1-7-1-9-9"
         style="display:inline;opacity:1;vector-effect:none;fill:none;fill-opacity:1;stroke:#ff0000;stroke-width:0.28346458;stroke-linecap:butt;stroke-linejoin:miter;stroke-miterlimit:4;stroke-dasharray:none;stroke-dashoffset:0;stroke-opacity:1" /><circle
         transform="scale(1,-1)"
         r="2.8486927"
         cy="-489.48959"
         cx="-31.411776"
         id="path1117-3-8-6"
         style="display:inline;fill:none;stroke:#ff0000;stroke-width:0.28346458;stroke-miterlimit:4;stroke-dasharray:none;stroke-opacity:1" /></g></g></svg>