<?xml version="1.0" encoding="UTF-8" standalone="no"?>
<!-- Created with Inkscape (http://www.inkscape.org/) -->

<svg
   xmlns:dc="http://purl.org/dc/elements/1.1/"
   xmlns:cc="http://creativecommons.org/ns#"
   xmlns:rdf="http://www.w3.org/1999/02/22-rdf-syntax-ns#"
   xmlns:svg="http://www.w3.org/2000/svg"
   xmlns="http://www.w3.org/2000/svg"
   xmlns:sodipodi="http://sodipodi.sourceforge.net/DTD/sodipodi-0.dtd"
   xmlns:inkscape="http://www.inkscape.org/namespaces/inkscape"
   version="1.1"
   id="svg5443"
   xml:space="preserve"
   width="477.39999"
   height="333.39999"
   viewBox="0 0 477.39999 333.39999"
   sodipodi:docname="switch-layerl1.ai.svg"
   inkscape:version="0.92.1 r15371"><metadata
     id="metadata5449"><rdf:RDF><cc:Work
         rdf:about=""><dc:format>image/svg+xml</dc:format><dc:type
           rdf:resource="http://purl.org/dc/dcmitype/StillImage" /><dc:title></dc:title></cc:Work></rdf:RDF></metadata><defs
     id="defs5447"><clipPath
       clipPathUnits="userSpaceOnUse"
       id="clipPath5459"><path
         d="M 0,250.05 H 358.05 V 0 H 0 Z"
         id="path5457"
         inkscape:connector-curvature="0" /></clipPath><clipPath
       clipPathUnits="userSpaceOnUse"
       id="clipPath5603"><path
         d="M 0,250.05 H 358.05 V 0 H 0 Z"
         id="path5601"
         inkscape:connector-curvature="0" /></clipPath></defs><sodipodi:namedview
     pagecolor="#ffffff"
     bordercolor="#666666"
     borderopacity="1"
     objecttolerance="10"
     gridtolerance="10"
     guidetolerance="10000"
     inkscape:pageopacity="0"
     inkscape:pageshadow="2"
     inkscape:window-width="1920"
     inkscape:window-height="1151"
     id="namedview5445"
     showgrid="false"
     showguides="true"
     inkscape:guide-bbox="true"
     inkscape:zoom="12"
     inkscape:cx="22.179353"
     inkscape:cy="281.15582"
     inkscape:window-x="0"
     inkscape:window-y="25"
     inkscape:window-maximized="1"
     inkscape:current-layer="g5451"><sodipodi:guide
       position="29.5,159.25"
       orientation="1,0"
       id="guide5609"
       inkscape:locked="false" /><sodipodi:guide
       position="87.833332,307.5"
       orientation="1,0"
       id="guide5611"
       inkscape:locked="false" /><sodipodi:guide
       position="32.5,159.83333"
       orientation="1,0"
       id="guide5613"
       inkscape:locked="false" /><sodipodi:guide
       position="84.833333,162.33333"
       orientation="1,0"
       id="guide5615"
       inkscape:locked="false" /><sodipodi:guide
       position="64.999999,300.91666"
       orientation="0,1"
       id="guide5617"
       inkscape:locked="false" /><sodipodi:guide
       position="104.58333,312.16666"
       orientation="1,0"
       id="guide5619"
       inkscape:locked="false" /><sodipodi:guide
       position="156.83333,311.5"
       orientation="1,0"
       id="guide5621"
       inkscape:locked="false" /><sodipodi:guide
       position="176.5,309.5"
       orientation="1,0"
       id="guide5623"
       inkscape:locked="false" /><sodipodi:guide
       position="98.416666,298.66666"
       orientation="0,1"
       id="guide5625"
       inkscape:locked="false" /><sodipodi:guide
       position="97.666666,248.58333"
       orientation="0,1"
       id="guide5627"
       inkscape:locked="false" /><sodipodi:guide
       position="96.916666,250.83333"
       orientation="0,1"
       id="guide5629"
       inkscape:locked="false" /><sodipodi:guide
       position="228.83333,265.08333"
       orientation="1,0"
       id="guide5631"
       inkscape:locked="false" /><sodipodi:guide
       position="248.5,265.83333"
       orientation="1,0"
       id="guide5633"
       inkscape:locked="false" /><sodipodi:guide
       position="300.83333,256.75"
       orientation="1,0"
       id="guide5635"
       inkscape:locked="false" /><sodipodi:guide
       position="320.5,259"
       orientation="1,0"
       id="guide5637"
       inkscape:locked="false" /><sodipodi:guide
       position="372.83333,262.91666"
       orientation="1,0"
       id="guide5639"
       inkscape:locked="false" /><sodipodi:guide
       position="392.5,267.58333"
       orientation="1,0"
       id="guide5641"
       inkscape:locked="false" /><sodipodi:guide
       position="444.83333,261.91666"
       orientation="1,0"
       id="guide5643"
       inkscape:locked="false" /><sodipodi:guide
       position="439.33333,228.91666"
       orientation="0,1"
       id="guide5645"
       inkscape:locked="false" /><sodipodi:guide
       position="433.41666,176.58333"
       orientation="0,1"
       id="guide5647"
       inkscape:locked="false" /><sodipodi:guide
       position="438.25,156.91666"
       orientation="0,1"
       id="guide5649"
       inkscape:locked="false" /><sodipodi:guide
       position="439.25,104.58333"
       orientation="0,1"
       id="guide5651"
       inkscape:locked="false" /><sodipodi:guide
       position="437,84.916666"
       orientation="0,1"
       id="guide5653"
       inkscape:locked="false" /><sodipodi:guide
       position="440.83333,32.583333"
       orientation="0,1"
       id="guide5655"
       inkscape:locked="false" /></sodipodi:namedview><g
     id="g5451"
     inkscape:groupmode="layer"
     inkscape:label="switch-layer"
     transform="matrix(1.3333333,0,0,-1.3333333,0,333.4)"><g
       id="g5453"><g
         id="g5455"
         clip-path="url(#clipPath5459)"><g
           id="g5461"
           transform="translate(5.6863,0.0142)"><path
             d="m 0,0 -0.445,0.02 -0.442,0.051 -0.437,0.088 -0.431,0.119 -0.416,0.156 -0.403,0.184 -0.388,0.218 -0.372,0.247 -0.348,0.278 -0.329,0.3 -0.3,0.329 -0.278,0.349 -0.247,0.371 -0.218,0.388 -0.184,0.403 -0.156,0.416 -0.119,0.431 -0.088,0.437 -0.051,0.442 -0.02,0.442 0.003,238.68 0.017,0.445 0.051,0.443 0.088,0.436 0.119,0.431 0.156,0.417 0.184,0.402 0.218,0.389 0.247,0.371 0.278,0.349 0.3,0.328 0.329,0.301 0.348,0.278 0.372,0.246 0.388,0.218 0.403,0.185 0.416,0.156 0.431,0.119 0.437,0.088 0.442,0.051 0.445,0.019 346.677,-0.002 0.445,-0.017 0.442,-0.051 0.437,-0.088 0.431,-0.119 0.417,-0.156 0.402,-0.185 0.388,-0.218 0.372,-0.246 0.346,-0.278 0.331,-0.301 0.301,-0.328 0.277,-0.349 0.247,-0.371 0.218,-0.389 0.185,-0.402 0.155,-0.417 0.12,-0.431 0.087,-0.436 0.051,-0.443 0.02,-0.445 V 5.669 l -0.02,-0.442 -0.051,-0.442 -0.087,-0.437 -0.12,-0.431 -0.155,-0.416 -0.185,-0.403 -0.218,-0.388 -0.247,-0.371 -0.277,-0.349 -0.301,-0.329 -0.331,-0.3 -0.346,-0.278 -0.372,-0.247 -0.388,-0.218 -0.402,-0.184 -0.417,-0.156 -0.431,-0.119 -0.437,-0.088 -0.442,-0.051 -0.445,-0.017"
             style="fill:none;stroke:#3a53a4;stroke-width:0.028;stroke-linecap:butt;stroke-linejoin:miter;stroke-miterlimit:4;stroke-dasharray:none;stroke-opacity:1"
             id="path5463"
             inkscape:connector-curvature="0" /></g></g></g><g
       id="g5465"
       transform="translate(348.6104,11.3499)"><path
         d="M 0,0 -0.831,-0.422 -1.488,-1.08 -1.911,-1.911 -2.058,-2.832 -1.911,-3.75 -1.488,-4.581 -0.831,-5.238 0,-5.661 0.918,-5.808 1.84,-5.661 2.67,-5.238 3.328,-4.581 3.75,-3.75 3.898,-2.832 3.75,-1.911 3.328,-1.08 2.67,-0.422 1.84,0 0.918,0.145 Z"
         style="fill:none;stroke:#3a53a4;stroke-width:0.028;stroke-linecap:butt;stroke-linejoin:miter;stroke-miterlimit:4;stroke-dasharray:none;stroke-opacity:1"
         id="path5467"
         inkscape:connector-curvature="0" /></g><g
       id="g5469"
       transform="translate(178.1065,11.3499)"><path
         d="M 0,0 -0.831,-0.422 -1.488,-1.08 -1.913,-1.911 -2.058,-2.832 -1.913,-3.75 -1.488,-4.581 -0.831,-5.238 0,-5.661 0.918,-5.808 1.837,-5.661 2.667,-5.238 3.325,-4.581 3.75,-3.75 3.895,-2.832 3.75,-1.911 3.325,-1.08 2.667,-0.422 1.837,0 0.918,0.145 Z"
         style="fill:none;stroke:#3a53a4;stroke-width:0.028;stroke-linecap:butt;stroke-linejoin:miter;stroke-miterlimit:4;stroke-dasharray:none;stroke-opacity:1"
         id="path5471"
         inkscape:connector-curvature="0" /></g><g
       id="g5473"
       transform="translate(7.5997,11.3499)"><path
         d="M 0,0 -0.831,-0.422 -1.488,-1.08 -1.911,-1.911 -2.058,-2.832 -1.911,-3.75 -1.488,-4.581 -0.831,-5.238 0,-5.661 0.921,-5.808 1.84,-5.661 2.67,-5.238 3.328,-4.581 3.75,-3.75 3.898,-2.832 3.75,-1.911 3.328,-1.08 2.67,-0.422 1.84,0 0.921,0.145 Z"
         style="fill:none;stroke:#3a53a4;stroke-width:0.028;stroke-linecap:butt;stroke-linejoin:miter;stroke-miterlimit:4;stroke-dasharray:none;stroke-opacity:1"
         id="path5475"
         inkscape:connector-curvature="0" /></g><g
       id="g5477"
       transform="translate(348.6104,127.8567)"><path
         d="m 0,0 -0.831,-0.425 -0.657,-0.658 -0.423,-0.83 -0.147,-0.919 0.147,-0.918 0.423,-0.831 0.657,-0.657 L 0,-5.664 0.918,-5.808 1.84,-5.664 2.67,-5.238 3.328,-4.581 3.75,-3.75 3.898,-2.832 3.75,-1.913 3.328,-1.083 2.67,-0.425 1.84,0 0.918,0.145 Z"
         style="fill:none;stroke:#3a53a4;stroke-width:0.028;stroke-linecap:butt;stroke-linejoin:miter;stroke-miterlimit:4;stroke-dasharray:none;stroke-opacity:1"
         id="path5479"
         inkscape:connector-curvature="0" /></g><g
       id="g5481"
       transform="translate(7.5997,127.8567)"><path
         d="m 0,0 -0.831,-0.425 -0.657,-0.658 -0.423,-0.83 -0.147,-0.919 0.147,-0.918 0.423,-0.831 0.657,-0.657 L 0,-5.664 0.921,-5.808 1.84,-5.664 2.67,-5.238 3.328,-4.581 3.75,-3.75 3.898,-2.832 3.75,-1.913 3.328,-1.083 2.67,-0.425 1.84,0 0.921,0.145 Z"
         style="fill:none;stroke:#3a53a4;stroke-width:0.028;stroke-linecap:butt;stroke-linejoin:miter;stroke-miterlimit:4;stroke-dasharray:none;stroke-opacity:1"
         id="path5483"
         inkscape:connector-curvature="0" /></g><g
       id="g5485"
       transform="translate(348.6104,244.3606)"><path
         d="M 0,0 -0.831,-0.422 -1.488,-1.08 -1.911,-1.911 -2.058,-2.832 -1.911,-3.75 -1.488,-4.581 -0.831,-5.238 0,-5.661 0.918,-5.808 1.84,-5.661 2.67,-5.238 3.328,-4.581 3.75,-3.75 3.898,-2.832 3.75,-1.911 3.328,-1.08 2.67,-0.422 1.84,0 0.918,0.145 Z"
         style="fill:none;stroke:#3a53a4;stroke-width:0.028;stroke-linecap:butt;stroke-linejoin:miter;stroke-miterlimit:4;stroke-dasharray:none;stroke-opacity:1"
         id="path5487"
         inkscape:connector-curvature="0" /></g><g
       id="g5489"
       transform="translate(7.5997,244.3606)"><path
         d="M 0,0 -0.831,-0.422 -1.488,-1.08 -1.911,-1.911 -2.058,-2.832 -1.911,-3.75 -1.488,-4.581 -0.831,-5.238 0,-5.661 0.921,-5.808 1.84,-5.661 2.67,-5.238 3.328,-4.581 3.75,-3.75 3.898,-2.832 3.75,-1.911 3.328,-1.08 2.67,-0.422 1.84,0 0.921,0.145 Z"
         style="fill:none;stroke:#3a53a4;stroke-width:0.028;stroke-linecap:butt;stroke-linejoin:miter;stroke-miterlimit:4;stroke-dasharray:none;stroke-opacity:1"
         id="path5491"
         inkscape:connector-curvature="0" /></g><g
       id="g5493"
       transform="translate(246.1359,244.3606)"><path
         d="M 0,0 -0.831,-0.422 -1.488,-1.08 -1.911,-1.911 -2.058,-2.832 -1.911,-3.75 -1.488,-4.581 -0.831,-5.238 0,-5.661 0.918,-5.808 1.84,-5.661 2.667,-5.238 3.328,-4.581 3.75,-3.75 3.895,-2.832 3.75,-1.911 3.328,-1.08 2.667,-0.422 1.84,0 0.918,0.145 Z"
         style="fill:none;stroke:#3a53a4;stroke-width:0.028;stroke-linecap:butt;stroke-linejoin:miter;stroke-miterlimit:4;stroke-dasharray:none;stroke-opacity:1"
         id="path5495"
         inkscape:connector-curvature="0" /></g><g
       id="g5497"
       transform="translate(159.7781,244.3606)"><path
         d="M 0,0 -0.831,-0.422 -1.488,-1.08 -1.911,-1.911 -2.058,-2.832 -1.911,-3.75 -1.488,-4.581 -0.831,-5.238 0,-5.661 0.918,-5.808 1.84,-5.661 2.667,-5.238 3.328,-4.581 3.75,-3.75 3.895,-2.832 3.75,-1.911 3.328,-1.08 2.667,-0.422 1.84,0 0.918,0.145 Z"
         style="fill:none;stroke:#3a53a4;stroke-width:0.028;stroke-linecap:butt;stroke-linejoin:miter;stroke-miterlimit:4;stroke-dasharray:none;stroke-opacity:1"
         id="path5499"
         inkscape:connector-curvature="0" /></g><g
       id="g5501"
       transform="translate(24.3964,63.6563)"><path
         d="M 0,0 V -1.701 H -2.268 V -37.559 H 0 v -1.701 h 39.26 v 1.701 h 2.268 V -1.701 H 39.26 V 0 Z"
         style="fill:none;stroke:#3a53a4;stroke-width:0.028;stroke-linecap:butt;stroke-linejoin:miter;stroke-miterlimit:4;stroke-dasharray:none;stroke-opacity:1"
         id="path5503"
         inkscape:connector-curvature="0" /></g><g
       id="g5505"
       transform="translate(78.3964,63.6563)"><path
         d="M 0,0 V -1.701 H -2.268 V -37.559 H 0 v -1.701 h 39.26 v 1.701 h 2.268 V -1.701 H 39.26 V 0 Z"
         style="fill:none;stroke:#3a53a4;stroke-width:0.028;stroke-linecap:butt;stroke-linejoin:miter;stroke-miterlimit:4;stroke-dasharray:none;stroke-opacity:1"
         id="path5507"
         inkscape:connector-curvature="0" /></g><g
       id="g5509"
       transform="translate(132.3964,63.6563)"><path
         d="M 0,0 V -1.701 H -2.268 V -37.559 H 0 v -1.701 h 39.26 v 1.701 h 2.268 V -1.701 H 39.26 V 0 Z"
         style="fill:none;stroke:#3a53a4;stroke-width:0.028;stroke-linecap:butt;stroke-linejoin:miter;stroke-miterlimit:4;stroke-dasharray:none;stroke-opacity:1"
         id="path5511"
         inkscape:connector-curvature="0" /></g><g
       id="g5513"
       transform="translate(186.3964,63.6563)"><path
         d="M 0,0 V -1.701 H -2.268 V -37.559 H 0 v -1.701 h 39.26 v 1.701 h 2.268 V -1.701 H 39.26 V 0 Z"
         style="fill:none;stroke:#3a53a4;stroke-width:0.028;stroke-linecap:butt;stroke-linejoin:miter;stroke-miterlimit:4;stroke-dasharray:none;stroke-opacity:1"
         id="path5515"
         inkscape:connector-curvature="0" /></g><g
       id="g5517"
       transform="translate(240.3964,63.6563)"><path
         d="M 0,0 V -1.701 H -2.268 V -37.559 H 0 v -1.701 h 39.26 v 1.701 h 2.265 V -1.701 H 39.26 V 0 Z"
         style="fill:none;stroke:#3a53a4;stroke-width:0.028;stroke-linecap:butt;stroke-linejoin:miter;stroke-miterlimit:4;stroke-dasharray:none;stroke-opacity:1"
         id="path5519"
         inkscape:connector-curvature="0" /></g><g
       id="g5521"
       transform="translate(294.3964,63.6563)"><path
         d="M 0,0 V -1.701 H -2.268 V -37.559 H 0 v -1.701 h 39.257 v 1.701 h 2.268 V -1.701 H 39.257 V 0 Z"
         style="fill:none;stroke:#3a53a4;stroke-width:0.028;stroke-linecap:butt;stroke-linejoin:miter;stroke-miterlimit:4;stroke-dasharray:none;stroke-opacity:1"
         id="path5523"
         inkscape:connector-curvature="0" /></g><g
       id="g5525"
       transform="translate(24.3964,117.6563)"><path
         d="M 0,0 V -1.701 H -2.268 V -37.559 H 0 v -1.701 h 39.26 v 1.701 h 2.268 V -1.701 H 39.26 V 0 Z"
         style="fill:none;stroke:#3a53a4;stroke-width:0.028;stroke-linecap:butt;stroke-linejoin:miter;stroke-miterlimit:4;stroke-dasharray:none;stroke-opacity:1"
         id="path5527"
         inkscape:connector-curvature="0" /></g><g
       id="g5529"
       transform="translate(78.3964,117.6563)"><path
         d="M 0,0 V -1.701 H -2.268 V -37.559 H 0 v -1.701 h 39.26 v 1.701 h 2.268 V -1.701 H 39.26 V 0 Z"
         style="fill:none;stroke:#3a53a4;stroke-width:0.028;stroke-linecap:butt;stroke-linejoin:miter;stroke-miterlimit:4;stroke-dasharray:none;stroke-opacity:1"
         id="path5531"
         inkscape:connector-curvature="0" /></g><g
       id="g5533"
       transform="translate(132.3964,117.6563)"><path
         d="M 0,0 V -1.701 H -2.268 V -37.559 H 0 v -1.701 h 39.26 v 1.701 h 2.268 V -1.701 H 39.26 V 0 Z"
         style="fill:none;stroke:#3a53a4;stroke-width:0.028;stroke-linecap:butt;stroke-linejoin:miter;stroke-miterlimit:4;stroke-dasharray:none;stroke-opacity:1"
         id="path5535"
         inkscape:connector-curvature="0" /></g><g
       id="g5537"
       transform="translate(186.3964,117.6563)"><path
         d="M 0,0 V -1.701 H -2.268 V -37.559 H 0 v -1.701 h 39.26 v 1.701 h 2.268 V -1.701 H 39.26 V 0 Z"
         style="fill:none;stroke:#3a53a4;stroke-width:0.028;stroke-linecap:butt;stroke-linejoin:miter;stroke-miterlimit:4;stroke-dasharray:none;stroke-opacity:1"
         id="path5539"
         inkscape:connector-curvature="0" /></g><g
       id="g5541"
       transform="translate(240.3964,117.6563)"><path
         d="M 0,0 V -1.701 H -2.268 V -37.559 H 0 v -1.701 h 39.26 v 1.701 h 2.265 V -1.701 H 39.26 V 0 Z"
         style="fill:none;stroke:#3a53a4;stroke-width:0.028;stroke-linecap:butt;stroke-linejoin:miter;stroke-miterlimit:4;stroke-dasharray:none;stroke-opacity:1"
         id="path5543"
         inkscape:connector-curvature="0" /></g><g
       id="g5545"
       transform="translate(294.3964,117.6563)"><path
         d="M 0,0 V -1.701 H -2.268 V -37.559 H 0 v -1.701 h 39.257 v 1.701 h 2.268 V -1.701 H 39.257 V 0 Z"
         style="fill:none;stroke:#3a53a4;stroke-width:0.028;stroke-linecap:butt;stroke-linejoin:miter;stroke-miterlimit:4;stroke-dasharray:none;stroke-opacity:1"
         id="path5547"
         inkscape:connector-curvature="0" /></g><g
       id="g5549"
       transform="translate(24.3964,171.6562)"><path
         d="M 0,0 V -1.701 H -2.268 V -37.559 H 0 v -1.701 h 39.26 v 1.701 h 2.268 V -1.701 H 39.26 V 0 Z"
         style="fill:none;stroke:#3a53a4;stroke-width:0.028;stroke-linecap:butt;stroke-linejoin:miter;stroke-miterlimit:4;stroke-dasharray:none;stroke-opacity:1"
         id="path5551"
         inkscape:connector-curvature="0" /></g><g
       id="g5553"
       transform="translate(78.3964,171.6562)"><path
         d="M 0,0 V -1.701 H -2.268 V -37.559 H 0 v -1.701 h 39.26 v 1.701 h 2.268 V -1.701 H 39.26 V 0 Z"
         style="fill:none;stroke:#3a53a4;stroke-width:0.028;stroke-linecap:butt;stroke-linejoin:miter;stroke-miterlimit:4;stroke-dasharray:none;stroke-opacity:1"
         id="path5555"
         inkscape:connector-curvature="0" /></g><g
       id="g5557"
       transform="translate(132.3964,171.6562)"><path
         d="M 0,0 V -1.701 H -2.268 V -37.559 H 0 v -1.701 h 39.26 v 1.701 h 2.268 V -1.701 H 39.26 V 0 Z"
         style="fill:none;stroke:#3a53a4;stroke-width:0.028;stroke-linecap:butt;stroke-linejoin:miter;stroke-miterlimit:4;stroke-dasharray:none;stroke-opacity:1"
         id="path5559"
         inkscape:connector-curvature="0" /></g><g
       id="g5561"
       transform="translate(186.3964,171.6562)"><path
         d="M 0,0 V -1.701 H -2.268 V -37.559 H 0 v -1.701 h 39.26 v 1.701 h 2.268 V -1.701 H 39.26 V 0 Z"
         style="fill:none;stroke:#3a53a4;stroke-width:0.028;stroke-linecap:butt;stroke-linejoin:miter;stroke-miterlimit:4;stroke-dasharray:none;stroke-opacity:1"
         id="path5563"
         inkscape:connector-curvature="0" /></g><g
       id="g5565"
       transform="translate(240.3964,171.6562)"><path
         d="M 0,0 V -1.701 H -2.268 V -37.559 H 0 v -1.701 h 39.26 v 1.701 h 2.265 V -1.701 H 39.26 V 0 Z"
         style="fill:none;stroke:#3a53a4;stroke-width:0.028;stroke-linecap:butt;stroke-linejoin:miter;stroke-miterlimit:4;stroke-dasharray:none;stroke-opacity:1"
         id="path5567"
         inkscape:connector-curvature="0" /></g><g
       id="g5569"
       transform="translate(294.3964,171.6562)"><path
         d="M 0,0 V -1.701 H -2.268 V -37.559 H 0 v -1.701 h 39.257 v 1.701 h 2.268 V -1.701 H 39.257 V 0 Z"
         style="fill:none;stroke:#3a53a4;stroke-width:0.028;stroke-linecap:butt;stroke-linejoin:miter;stroke-miterlimit:4;stroke-dasharray:none;stroke-opacity:1"
         id="path5571"
         inkscape:connector-curvature="0" /></g><g
       id="g5573"
       transform="translate(24.3964,225.6562)"><path
         d="M 0,0 V -1.701 H -2.268 V -37.559 H 0 v -1.701 h 39.26 v 1.701 h 2.268 V -1.701 H 39.26 V 0 Z"
         style="fill:none;stroke:#3a53a4;stroke-width:0.028;stroke-linecap:butt;stroke-linejoin:miter;stroke-miterlimit:4;stroke-dasharray:none;stroke-opacity:1"
         id="path5575"
         inkscape:connector-curvature="0" /></g><g
       id="g5577"
       transform="translate(78.3964,225.6562)"><path
         d="M 0,0 V -1.701 H -2.268 V -37.559 H 0 v -1.701 h 39.26 v 1.701 h 2.268 V -1.701 H 39.26 V 0 Z"
         style="fill:none;stroke:#3a53a4;stroke-width:0.028;stroke-linecap:butt;stroke-linejoin:miter;stroke-miterlimit:4;stroke-dasharray:none;stroke-opacity:1"
         id="path5579"
         inkscape:connector-curvature="0" /></g><g
       id="g5581"
       transform="translate(132.3964,225.6562)"><path
         d="M 0,0 V -1.701 H -2.268 V -37.559 H 0 v -1.701 h 39.26 v 1.701 h 2.268 V -1.701 H 39.26 V 0 Z"
         style="fill:none;stroke:#3a53a4;stroke-width:0.028;stroke-linecap:butt;stroke-linejoin:miter;stroke-miterlimit:4;stroke-dasharray:none;stroke-opacity:1"
         id="path5583"
         inkscape:connector-curvature="0" /></g><g
       id="g5585"
       transform="translate(186.3964,225.6562)"><path
         d="M 0,0 V -1.701 H -2.268 V -37.559 H 0 v -1.701 h 39.26 v 1.701 h 2.268 V -1.701 H 39.26 V 0 Z"
         style="fill:none;stroke:#3a53a4;stroke-width:0.028;stroke-linecap:butt;stroke-linejoin:miter;stroke-miterlimit:4;stroke-dasharray:none;stroke-opacity:1"
         id="path5587"
         inkscape:connector-curvature="0" /></g><g
       id="g5589"
       transform="translate(240.3964,225.6562)"><path
         d="M 0,0 V -1.701 H -2.268 V -37.559 H 0 v -1.701 h 39.26 v 1.701 h 2.265 V -1.701 H 39.26 V 0 Z"
         style="fill:none;stroke:#3a53a4;stroke-width:0.028;stroke-linecap:butt;stroke-linejoin:miter;stroke-miterlimit:4;stroke-dasharray:none;stroke-opacity:1"
         id="path5591"
         inkscape:connector-curvature="0" /></g><g
       id="g5593"
       transform="translate(294.3964,225.6562)"><path
         d="M 0,0 V -1.701 H -2.268 V -37.559 H 0 v -1.701 h 39.257 v 1.701 h 2.268 V -1.701 H 39.257 V 0 Z"
         style="fill:none;stroke:#3a53a4;stroke-width:0.028;stroke-linecap:butt;stroke-linejoin:miter;stroke-miterlimit:4;stroke-dasharray:none;stroke-opacity:1"
         id="path5595"
         inkscape:connector-curvature="0" /></g><g
       id="g5597"><g
         id="g5599"
         clip-path="url(#clipPath5603)"><g
           id="g5605"
           transform="translate(5.6863,0.0142)"><path
             d="M 0,0 346.677,0.003"
             style="fill:none;stroke:#3a53a4;stroke-width:0.028;stroke-linecap:butt;stroke-linejoin:miter;stroke-miterlimit:4;stroke-dasharray:none;stroke-opacity:1"
             id="path5607"
             inkscape:connector-curvature="0" /></g></g></g><path
       style="fill:none;stroke:#f70000;stroke-width:0.0075;stroke-linecap:butt;stroke-linejoin:miter;stroke-opacity:1;stroke-miterlimit:4;stroke-dasharray:none"
       d="m 24.375001,225.68751 h 39.250001 v -1.6875 h 2.25 v -35.875 h -2.25 v -1.6875 H 24.375001 v 1.6875 h -2.25 v 35.875 h 2.25 z"
       id="path5657"
       inkscape:connector-curvature="0" /></g></svg>